<svg id="mobile" viewBox="0 0 267 289" fill="none" xmlns="http://www.w3.org/2000/svg">
    <path d="M53.4033 29.9297H65.1033C66.47 29.9297 67.6533 29.7797 68.6533 29.4797C69.6533 29.1464 70.4867 28.713 71.1533 28.1797C71.82 27.613 72.32 26.963 72.6533 26.2297C72.9867 25.4964 73.1533 24.713 73.1533 23.8797C73.1533 19.413 70.47 17.1797 65.1033 17.1797H53.4033V29.9297ZM50.0033 14.2797H65.1033C66.6033 14.2797 68.0367 14.4297 69.4033 14.7297C70.8033 14.9964 72.02 15.4797 73.0533 16.1797C74.12 16.8464 74.97 17.7464 75.6033 18.8797C76.2367 19.9797 76.5533 21.363 76.5533 23.0297C76.5533 23.963 76.4033 24.8797 76.1033 25.7797C75.8033 26.6464 75.37 27.4464 74.8033 28.1797C74.27 28.8797 73.62 29.4797 72.8533 29.9797C72.12 30.4797 71.2867 30.8297 70.3533 31.0297V31.1297C72.6533 31.4297 74.4867 32.3797 75.8533 33.9797C77.22 35.5464 77.9033 37.4964 77.9033 39.8297C77.9033 40.3964 77.8533 41.0464 77.7533 41.7797C77.6533 42.4797 77.4533 43.213 77.1533 43.9797C76.8533 44.713 76.42 45.4464 75.8533 46.1797C75.2867 46.913 74.52 47.563 73.5533 48.1297C72.62 48.663 71.4533 49.113 70.0533 49.4797C68.6867 49.813 67.0367 49.9797 65.1033 49.9797H50.0033V14.2797ZM53.4033 47.0797H65.1033C66.37 47.0797 67.57 46.9797 68.7033 46.7797C69.8367 46.5464 70.8367 46.1464 71.7033 45.5797C72.57 45.013 73.2533 44.263 73.7533 43.3297C74.2533 42.363 74.5033 41.163 74.5033 39.7297C74.5033 37.4297 73.6867 35.713 72.0533 34.5797C70.4533 33.413 68.1367 32.8297 65.1033 32.8297H53.4033V47.0797ZM103.653 49.9797H100.753V45.3297H100.653C99.8196 47.063 98.6029 48.3964 97.0029 49.3297C95.4363 50.2297 93.6863 50.6797 91.7529 50.6797C90.1196 50.6797 88.7196 50.4464 87.5529 49.9797C86.4196 49.5464 85.4863 48.913 84.7529 48.0797C84.0529 47.2464 83.5363 46.2297 83.2029 45.0297C82.8696 43.8297 82.7029 42.463 82.7029 40.9297V24.1797H85.8529V40.9797C85.9196 43.313 86.4529 45.0797 87.4529 46.2797C88.4863 47.4797 90.2529 48.0797 92.7529 48.0797C94.1196 48.0797 95.2863 47.7964 96.2529 47.2297C97.2196 46.6297 98.0196 45.8464 98.6529 44.8797C99.2863 43.913 99.7529 42.813 100.053 41.5797C100.353 40.313 100.503 39.0297 100.503 37.7297V24.1797H103.653V49.9797ZM109.658 14.2797H112.808V19.3297H109.658V14.2797ZM109.658 24.1797H112.808V49.9797H109.658V24.1797ZM118.887 14.2797H122.037V49.9797H118.887V14.2797ZM150.765 49.9797H147.865V45.0797H147.765C147.432 45.913 146.932 46.6797 146.265 47.3797C145.632 48.0797 144.899 48.6797 144.065 49.1797C143.232 49.6464 142.332 50.013 141.365 50.2797C140.432 50.5464 139.499 50.6797 138.565 50.6797C136.599 50.6797 134.882 50.3297 133.415 49.6297C131.982 48.8964 130.782 47.913 129.815 46.6797C128.849 45.413 128.132 43.963 127.665 42.3297C127.199 40.663 126.965 38.913 126.965 37.0797C126.965 35.2464 127.199 33.513 127.665 31.8797C128.132 30.213 128.849 28.763 129.815 27.5297C130.782 26.263 131.982 25.263 133.415 24.5297C134.882 23.7964 136.599 23.4297 138.565 23.4297C139.532 23.4297 140.465 23.5464 141.365 23.7797C142.299 24.013 143.165 24.3797 143.965 24.8797C144.765 25.3464 145.465 25.9297 146.065 26.6297C146.699 27.3297 147.182 28.1464 147.515 29.0797H147.615V14.2797H150.765V49.9797ZM130.115 37.0797C130.115 38.413 130.265 39.7464 130.565 41.0797C130.899 42.3797 131.399 43.5464 132.065 44.5797C132.765 45.613 133.649 46.463 134.715 47.1297C135.782 47.763 137.065 48.0797 138.565 48.0797C140.232 48.0797 141.632 47.763 142.765 47.1297C143.932 46.463 144.865 45.613 145.565 44.5797C146.299 43.5464 146.815 42.3797 147.115 41.0797C147.449 39.7464 147.615 38.413 147.615 37.0797C147.615 35.7464 147.449 34.4297 147.115 33.1297C146.815 31.7964 146.299 30.613 145.565 29.5797C144.865 28.5464 143.932 27.713 142.765 27.0797C141.632 26.413 140.232 26.0797 138.565 26.0797C137.065 26.0797 135.782 26.413 134.715 27.0797C133.649 27.713 132.765 28.5464 132.065 29.5797C131.399 30.613 130.899 31.7964 130.565 33.1297C130.265 34.4297 130.115 35.7464 130.115 37.0797ZM156.826 14.2797H159.976V19.3297H156.826V14.2797ZM156.826 24.1797H159.976V49.9797H156.826V24.1797ZM165.955 24.1797H169.105V28.6297H169.205C169.805 27.063 170.872 25.813 172.405 24.8797C173.938 23.913 175.622 23.4297 177.455 23.4297C179.255 23.4297 180.755 23.663 181.955 24.1297C183.188 24.5964 184.172 25.263 184.905 26.1297C185.638 26.963 186.155 27.9964 186.455 29.2297C186.755 30.463 186.905 31.8464 186.905 33.3797V49.9797H183.755V33.8797C183.755 32.7797 183.655 31.763 183.455 30.8297C183.255 29.863 182.905 29.0297 182.405 28.3297C181.905 27.6297 181.222 27.0797 180.355 26.6797C179.522 26.2797 178.472 26.0797 177.205 26.0797C175.938 26.0797 174.805 26.313 173.805 26.7797C172.838 27.213 172.005 27.8297 171.305 28.6297C170.638 29.3964 170.105 30.3297 169.705 31.4297C169.338 32.4964 169.138 33.663 169.105 34.9297V49.9797H165.955V24.1797ZM214.66 47.8797C214.66 49.7797 214.444 51.4964 214.01 53.0297C213.61 54.563 212.96 55.863 212.06 56.9297C211.16 57.9964 209.977 58.813 208.51 59.3797C207.077 59.9464 205.31 60.2297 203.21 60.2297C201.91 60.2297 200.644 60.0797 199.41 59.7797C198.177 59.4797 197.06 59.013 196.06 58.3797C195.094 57.7464 194.277 56.9297 193.61 55.9297C192.977 54.963 192.61 53.7964 192.51 52.4297H195.66C195.827 53.3964 196.144 54.1964 196.61 54.8297C197.11 55.4964 197.694 56.0297 198.36 56.4297C199.06 56.8297 199.827 57.113 200.66 57.2797C201.494 57.4797 202.344 57.5797 203.21 57.5797C206.144 57.5797 208.26 56.7464 209.56 55.0797C210.86 53.413 211.51 51.013 211.51 47.8797V44.3797H211.41C210.677 45.9797 209.594 47.263 208.16 48.2297C206.76 49.1964 205.11 49.6797 203.21 49.6797C201.144 49.6797 199.377 49.3464 197.91 48.6797C196.444 47.9797 195.227 47.0297 194.26 45.8297C193.327 44.6297 192.644 43.2297 192.21 41.6297C191.777 39.9964 191.56 38.263 191.56 36.4297C191.56 34.663 191.81 32.9964 192.31 31.4297C192.844 29.8297 193.594 28.4464 194.56 27.2797C195.56 26.0797 196.777 25.1464 198.21 24.4797C199.677 23.7797 201.344 23.4297 203.21 23.4297C204.177 23.4297 205.077 23.563 205.91 23.8297C206.777 24.0964 207.56 24.4797 208.26 24.9797C208.96 25.4464 209.577 25.9964 210.11 26.6297C210.677 27.263 211.11 27.9297 211.41 28.6297H211.51V24.1797H214.66V47.8797ZM203.21 47.0297C204.577 47.0297 205.777 46.7464 206.81 46.1797C207.844 45.5797 208.71 44.813 209.41 43.8797C210.11 42.913 210.627 41.813 210.96 40.5797C211.327 39.3464 211.51 38.0797 211.51 36.7797C211.51 35.513 211.36 34.2464 211.06 32.9797C210.76 31.713 210.277 30.563 209.61 29.5297C208.944 28.4964 208.077 27.663 207.01 27.0297C205.977 26.3964 204.71 26.0797 203.21 26.0797C201.71 26.0797 200.427 26.3964 199.36 27.0297C198.294 27.6297 197.41 28.4297 196.71 29.4297C196.01 30.4297 195.494 31.5797 195.16 32.8797C194.86 34.1464 194.71 35.4464 194.71 36.7797C194.71 38.0797 194.877 39.3464 195.21 40.5797C195.544 41.813 196.06 42.913 196.76 43.8797C197.46 44.813 198.344 45.5797 199.41 46.1797C200.477 46.7464 201.744 47.0297 203.21 47.0297Z" fill="white"/>
    <path d="M34.027 89.879C34.127 88.2123 34.5436 86.829 35.277 85.729C36.0103 84.629 36.9436 83.7457 38.077 83.079C39.2103 82.4123 40.477 81.9457 41.877 81.679C43.3103 81.379 44.7436 81.229 46.177 81.229C47.477 81.229 48.7936 81.329 50.127 81.529C51.4603 81.6957 52.677 82.0457 53.777 82.579C54.877 83.1123 55.777 83.8623 56.477 84.829C57.177 85.7623 57.527 87.0123 57.527 88.579V102.029C57.527 103.196 57.5936 104.312 57.727 105.379C57.8603 106.446 58.0936 107.246 58.427 107.779H51.227C51.0936 107.379 50.977 106.979 50.877 106.579C50.8103 106.146 50.7603 105.712 50.727 105.279C49.5936 106.446 48.2603 107.262 46.727 107.729C45.1936 108.196 43.627 108.429 42.027 108.429C40.7936 108.429 39.6436 108.279 38.577 107.979C37.5103 107.679 36.577 107.212 35.777 106.579C34.977 105.946 34.3436 105.146 33.877 104.179C33.4436 103.212 33.227 102.062 33.227 100.729C33.227 99.2623 33.477 98.0623 33.977 97.129C34.5103 96.1623 35.177 95.3957 35.977 94.829C36.8103 94.2623 37.7436 93.8457 38.777 93.579C39.8436 93.279 40.9103 93.0457 41.977 92.879C43.0436 92.7123 44.0936 92.579 45.127 92.479C46.1603 92.379 47.077 92.229 47.877 92.029C48.677 91.829 49.3103 91.5457 49.777 91.179C50.2436 90.779 50.4603 90.2123 50.427 89.479C50.427 88.7123 50.2936 88.1123 50.027 87.679C49.7936 87.2123 49.4603 86.8623 49.027 86.629C48.627 86.3623 48.1436 86.1957 47.577 86.129C47.0436 86.029 46.4603 85.979 45.827 85.979C44.427 85.979 43.327 86.279 42.527 86.879C41.727 87.479 41.2603 88.479 41.127 89.879H34.027ZM50.427 95.129C50.127 95.3957 49.7436 95.6123 49.277 95.779C48.8436 95.9123 48.3603 96.029 47.827 96.129C47.327 96.229 46.7936 96.3123 46.227 96.379C45.6603 96.4457 45.0936 96.529 44.527 96.629C43.9936 96.729 43.4603 96.8623 42.927 97.029C42.427 97.1957 41.977 97.429 41.577 97.729C41.2103 97.9957 40.9103 98.3457 40.677 98.779C40.4436 99.2123 40.327 99.7623 40.327 100.429C40.327 101.062 40.4436 101.596 40.677 102.029C40.9103 102.462 41.227 102.812 41.627 103.079C42.027 103.312 42.4936 103.479 43.027 103.579C43.5603 103.679 44.1103 103.729 44.677 103.729C46.077 103.729 47.1603 103.496 47.927 103.029C48.6936 102.562 49.2603 102.012 49.627 101.379C49.9936 100.712 50.2103 100.046 50.277 99.379C50.377 98.7123 50.427 98.179 50.427 97.779V95.129ZM83.0539 95.929C83.0539 97.129 83.2706 98.1457 83.7039 98.979C84.1372 99.8123 84.7039 100.496 85.4039 101.029C86.1372 101.529 86.9872 101.912 87.9539 102.179C88.9206 102.412 89.9206 102.529 90.9539 102.529C91.6539 102.529 92.4039 102.479 93.2039 102.379C94.0039 102.246 94.7539 102.012 95.4539 101.679C96.1539 101.346 96.7372 100.896 97.2039 100.329C97.6706 99.729 97.9039 98.979 97.9039 98.079C97.9039 97.1123 97.5872 96.329 96.9539 95.729C96.3539 95.129 95.5539 94.629 94.5539 94.229C93.5539 93.829 92.4206 93.479 91.1539 93.179C89.8872 92.879 88.6039 92.5457 87.3039 92.179C85.9706 91.8457 84.6706 91.4457 83.4039 90.979C82.1372 90.479 81.0039 89.8457 80.0039 89.079C79.0039 88.3123 78.1872 87.3623 77.5539 86.229C76.9539 85.0623 76.6539 83.6623 76.6539 82.029C76.6539 80.1957 77.0372 78.6123 77.8039 77.279C78.6039 75.9123 79.6372 74.779 80.9039 73.879C82.1706 72.979 83.6039 72.3123 85.2039 71.879C86.8039 71.4457 88.4039 71.229 90.0039 71.229C91.8706 71.229 93.6539 71.4457 95.3539 71.879C97.0872 72.279 98.6206 72.9457 99.9539 73.879C101.287 74.8123 102.337 76.0123 103.104 77.479C103.904 78.9123 104.304 80.6623 104.304 82.729H96.7039C96.6372 81.6623 96.4039 80.779 96.0039 80.079C95.6372 79.379 95.1372 78.829 94.5039 78.429C93.8706 78.029 93.1372 77.7457 92.3039 77.579C91.5039 77.4123 90.6206 77.329 89.6539 77.329C89.0206 77.329 88.3872 77.3957 87.7539 77.529C87.1206 77.6623 86.5372 77.8957 86.0039 78.229C85.5039 78.5623 85.0872 78.979 84.7539 79.479C84.4206 79.979 84.2539 80.6123 84.2539 81.379C84.2539 82.079 84.3872 82.6457 84.6539 83.079C84.9206 83.5123 85.4372 83.9123 86.2039 84.279C87.0039 84.6457 88.0872 85.0123 89.4539 85.379C90.8539 85.7457 92.6706 86.2123 94.9039 86.779C95.5706 86.9123 96.4872 87.1623 97.6539 87.529C98.8539 87.8623 100.037 88.4123 101.204 89.179C102.371 89.9457 103.371 90.979 104.204 92.279C105.071 93.5457 105.504 95.179 105.504 97.179C105.504 98.8123 105.187 100.329 104.554 101.729C103.921 103.129 102.971 104.346 101.704 105.379C100.471 106.379 98.9206 107.162 97.0539 107.729C95.2206 108.296 93.0872 108.579 90.6539 108.579C88.6872 108.579 86.7706 108.329 84.9039 107.829C83.0706 107.362 81.4372 106.612 80.0039 105.579C78.6039 104.546 77.4872 103.229 76.6539 101.629C75.8206 100.029 75.4206 98.129 75.4539 95.929H83.0539ZM118.425 81.929H123.625V86.679H118.425V99.479C118.425 100.679 118.625 101.479 119.025 101.879C119.425 102.279 120.225 102.479 121.425 102.479C121.825 102.479 122.208 102.462 122.575 102.429C122.941 102.396 123.291 102.346 123.625 102.279V107.779C123.025 107.879 122.358 107.946 121.625 107.979C120.891 108.012 120.175 108.029 119.475 108.029C118.375 108.029 117.325 107.946 116.325 107.779C115.358 107.646 114.491 107.362 113.725 106.929C112.991 106.496 112.408 105.879 111.975 105.079C111.541 104.279 111.325 103.229 111.325 101.929V86.679H107.025V81.929H111.325V74.179H118.425V81.929ZM127.003 81.929H133.753V86.729H133.853C134.186 85.929 134.636 85.1957 135.203 84.529C135.769 83.829 136.419 83.2457 137.153 82.779C137.886 82.279 138.669 81.8957 139.503 81.629C140.336 81.3623 141.203 81.229 142.103 81.229C142.569 81.229 143.086 81.3123 143.653 81.479V88.079C143.319 88.0123 142.919 87.9623 142.453 87.929C141.986 87.8623 141.536 87.829 141.103 87.829C139.803 87.829 138.703 88.0457 137.803 88.479C136.903 88.9123 136.169 89.5123 135.603 90.279C135.069 91.0123 134.686 91.879 134.453 92.879C134.219 93.879 134.103 94.9623 134.103 96.129V107.779H127.003V81.929ZM151.857 94.879C151.857 95.9123 151.957 96.929 152.157 97.929C152.357 98.8957 152.691 99.779 153.157 100.579C153.657 101.346 154.307 101.962 155.107 102.429C155.907 102.896 156.907 103.129 158.107 103.129C159.307 103.129 160.307 102.896 161.107 102.429C161.941 101.962 162.591 101.346 163.057 100.579C163.557 99.779 163.907 98.8957 164.107 97.929C164.307 96.929 164.407 95.9123 164.407 94.879C164.407 93.8457 164.307 92.829 164.107 91.829C163.907 90.829 163.557 89.9457 163.057 89.179C162.591 88.4123 161.941 87.7957 161.107 87.329C160.307 86.829 159.307 86.579 158.107 86.579C156.907 86.579 155.907 86.829 155.107 87.329C154.307 87.7957 153.657 88.4123 153.157 89.179C152.691 89.9457 152.357 90.829 152.157 91.829C151.957 92.829 151.857 93.8457 151.857 94.879ZM144.757 94.879C144.757 92.8123 145.074 90.9457 145.707 89.279C146.341 87.579 147.241 86.1457 148.407 84.979C149.574 83.779 150.974 82.8623 152.607 82.229C154.241 81.5623 156.074 81.229 158.107 81.229C160.141 81.229 161.974 81.5623 163.607 82.229C165.274 82.8623 166.691 83.779 167.857 84.979C169.024 86.1457 169.924 87.579 170.557 89.279C171.191 90.9457 171.507 92.8123 171.507 94.879C171.507 96.9457 171.191 98.8123 170.557 100.479C169.924 102.146 169.024 103.579 167.857 104.779C166.691 105.946 165.274 106.846 163.607 107.479C161.974 108.112 160.141 108.429 158.107 108.429C156.074 108.429 154.241 108.112 152.607 107.479C150.974 106.846 149.574 105.946 148.407 104.779C147.241 103.579 146.341 102.146 145.707 100.479C145.074 98.8123 144.757 96.9457 144.757 94.879ZM176.124 81.929H182.874V85.529H183.024C183.924 84.029 185.09 82.9457 186.524 82.279C187.957 81.579 189.424 81.229 190.924 81.229C192.824 81.229 194.374 81.4957 195.574 82.029C196.807 82.529 197.774 83.2457 198.474 84.179C199.174 85.079 199.657 86.1957 199.924 87.529C200.224 88.829 200.374 90.279 200.374 91.879V107.779H193.274V93.179C193.274 91.0457 192.94 89.4623 192.274 88.429C191.607 87.3623 190.424 86.829 188.724 86.829C186.79 86.829 185.39 87.4123 184.524 88.579C183.657 89.7123 183.224 91.5957 183.224 94.229V107.779H176.124V81.929ZM217.813 101.679C218.813 101.679 219.696 101.479 220.463 101.079C221.229 100.679 221.863 100.146 222.363 99.479C222.863 98.8123 223.229 98.0623 223.463 97.229C223.729 96.3623 223.863 95.4623 223.863 94.529C223.863 93.4623 223.763 92.4623 223.563 91.529C223.363 90.5623 223.029 89.7123 222.563 88.979C222.096 88.2457 221.479 87.6623 220.713 87.229C219.946 86.7957 218.979 86.579 217.813 86.579C216.813 86.579 215.946 86.779 215.213 87.179C214.513 87.579 213.913 88.129 213.413 88.829C212.946 89.4957 212.596 90.279 212.363 91.179C212.163 92.0457 212.063 92.9623 212.063 93.929C212.063 94.8623 212.146 95.7957 212.313 96.729C212.513 97.629 212.829 98.4457 213.263 99.179C213.729 99.9123 214.329 100.512 215.063 100.979C215.796 101.446 216.713 101.679 217.813 101.679ZM230.612 106.129C230.612 107.162 230.463 108.346 230.163 109.679C229.896 111.012 229.296 112.246 228.363 113.379C227.429 114.546 226.079 115.529 224.313 116.329C222.546 117.129 220.179 117.529 217.213 117.529C215.946 117.529 214.646 117.362 213.313 117.029C212.013 116.729 210.813 116.246 209.713 115.579C208.646 114.912 207.746 114.046 207.013 112.979C206.313 111.946 205.913 110.696 205.813 109.229H212.863C213.196 110.562 213.846 111.479 214.813 111.979C215.779 112.512 216.896 112.779 218.163 112.779C220.163 112.779 221.613 112.179 222.513 110.979C223.446 109.779 223.896 108.262 223.863 106.429V103.029H223.763C222.996 104.396 221.896 105.412 220.463 106.079C219.063 106.712 217.579 107.029 216.013 107.029C214.079 107.029 212.413 106.696 211.013 106.029C209.613 105.329 208.463 104.396 207.563 103.229C206.663 102.029 205.996 100.646 205.563 99.079C205.163 97.479 204.963 95.7957 204.963 94.029C204.963 92.3623 205.196 90.7623 205.663 89.229C206.163 87.6623 206.879 86.2957 207.813 85.129C208.746 83.929 209.896 82.979 211.263 82.279C212.663 81.579 214.263 81.229 216.063 81.229C217.763 81.229 219.246 81.5457 220.513 82.179C221.813 82.8123 222.896 83.879 223.763 85.379H223.863V81.929H230.612V106.129Z" fill="white"/>
    <path d="M2.57773 145.481C2.67773 143.815 3.0944 142.431 3.82773 141.331C4.56107 140.231 5.4944 139.348 6.62773 138.681C7.76107 138.015 9.02773 137.548 10.4277 137.281C11.8611 136.981 13.2944 136.831 14.7277 136.831C16.0277 136.831 17.3444 136.931 18.6777 137.131C20.0111 137.298 21.2277 137.648 22.3277 138.181C23.4277 138.715 24.3277 139.465 25.0277 140.431C25.7277 141.365 26.0777 142.615 26.0777 144.182V157.632C26.0777 158.798 26.1444 159.915 26.2777 160.982C26.4111 162.048 26.6444 162.848 26.9777 163.382H19.7777C19.6444 162.982 19.5277 162.582 19.4277 162.182C19.3611 161.748 19.3111 161.315 19.2777 160.882C18.1444 162.048 16.8111 162.865 15.2777 163.332C13.7444 163.798 12.1777 164.032 10.5777 164.032C9.3444 164.032 8.1944 163.882 7.12774 163.582C6.06107 163.282 5.12773 162.815 4.32773 162.182C3.52773 161.548 2.8944 160.748 2.42773 159.782C1.9944 158.815 1.77773 157.665 1.77773 156.332C1.77773 154.865 2.02773 153.665 2.52773 152.731C3.06107 151.765 3.72773 150.998 4.52773 150.432C5.36107 149.865 6.2944 149.448 7.32773 149.181C8.3944 148.881 9.46107 148.648 10.5277 148.481C11.5944 148.315 12.6444 148.181 13.6777 148.081C14.7111 147.981 15.6277 147.831 16.4277 147.631C17.2277 147.431 17.8611 147.148 18.3277 146.781C18.7944 146.381 19.0111 145.815 18.9777 145.081C18.9777 144.315 18.8444 143.715 18.5777 143.281C18.3444 142.815 18.0111 142.465 17.5777 142.231C17.1777 141.965 16.6944 141.798 16.1277 141.731C15.5944 141.631 15.0111 141.581 14.3777 141.581C12.9777 141.581 11.8777 141.881 11.0777 142.481C10.2777 143.081 9.81107 144.081 9.67774 145.481H2.57773ZM18.9777 150.731C18.6777 150.998 18.2944 151.215 17.8277 151.381C17.3944 151.515 16.9111 151.631 16.3777 151.731C15.8777 151.831 15.3444 151.915 14.7777 151.981C14.2111 152.048 13.6444 152.131 13.0777 152.231C12.5444 152.331 12.0111 152.465 11.4777 152.632C10.9777 152.798 10.5277 153.031 10.1277 153.331C9.76107 153.598 9.46107 153.948 9.22773 154.381C8.9944 154.815 8.87773 155.365 8.87773 156.032C8.87773 156.665 8.9944 157.198 9.22773 157.632C9.46107 158.065 9.77773 158.415 10.1777 158.682C10.5777 158.915 11.0444 159.081 11.5777 159.181C12.1111 159.282 12.6611 159.332 13.2277 159.332C14.6277 159.332 15.7111 159.098 16.4777 158.631C17.2444 158.165 17.8111 157.615 18.1777 156.981C18.5444 156.315 18.7611 155.648 18.8277 154.981C18.9277 154.315 18.9777 153.781 18.9777 153.382V150.731ZM31.5887 137.531H38.3387V141.131H38.4887C39.3887 139.631 40.5553 138.548 41.9887 137.881C43.422 137.181 44.8887 136.831 46.3887 136.831C48.2887 136.831 49.8387 137.098 51.0387 137.631C52.272 138.131 53.2387 138.848 53.9387 139.781C54.6387 140.681 55.122 141.798 55.3887 143.131C55.6887 144.431 55.8387 145.881 55.8387 147.481V163.382H48.7387V148.781C48.7387 146.648 48.4053 145.065 47.7387 144.031C47.072 142.965 45.8887 142.431 44.1887 142.431C42.2553 142.431 40.8553 143.015 39.9887 144.182C39.122 145.315 38.6887 147.198 38.6887 149.831V163.382H31.5887V137.531ZM79.5773 150.381C79.5773 149.315 79.4773 148.298 79.2773 147.331C79.0773 146.331 78.7273 145.465 78.2273 144.731C77.7607 143.965 77.144 143.348 76.3773 142.881C75.6107 142.415 74.644 142.181 73.4773 142.181C72.3107 142.181 71.3273 142.415 70.5273 142.881C69.7273 143.348 69.0773 143.965 68.5773 144.731C68.1107 145.498 67.7607 146.381 67.5273 147.381C67.3273 148.348 67.2273 149.365 67.2273 150.432C67.2273 151.431 67.344 152.431 67.5773 153.431C67.8107 154.431 68.1773 155.331 68.6773 156.131C69.2107 156.898 69.8607 157.531 70.6273 158.031C71.4273 158.498 72.3773 158.732 73.4773 158.732C74.644 158.732 75.6107 158.498 76.3773 158.031C77.1773 157.565 77.8107 156.948 78.2773 156.181C78.744 155.381 79.0773 154.481 79.2773 153.481C79.4773 152.481 79.5773 151.448 79.5773 150.381ZM79.6773 160.082H79.5773C78.744 161.482 77.644 162.498 76.2773 163.132C74.944 163.732 73.4273 164.032 71.7273 164.032C69.794 164.032 68.094 163.665 66.6273 162.932C65.1607 162.165 63.944 161.148 62.9773 159.882C62.044 158.582 61.3273 157.098 60.8273 155.431C60.3607 153.765 60.1273 152.031 60.1273 150.231C60.1273 148.498 60.3607 146.831 60.8273 145.231C61.3273 143.598 62.044 142.165 62.9773 140.931C63.944 139.698 65.144 138.715 66.5773 137.981C68.0107 137.215 69.6773 136.831 71.5773 136.831C73.1107 136.831 74.5607 137.165 75.9273 137.831C77.3273 138.465 78.4273 139.415 79.2273 140.681H79.3273V127.681H86.4273V163.382H79.6773V160.082ZM106.46 127.681H133.16V134.281H114.31V141.931H131.61V148.031H114.31V156.782H133.56V163.382H106.46V127.681ZM147.132 137.531H152.332V142.281H147.132V155.081C147.132 156.281 147.332 157.081 147.732 157.481C148.132 157.881 148.932 158.081 150.132 158.081C150.532 158.081 150.915 158.065 151.282 158.031C151.648 157.998 151.998 157.948 152.332 157.881V163.382C151.732 163.482 151.065 163.548 150.332 163.582C149.598 163.615 148.882 163.632 148.182 163.632C147.082 163.632 146.032 163.548 145.032 163.382C144.065 163.248 143.198 162.965 142.432 162.532C141.698 162.098 141.115 161.482 140.682 160.682C140.248 159.882 140.032 158.832 140.032 157.531V142.281H135.732V137.531H140.032V129.781H147.132V137.531ZM155.71 127.681H162.81V141.131H162.96C163.86 139.631 165.01 138.548 166.41 137.881C167.81 137.181 169.176 136.831 170.51 136.831C172.41 136.831 173.96 137.098 175.16 137.631C176.393 138.131 177.36 138.848 178.06 139.781C178.76 140.681 179.243 141.798 179.51 143.131C179.81 144.431 179.96 145.881 179.96 147.481V163.382H172.86V148.781C172.86 146.648 172.526 145.065 171.86 144.031C171.193 142.965 170.01 142.431 168.31 142.431C166.376 142.431 164.976 143.015 164.11 144.182C163.243 145.315 162.81 147.198 162.81 149.831V163.382H155.71V127.681ZM192.648 133.532H185.548V127.681H192.648V133.532ZM185.548 137.531H192.648V163.382H185.548V137.531ZM215.839 146.631C215.372 143.665 213.622 142.181 210.589 142.181C209.456 142.181 208.506 142.448 207.739 142.981C206.972 143.481 206.339 144.148 205.839 144.981C205.372 145.781 205.039 146.681 204.839 147.681C204.639 148.648 204.539 149.615 204.539 150.581C204.539 151.515 204.639 152.465 204.839 153.431C205.039 154.398 205.356 155.281 205.789 156.081C206.256 156.848 206.872 157.482 207.639 157.982C208.406 158.482 209.339 158.732 210.439 158.732C212.139 158.732 213.439 158.265 214.339 157.331C215.272 156.365 215.856 155.081 216.089 153.481H222.939C222.472 156.915 221.139 159.532 218.939 161.332C216.739 163.132 213.922 164.032 210.489 164.032C208.556 164.032 206.772 163.715 205.139 163.082C203.539 162.415 202.172 161.498 201.039 160.332C199.906 159.165 199.022 157.782 198.389 156.181C197.756 154.548 197.439 152.765 197.439 150.831C197.439 148.831 197.722 146.981 198.289 145.281C198.889 143.548 199.756 142.065 200.889 140.831C202.022 139.565 203.406 138.581 205.039 137.881C206.672 137.181 208.539 136.831 210.639 136.831C212.172 136.831 213.639 137.031 215.039 137.431C216.472 137.831 217.739 138.448 218.839 139.281C219.972 140.081 220.889 141.098 221.589 142.331C222.289 143.531 222.689 144.965 222.789 146.631H215.839ZM226.65 145.481C226.75 143.815 227.167 142.431 227.9 141.331C228.633 140.231 229.567 139.348 230.7 138.681C231.833 138.015 233.1 137.548 234.5 137.281C235.933 136.981 237.367 136.831 238.8 136.831C240.1 136.831 241.417 136.931 242.75 137.131C244.083 137.298 245.3 137.648 246.4 138.181C247.5 138.715 248.4 139.465 249.1 140.431C249.8 141.365 250.15 142.615 250.15 144.182V157.632C250.15 158.798 250.217 159.915 250.35 160.982C250.483 162.048 250.717 162.848 251.05 163.382H243.85C243.717 162.982 243.6 162.582 243.5 162.182C243.433 161.748 243.383 161.315 243.35 160.882C242.217 162.048 240.883 162.865 239.35 163.332C237.817 163.798 236.25 164.032 234.65 164.032C233.417 164.032 232.267 163.882 231.2 163.582C230.133 163.282 229.2 162.815 228.4 162.182C227.6 161.548 226.967 160.748 226.5 159.782C226.067 158.815 225.85 157.665 225.85 156.332C225.85 154.865 226.1 153.665 226.6 152.731C227.133 151.765 227.8 150.998 228.6 150.432C229.433 149.865 230.367 149.448 231.4 149.181C232.467 148.881 233.533 148.648 234.6 148.481C235.667 148.315 236.717 148.181 237.75 148.081C238.783 147.981 239.7 147.831 240.5 147.631C241.3 147.431 241.933 147.148 242.4 146.781C242.867 146.381 243.083 145.815 243.05 145.081C243.05 144.315 242.917 143.715 242.65 143.281C242.417 142.815 242.083 142.465 241.65 142.231C241.25 141.965 240.767 141.798 240.2 141.731C239.667 141.631 239.083 141.581 238.45 141.581C237.05 141.581 235.95 141.881 235.15 142.481C234.35 143.081 233.883 144.081 233.75 145.481H226.65ZM243.05 150.731C242.75 150.998 242.367 151.215 241.9 151.381C241.467 151.515 240.983 151.631 240.45 151.731C239.95 151.831 239.417 151.915 238.85 151.981C238.283 152.048 237.717 152.131 237.15 152.231C236.617 152.331 236.083 152.465 235.55 152.632C235.05 152.798 234.6 153.031 234.2 153.331C233.833 153.598 233.533 153.948 233.3 154.381C233.067 154.815 232.95 155.365 232.95 156.032C232.95 156.665 233.067 157.198 233.3 157.632C233.533 158.065 233.85 158.415 234.25 158.682C234.65 158.915 235.117 159.081 235.65 159.181C236.183 159.282 236.733 159.332 237.3 159.332C238.7 159.332 239.783 159.098 240.55 158.631C241.317 158.165 241.883 157.615 242.25 156.981C242.617 156.315 242.833 155.648 242.9 154.981C243 154.315 243.05 153.781 243.05 153.382V150.731ZM255.861 127.681H262.961V163.382H255.861V127.681Z" fill="white"/>
    <path d="M8.95313 185.822H12.3531V207.922C12.3531 209.989 12.5865 211.756 13.0531 213.222C13.5198 214.656 14.2031 215.839 15.1031 216.772C16.0031 217.672 17.1031 218.339 18.4031 218.772C19.7031 219.172 21.1698 219.372 22.8031 219.372C24.4698 219.372 25.9531 219.172 27.2531 218.772C28.5531 218.339 29.6531 217.672 30.5531 216.772C31.4531 215.839 32.1365 214.656 32.6031 213.222C33.0698 211.756 33.3031 209.989 33.3031 207.922V185.822H36.7031V208.672C36.7031 210.506 36.4365 212.256 35.9031 213.922C35.4031 215.556 34.5865 216.989 33.4531 218.222C32.3531 219.456 30.9198 220.439 29.1531 221.172C27.4198 221.872 25.3031 222.222 22.8031 222.222C20.3365 222.222 18.2198 221.872 16.4531 221.172C14.7198 220.439 13.2865 219.456 12.1531 218.222C11.0531 216.989 10.2365 215.556 9.70313 213.922C9.20313 212.256 8.95313 210.506 8.95313 208.672V185.822ZM42.8816 195.722H46.0316V200.172H46.1316C46.7316 198.606 47.7983 197.356 49.3316 196.422C50.865 195.456 52.5483 194.972 54.3816 194.972C56.1816 194.972 57.6816 195.206 58.8816 195.672C60.115 196.139 61.0983 196.806 61.8316 197.672C62.565 198.506 63.0816 199.539 63.3816 200.772C63.6816 202.006 63.8316 203.389 63.8316 204.922V221.522H60.6816V205.422C60.6816 204.322 60.5816 203.306 60.3816 202.372C60.1816 201.406 59.8316 200.572 59.3316 199.872C58.8316 199.172 58.1483 198.622 57.2816 198.222C56.4483 197.822 55.3983 197.622 54.1316 197.622C52.865 197.622 51.7316 197.856 50.7316 198.322C49.765 198.756 48.9316 199.372 48.2316 200.172C47.565 200.939 47.0316 201.872 46.6316 202.972C46.265 204.039 46.065 205.206 46.0316 206.472V221.522H42.8816V195.722ZM92.4871 221.522H89.5871V216.622H89.4871C89.1538 217.456 88.6538 218.222 87.9871 218.922C87.3538 219.622 86.6204 220.222 85.7871 220.722C84.9538 221.189 84.0538 221.556 83.0871 221.822C82.1538 222.089 81.2204 222.222 80.2871 222.222C78.3204 222.222 76.6038 221.872 75.1371 221.172C73.7038 220.439 72.5038 219.456 71.5371 218.222C70.5704 216.956 69.8538 215.506 69.3871 213.872C68.9204 212.206 68.6871 210.456 68.6871 208.622C68.6871 206.789 68.9204 205.056 69.3871 203.422C69.8538 201.756 70.5704 200.306 71.5371 199.072C72.5038 197.806 73.7038 196.806 75.1371 196.072C76.6038 195.339 78.3204 194.972 80.2871 194.972C81.2538 194.972 82.1871 195.089 83.0871 195.322C84.0204 195.556 84.8871 195.922 85.6871 196.422C86.4871 196.889 87.1871 197.472 87.7871 198.172C88.4204 198.872 88.9038 199.689 89.2371 200.622H89.3371V185.822H92.4871V221.522ZM71.8371 208.622C71.8371 209.956 71.9871 211.289 72.2871 212.622C72.6204 213.922 73.1204 215.089 73.7871 216.122C74.4871 217.156 75.3704 218.006 76.4371 218.672C77.5038 219.306 78.7871 219.622 80.2871 219.622C81.9538 219.622 83.3538 219.306 84.4871 218.672C85.6538 218.006 86.5871 217.156 87.2871 216.122C88.0204 215.089 88.5371 213.922 88.8371 212.622C89.1704 211.289 89.3371 209.956 89.3371 208.622C89.3371 207.289 89.1704 205.972 88.8371 204.672C88.5371 203.339 88.0204 202.156 87.2871 201.122C86.5871 200.089 85.6538 199.256 84.4871 198.622C83.3538 197.956 81.9538 197.622 80.2871 197.622C78.7871 197.622 77.5038 197.956 76.4371 198.622C75.3704 199.256 74.4871 200.089 73.7871 201.122C73.1204 202.156 72.6204 203.339 72.2871 204.672C71.9871 205.972 71.8371 207.289 71.8371 208.622ZM117.048 206.822C117.015 205.622 116.798 204.472 116.398 203.372C116.031 202.272 115.498 201.306 114.798 200.472C114.098 199.606 113.248 198.922 112.248 198.422C111.248 197.889 110.115 197.622 108.848 197.622C107.548 197.622 106.398 197.889 105.398 198.422C104.398 198.922 103.548 199.606 102.848 200.472C102.148 201.306 101.581 202.289 101.148 203.422C100.748 204.522 100.481 205.656 100.348 206.822H117.048ZM100.348 209.472C100.348 210.606 100.498 211.789 100.798 213.022C101.131 214.222 101.648 215.306 102.348 216.272C103.048 217.239 103.931 218.039 104.998 218.672C106.065 219.306 107.348 219.622 108.848 219.622C111.148 219.622 112.948 219.022 114.248 217.822C115.548 216.622 116.448 215.022 116.948 213.022H120.098C119.431 215.956 118.198 218.222 116.398 219.822C114.631 221.422 112.115 222.222 108.848 222.222C106.815 222.222 105.048 221.872 103.548 221.172C102.081 220.439 100.881 219.456 99.948 218.222C99.0147 216.956 98.3147 215.506 97.848 213.872C97.4147 212.206 97.198 210.456 97.198 208.622C97.198 206.922 97.4147 205.256 97.848 203.622C98.3147 201.989 99.0147 200.539 99.948 199.272C100.881 197.972 102.081 196.939 103.548 196.172C105.048 195.372 106.815 194.972 108.848 194.972C110.915 194.972 112.681 195.389 114.148 196.222C115.615 197.056 116.798 198.156 117.698 199.522C118.631 200.856 119.298 202.406 119.698 204.172C120.098 205.906 120.265 207.672 120.198 209.472H100.348ZM124.426 195.722H127.326V201.772H127.426C128.226 199.672 129.459 198.056 131.126 196.922C132.826 195.789 134.842 195.272 137.176 195.372V198.522C135.742 198.456 134.442 198.656 133.276 199.122C132.109 199.556 131.092 200.189 130.226 201.022C129.392 201.856 128.742 202.856 128.276 204.022C127.809 205.156 127.576 206.406 127.576 207.772V221.522H124.426V195.722ZM137.597 195.722H140.947L147.547 217.822H147.647L153.947 195.722H157.497L163.797 217.822H163.897L170.497 195.722H173.847L165.547 221.522H162.097L155.747 199.822H155.647L149.347 221.522H145.897L137.597 195.722ZM177.258 195.722H180.158V201.772H180.258C181.058 199.672 182.291 198.056 183.958 196.922C185.658 195.789 187.674 195.272 190.008 195.372V198.522C188.574 198.456 187.274 198.656 186.108 199.122C184.941 199.556 183.924 200.189 183.058 201.022C182.224 201.856 181.574 202.856 181.108 204.022C180.641 205.156 180.408 206.406 180.408 207.772V221.522H177.258V195.722ZM193.079 185.822H196.229V190.872H193.079V185.822ZM193.079 195.722H196.229V221.522H193.079V195.722ZM207.258 195.722H212.508V198.372H207.258V215.772C207.258 216.806 207.391 217.622 207.658 218.222C207.958 218.789 208.674 219.106 209.808 219.172C210.708 219.172 211.608 219.122 212.508 219.022V221.672C212.041 221.672 211.574 221.689 211.108 221.722C210.641 221.756 210.174 221.772 209.708 221.772C207.608 221.772 206.141 221.372 205.308 220.572C204.474 219.739 204.074 218.222 204.108 216.022V198.372H199.608V195.722H204.108V187.972H207.258V195.722ZM235.603 206.822C235.569 205.622 235.353 204.472 234.953 203.372C234.586 202.272 234.053 201.306 233.353 200.472C232.653 199.606 231.803 198.922 230.803 198.422C229.803 197.889 228.669 197.622 227.403 197.622C226.103 197.622 224.953 197.889 223.953 198.422C222.953 198.922 222.103 199.606 221.403 200.472C220.703 201.306 220.136 202.289 219.703 203.422C219.303 204.522 219.036 205.656 218.903 206.822H235.603ZM218.903 209.472C218.903 210.606 219.053 211.789 219.353 213.022C219.686 214.222 220.203 215.306 220.903 216.272C221.603 217.239 222.486 218.039 223.553 218.672C224.619 219.306 225.903 219.622 227.403 219.622C229.703 219.622 231.503 219.022 232.803 217.822C234.103 216.622 235.003 215.022 235.503 213.022H238.653C237.986 215.956 236.753 218.222 234.953 219.822C233.186 221.422 230.669 222.222 227.403 222.222C225.369 222.222 223.603 221.872 222.103 221.172C220.636 220.439 219.436 219.456 218.503 218.222C217.569 216.956 216.869 215.506 216.403 213.872C215.969 212.206 215.753 210.456 215.753 208.622C215.753 206.922 215.969 205.256 216.403 203.622C216.869 201.989 217.569 200.539 218.503 199.272C219.436 197.972 220.636 196.939 222.103 196.172C223.603 195.372 225.369 194.972 227.403 194.972C229.469 194.972 231.236 195.389 232.703 196.222C234.169 197.056 235.353 198.156 236.253 199.522C237.186 200.856 237.853 202.406 238.253 204.172C238.653 205.906 238.819 207.672 238.753 209.472H218.903ZM242.98 195.722H245.88V201.772H245.98C246.78 199.672 248.014 198.056 249.68 196.922C251.38 195.789 253.397 195.272 255.73 195.372V198.522C254.297 198.456 252.997 198.656 251.83 199.122C250.664 199.556 249.647 200.189 248.78 201.022C247.947 201.856 247.297 202.856 246.83 204.022C246.364 205.156 246.13 206.406 246.13 207.772V221.522H242.98V195.722Z" fill="white"/>
    <path d="M37.5525 252.72C37.2525 251.353 36.7525 250.137 36.0525 249.07C35.3859 247.97 34.5525 247.053 33.5525 246.32C32.5859 245.587 31.5025 245.037 30.3025 244.67C29.1359 244.27 27.9025 244.07 26.6025 244.07C24.2359 244.07 22.2025 244.52 20.5025 245.42C18.8025 246.32 17.4025 247.52 16.3025 249.02C15.2359 250.487 14.4359 252.153 13.9025 254.02C13.4025 255.887 13.1525 257.803 13.1525 259.77C13.1525 261.703 13.4025 263.62 13.9025 265.52C14.4359 267.387 15.2359 269.07 16.3025 270.57C17.4025 272.037 18.8025 273.22 20.5025 274.12C22.2025 275.02 24.2359 275.47 26.6025 275.47C28.2692 275.47 29.7692 275.17 31.1025 274.57C32.4359 273.97 33.5859 273.153 34.5525 272.12C35.5192 271.087 36.3025 269.887 36.9025 268.52C37.5025 267.12 37.8859 265.62 38.0525 264.02H41.4525C41.2192 266.22 40.7025 268.203 39.9025 269.97C39.1025 271.737 38.0692 273.237 36.8025 274.47C35.5359 275.703 34.0359 276.653 32.3025 277.32C30.6025 277.987 28.7025 278.32 26.6025 278.32C23.8025 278.32 21.3359 277.82 19.2025 276.82C17.1025 275.787 15.3525 274.42 13.9525 272.72C12.5525 271.02 11.5025 269.053 10.8025 266.82C10.1025 264.587 9.75254 262.237 9.75254 259.77C9.75254 257.303 10.1025 254.953 10.8025 252.72C11.5025 250.487 12.5525 248.52 13.9525 246.82C15.3525 245.087 17.1025 243.72 19.2025 242.72C21.3359 241.687 23.8025 241.17 26.6025 241.17C28.3025 241.17 29.9525 241.42 31.5525 241.92C33.1859 242.42 34.6525 243.17 35.9525 244.17C37.2859 245.137 38.3859 246.337 39.2525 247.77C40.1525 249.203 40.7192 250.853 40.9525 252.72H37.5525ZM56.9576 253.72C55.4576 253.72 54.141 254.037 53.0076 254.67C51.8743 255.303 50.9243 256.137 50.1576 257.17C49.4243 258.203 48.8576 259.387 48.4576 260.72C48.091 262.02 47.9076 263.353 47.9076 264.72C47.9076 266.087 48.091 267.437 48.4576 268.77C48.8576 270.07 49.4243 271.237 50.1576 272.27C50.9243 273.303 51.8743 274.137 53.0076 274.77C54.141 275.403 55.4576 275.72 56.9576 275.72C58.4576 275.72 59.7743 275.403 60.9076 274.77C62.041 274.137 62.9743 273.303 63.7076 272.27C64.4743 271.237 65.041 270.07 65.4076 268.77C65.8076 267.437 66.0076 266.087 66.0076 264.72C66.0076 263.353 65.8076 262.02 65.4076 260.72C65.041 259.387 64.4743 258.203 63.7076 257.17C62.9743 256.137 62.041 255.303 60.9076 254.67C59.7743 254.037 58.4576 253.72 56.9576 253.72ZM56.9576 251.07C58.9243 251.07 60.6576 251.437 62.1576 252.17C63.691 252.903 64.9743 253.887 66.0076 255.12C67.041 256.353 67.8243 257.803 68.3576 259.47C68.891 261.103 69.1576 262.853 69.1576 264.72C69.1576 266.587 68.891 268.353 68.3576 270.02C67.8243 271.653 67.041 273.087 66.0076 274.32C64.9743 275.553 63.691 276.537 62.1576 277.27C60.6576 277.97 58.9243 278.32 56.9576 278.32C54.991 278.32 53.241 277.97 51.7076 277.27C50.2076 276.537 48.941 275.553 47.9076 274.32C46.8743 273.087 46.091 271.653 45.5576 270.02C45.0243 268.353 44.7576 266.587 44.7576 264.72C44.7576 262.853 45.0243 261.103 45.5576 259.47C46.091 257.803 46.8743 256.353 47.9076 255.12C48.941 253.887 50.2076 252.903 51.7076 252.17C53.241 251.437 54.991 251.07 56.9576 251.07ZM73.8408 251.82H76.7408V256.17H76.8908C77.7242 254.57 78.8075 253.32 80.1408 252.42C81.5075 251.52 83.2408 251.07 85.3408 251.07C87.0408 251.07 88.5742 251.487 89.9408 252.32C91.3408 253.153 92.2742 254.42 92.7408 256.12C93.5075 254.42 94.6408 253.153 96.1408 252.32C97.6408 251.487 99.2408 251.07 100.941 251.07C106.641 251.07 109.491 254.087 109.491 260.12V277.62H106.341V260.27C106.341 258.137 105.891 256.52 104.991 255.42C104.091 254.287 102.507 253.72 100.241 253.72C98.8742 253.72 97.7408 253.987 96.8408 254.52C95.9408 255.02 95.2242 255.703 94.6908 256.57C94.1575 257.437 93.7742 258.437 93.5408 259.57C93.3408 260.67 93.2408 261.82 93.2408 263.02V277.62H90.0908V260.12C90.0908 259.253 89.9908 258.437 89.7908 257.67C89.6242 256.87 89.3242 256.187 88.8908 255.62C88.4908 255.02 87.9408 254.553 87.2408 254.22C86.5408 253.887 85.6908 253.72 84.6908 253.72C83.3575 253.72 82.1908 253.97 81.1908 254.47C80.2242 254.937 79.4242 255.603 78.7908 256.47C78.1908 257.303 77.7408 258.303 77.4408 259.47C77.1408 260.603 76.9908 261.853 76.9908 263.22V277.62H73.8408V251.82ZM115.491 251.82H118.391V256.17H118.541C119.375 254.57 120.458 253.32 121.791 252.42C123.158 251.52 124.891 251.07 126.991 251.07C128.691 251.07 130.225 251.487 131.591 252.32C132.991 253.153 133.925 254.42 134.391 256.12C135.158 254.42 136.291 253.153 137.791 252.32C139.291 251.487 140.891 251.07 142.591 251.07C148.291 251.07 151.141 254.087 151.141 260.12V277.62H147.991V260.27C147.991 258.137 147.541 256.52 146.641 255.42C145.741 254.287 144.158 253.72 141.891 253.72C140.525 253.72 139.391 253.987 138.491 254.52C137.591 255.02 136.875 255.703 136.341 256.57C135.808 257.437 135.425 258.437 135.191 259.57C134.991 260.67 134.891 261.82 134.891 263.02V277.62H131.741V260.12C131.741 259.253 131.641 258.437 131.441 257.67C131.275 256.87 130.975 256.187 130.541 255.62C130.141 255.02 129.591 254.553 128.891 254.22C128.191 253.887 127.341 253.72 126.341 253.72C125.008 253.72 123.841 253.97 122.841 254.47C121.875 254.937 121.075 255.603 120.441 256.47C119.841 257.303 119.391 258.303 119.091 259.47C118.791 260.603 118.641 261.853 118.641 263.22V277.62H115.491V251.82ZM178.042 277.62H175.142V272.97H175.042C174.208 274.703 172.992 276.037 171.392 276.97C169.825 277.87 168.075 278.32 166.142 278.32C164.508 278.32 163.108 278.087 161.942 277.62C160.808 277.187 159.875 276.553 159.142 275.72C158.442 274.887 157.925 273.87 157.592 272.67C157.258 271.47 157.092 270.103 157.092 268.57V251.82H160.242V268.62C160.308 270.953 160.842 272.72 161.842 273.92C162.875 275.12 164.642 275.72 167.142 275.72C168.508 275.72 169.675 275.437 170.642 274.87C171.608 274.27 172.408 273.487 173.042 272.52C173.675 271.553 174.142 270.453 174.442 269.22C174.742 267.953 174.892 266.67 174.892 265.37V251.82H178.042V277.62ZM183.947 251.82H187.097V256.27H187.197C187.797 254.703 188.864 253.453 190.397 252.52C191.93 251.553 193.614 251.07 195.447 251.07C197.247 251.07 198.747 251.303 199.947 251.77C201.18 252.237 202.164 252.903 202.897 253.77C203.63 254.603 204.147 255.637 204.447 256.87C204.747 258.103 204.897 259.487 204.897 261.02V277.62H201.747V261.52C201.747 260.42 201.647 259.403 201.447 258.47C201.247 257.503 200.897 256.67 200.397 255.97C199.897 255.27 199.214 254.72 198.347 254.32C197.514 253.92 196.464 253.72 195.197 253.72C193.93 253.72 192.797 253.953 191.797 254.42C190.83 254.853 189.997 255.47 189.297 256.27C188.63 257.037 188.097 257.97 187.697 259.07C187.33 260.137 187.13 261.303 187.097 262.57V277.62H183.947V251.82ZM210.903 241.92H214.053V246.97H210.903V241.92ZM210.903 251.82H214.053V277.62H210.903V251.82ZM225.081 251.82H230.331V254.47H225.081V271.87C225.081 272.903 225.214 273.72 225.481 274.32C225.781 274.887 226.498 275.203 227.631 275.27C228.531 275.27 229.431 275.22 230.331 275.12V277.77C229.864 277.77 229.398 277.787 228.931 277.82C228.464 277.853 227.998 277.87 227.531 277.87C225.431 277.87 223.964 277.47 223.131 276.67C222.298 275.837 221.898 274.32 221.931 272.12V254.47H217.431V251.82H221.931V244.07H225.081V251.82ZM231.976 251.82H235.326L243.826 273.82L251.776 251.82H254.926L243.726 281.52C243.259 282.62 242.826 283.52 242.426 284.22C242.026 284.953 241.576 285.52 241.076 285.92C240.609 286.353 240.043 286.653 239.376 286.82C238.743 287.02 237.926 287.12 236.926 287.12C236.293 287.087 235.793 287.053 235.426 287.02C235.093 287.02 234.793 286.97 234.526 286.87V284.22C234.893 284.287 235.243 284.337 235.576 284.37C235.943 284.437 236.309 284.47 236.676 284.47C237.376 284.47 237.943 284.37 238.376 284.17C238.843 283.97 239.243 283.687 239.576 283.32C239.909 282.987 240.193 282.57 240.426 282.07C240.659 281.57 240.909 281.02 241.176 280.42L242.276 277.52L231.976 251.82Z" fill="white"/>
</svg>
