<svg width="313" height="288" viewBox="0 0 313 288" fill="none" xmlns="http://www.w3.org/2000/svg">
<path d="M25.0766 13.4323H49.7266V16.3323H28.4766V29.2323H48.3766V32.1323H28.4766V46.2323H49.9766V49.1323H25.0766V13.4323ZM54.1152 23.3323H57.0152V27.6823H57.1652C57.9986 26.0823 59.0819 24.8323 60.4152 23.9323C61.7819 23.0323 63.5152 22.5823 65.6152 22.5823C67.3152 22.5823 68.8486 22.999 70.2152 23.8323C71.6152 24.6656 72.5486 25.9323 73.0152 27.6323C73.7819 25.9323 74.9152 24.6656 76.4152 23.8323C77.9152 22.999 79.5152 22.5823 81.2152 22.5823C86.9152 22.5823 89.7652 25.599 89.7652 31.6323V49.1323H86.6152V31.7823C86.6152 29.649 86.1652 28.0323 85.2652 26.9323C84.3652 25.799 82.7819 25.2323 80.5152 25.2323C79.1486 25.2323 78.0152 25.499 77.1152 26.0323C76.2152 26.5323 75.4986 27.2156 74.9652 28.0823C74.4319 28.949 74.0486 29.949 73.8152 31.0823C73.6152 32.1823 73.5152 33.3323 73.5152 34.5323V49.1323H70.3652V31.6323C70.3652 30.7656 70.2652 29.949 70.0652 29.1823C69.8986 28.3823 69.5986 27.699 69.1652 27.1323C68.7652 26.5323 68.2152 26.0656 67.5152 25.7323C66.8152 25.399 65.9652 25.2323 64.9652 25.2323C63.6319 25.2323 62.4652 25.4823 61.4652 25.9823C60.4986 26.449 59.6986 27.1156 59.0652 27.9823C58.4652 28.8156 58.0152 29.8156 57.7152 30.9823C57.4152 32.1156 57.2652 33.3656 57.2652 34.7323V49.1323H54.1152V23.3323ZM95.7656 23.3323H98.6656V28.2323H98.7656C99.499 26.4323 100.682 25.049 102.316 24.0823C103.982 23.0823 105.866 22.5823 107.966 22.5823C109.932 22.5823 111.632 22.949 113.066 23.6823C114.532 24.4156 115.749 25.4156 116.716 26.6823C117.682 27.9156 118.399 29.3656 118.866 31.0323C119.332 32.6656 119.566 34.399 119.566 36.2323C119.566 38.0656 119.332 39.8156 118.866 41.4823C118.399 43.1156 117.682 44.5656 116.716 45.8323C115.749 47.0656 114.532 48.049 113.066 48.7823C111.632 49.4823 109.932 49.8323 107.966 49.8323C107.032 49.8323 106.099 49.7156 105.166 49.4823C104.232 49.249 103.366 48.899 102.566 48.4323C101.766 47.9656 101.049 47.3823 100.416 46.6823C99.8156 45.9823 99.349 45.1656 99.0156 44.2323H98.9156V58.6323H95.7656V23.3323ZM116.416 36.2323C116.416 34.899 116.249 33.5823 115.916 32.2823C115.616 30.949 115.116 29.7656 114.416 28.7323C113.749 27.699 112.882 26.8656 111.816 26.2323C110.749 25.5656 109.466 25.2323 107.966 25.2323C106.232 25.2323 104.782 25.5323 103.616 26.1323C102.449 26.7323 101.516 27.5323 100.816 28.5323C100.116 29.5323 99.6156 30.699 99.3156 32.0323C99.049 33.3656 98.9156 34.7656 98.9156 36.2323C98.9156 37.5656 99.0656 38.899 99.3656 40.2323C99.699 41.5323 100.216 42.699 100.916 43.7323C101.649 44.7656 102.582 45.6156 103.716 46.2823C104.882 46.9156 106.299 47.2323 107.966 47.2323C109.466 47.2323 110.749 46.9156 111.816 46.2823C112.882 45.6156 113.749 44.7656 114.416 43.7323C115.116 42.699 115.616 41.5323 115.916 40.2323C116.249 38.899 116.416 37.5656 116.416 36.2323ZM135.377 25.2323C133.877 25.2323 132.56 25.549 131.427 26.1823C130.293 26.8156 129.343 27.649 128.577 28.6823C127.843 29.7156 127.277 30.899 126.877 32.2323C126.51 33.5323 126.327 34.8656 126.327 36.2323C126.327 37.599 126.51 38.949 126.877 40.2823C127.277 41.5823 127.843 42.749 128.577 43.7823C129.343 44.8156 130.293 45.649 131.427 46.2823C132.56 46.9156 133.877 47.2323 135.377 47.2323C136.877 47.2323 138.193 46.9156 139.327 46.2823C140.46 45.649 141.393 44.8156 142.127 43.7823C142.893 42.749 143.46 41.5823 143.827 40.2823C144.227 38.949 144.427 37.599 144.427 36.2323C144.427 34.8656 144.227 33.5323 143.827 32.2323C143.46 30.899 142.893 29.7156 142.127 28.6823C141.393 27.649 140.46 26.8156 139.327 26.1823C138.193 25.549 136.877 25.2323 135.377 25.2323ZM135.377 22.5823C137.343 22.5823 139.077 22.949 140.577 23.6823C142.11 24.4156 143.393 25.399 144.427 26.6323C145.46 27.8656 146.243 29.3156 146.777 30.9823C147.31 32.6156 147.577 34.3656 147.577 36.2323C147.577 38.099 147.31 39.8656 146.777 41.5323C146.243 43.1656 145.46 44.599 144.427 45.8323C143.393 47.0656 142.11 48.049 140.577 48.7823C139.077 49.4823 137.343 49.8323 135.377 49.8323C133.41 49.8323 131.66 49.4823 130.127 48.7823C128.627 48.049 127.36 47.0656 126.327 45.8323C125.293 44.599 124.51 43.1656 123.977 41.5323C123.443 39.8656 123.177 38.099 123.177 36.2323C123.177 34.3656 123.443 32.6156 123.977 30.9823C124.51 29.3156 125.293 27.8656 126.327 26.6323C127.36 25.399 128.627 24.4156 130.127 23.6823C131.66 22.949 133.41 22.5823 135.377 22.5823ZM149.66 23.3323H153.01L159.61 45.4323H159.71L166.01 23.3323H169.56L175.86 45.4323H175.96L182.56 23.3323H185.91L177.61 49.1323H174.16L167.81 27.4323H167.71L161.41 49.1323H157.96L149.66 23.3323ZM207.87 34.4323C207.837 33.2323 207.62 32.0823 207.22 30.9823C206.854 29.8823 206.32 28.9156 205.62 28.0823C204.92 27.2156 204.07 26.5323 203.07 26.0323C202.07 25.499 200.937 25.2323 199.67 25.2323C198.37 25.2323 197.22 25.499 196.22 26.0323C195.22 26.5323 194.37 27.2156 193.67 28.0823C192.97 28.9156 192.404 29.899 191.97 31.0323C191.57 32.1323 191.304 33.2656 191.17 34.4323H207.87ZM191.17 37.0823C191.17 38.2156 191.32 39.399 191.62 40.6323C191.954 41.8323 192.47 42.9156 193.17 43.8823C193.87 44.849 194.754 45.649 195.82 46.2823C196.887 46.9156 198.17 47.2323 199.67 47.2323C201.97 47.2323 203.77 46.6323 205.07 45.4323C206.37 44.2323 207.27 42.6323 207.77 40.6323H210.92C210.254 43.5656 209.02 45.8323 207.22 47.4323C205.454 49.0323 202.937 49.8323 199.67 49.8323C197.637 49.8323 195.87 49.4823 194.37 48.7823C192.904 48.049 191.704 47.0656 190.77 45.8323C189.837 44.5656 189.137 43.1156 188.67 41.4823C188.237 39.8156 188.02 38.0656 188.02 36.2323C188.02 34.5323 188.237 32.8656 188.67 31.2323C189.137 29.599 189.837 28.149 190.77 26.8823C191.704 25.5823 192.904 24.549 194.37 23.7823C195.87 22.9823 197.637 22.5823 199.67 22.5823C201.737 22.5823 203.504 22.999 204.97 23.8323C206.437 24.6656 207.62 25.7656 208.52 27.1323C209.454 28.4656 210.12 30.0156 210.52 31.7823C210.92 33.5156 211.087 35.2823 211.02 37.0823H191.17ZM215.248 23.3323H218.148V29.3823H218.248C219.048 27.2823 220.281 25.6656 221.948 24.5323C223.648 23.399 225.665 22.8823 227.998 22.9823V26.1323C226.565 26.0656 225.265 26.2656 224.098 26.7323C222.931 27.1656 221.915 27.799 221.048 28.6323C220.215 29.4656 219.565 30.4656 219.098 31.6323C218.631 32.7656 218.398 34.0156 218.398 35.3823V49.1323H215.248V23.3323ZM231.07 13.4323H234.22V18.4823H231.07V13.4323ZM231.07 23.3323H234.22V49.1323H231.07V23.3323ZM240.198 23.3323H243.348V27.7823H243.448C244.048 26.2156 245.115 24.9656 246.648 24.0323C248.181 23.0656 249.865 22.5823 251.698 22.5823C253.498 22.5823 254.998 22.8156 256.198 23.2823C257.431 23.749 258.415 24.4156 259.148 25.2823C259.881 26.1156 260.398 27.149 260.698 28.3823C260.998 29.6156 261.148 30.999 261.148 32.5323V49.1323H257.998V33.0323C257.998 31.9323 257.898 30.9156 257.698 29.9823C257.498 29.0156 257.148 28.1823 256.648 27.4823C256.148 26.7823 255.465 26.2323 254.598 25.8323C253.765 25.4323 252.715 25.2323 251.448 25.2323C250.181 25.2323 249.048 25.4656 248.048 25.9323C247.081 26.3656 246.248 26.9823 245.548 27.7823C244.881 28.549 244.348 29.4823 243.948 30.5823C243.581 31.649 243.381 32.8156 243.348 34.0823V49.1323H240.198V23.3323ZM288.904 47.0323C288.904 48.9323 288.687 50.649 288.254 52.1823C287.854 53.7156 287.204 55.0156 286.304 56.0823C285.404 57.149 284.22 57.9656 282.754 58.5323C281.32 59.099 279.554 59.3823 277.454 59.3823C276.154 59.3823 274.887 59.2323 273.654 58.9323C272.42 58.6323 271.304 58.1656 270.304 57.5323C269.337 56.899 268.52 56.0823 267.854 55.0823C267.22 54.1156 266.854 52.949 266.754 51.5823H269.904C270.07 52.549 270.387 53.349 270.854 53.9823C271.354 54.649 271.937 55.1823 272.604 55.5823C273.304 55.9823 274.07 56.2656 274.904 56.4323C275.737 56.6323 276.587 56.7323 277.454 56.7323C280.387 56.7323 282.504 55.899 283.804 54.2323C285.104 52.5656 285.754 50.1656 285.754 47.0323V43.5323H285.654C284.92 45.1323 283.837 46.4156 282.404 47.3823C281.004 48.349 279.354 48.8323 277.454 48.8323C275.387 48.8323 273.62 48.499 272.154 47.8323C270.687 47.1323 269.47 46.1823 268.504 44.9823C267.57 43.7823 266.887 42.3823 266.454 40.7823C266.02 39.149 265.804 37.4156 265.804 35.5823C265.804 33.8156 266.054 32.149 266.554 30.5823C267.087 28.9823 267.837 27.599 268.804 26.4323C269.804 25.2323 271.02 24.299 272.454 23.6323C273.92 22.9323 275.587 22.5823 277.454 22.5823C278.42 22.5823 279.32 22.7156 280.154 22.9823C281.02 23.249 281.804 23.6323 282.504 24.1323C283.204 24.599 283.82 25.149 284.354 25.7823C284.92 26.4156 285.354 27.0823 285.654 27.7823H285.754V23.3323H288.904V47.0323ZM277.454 46.1823C278.82 46.1823 280.02 45.899 281.054 45.3323C282.087 44.7323 282.954 43.9656 283.654 43.0323C284.354 42.0656 284.87 40.9656 285.204 39.7323C285.57 38.499 285.754 37.2323 285.754 35.9323C285.754 34.6656 285.604 33.399 285.304 32.1323C285.004 30.8656 284.52 29.7156 283.854 28.6823C283.187 27.649 282.32 26.8156 281.254 26.1823C280.22 25.549 278.954 25.2323 277.454 25.2323C275.954 25.2323 274.67 25.549 273.604 26.1823C272.537 26.7823 271.654 27.5823 270.954 28.5823C270.254 29.5823 269.737 30.7323 269.404 32.0323C269.104 33.299 268.954 34.599 268.954 35.9323C268.954 37.2323 269.12 38.499 269.454 39.7323C269.787 40.9656 270.304 42.0656 271.004 43.0323C271.704 43.9656 272.587 44.7323 273.654 45.3323C274.72 45.899 275.987 46.1823 277.454 46.1823Z" fill="white"/>
<path d="M115.504 71.8146H123.354V100.915H140.754V107.515H115.504V71.8146ZM151.692 77.6646H144.592V71.8146H151.692V77.6646ZM144.592 81.6646H151.692V107.515H144.592V81.6646ZM158.833 86.4146H154.583V81.6646H158.833V79.6646C158.833 77.3646 159.55 75.4813 160.983 74.0146C162.416 72.5479 164.583 71.8146 167.483 71.8146C168.116 71.8146 168.75 71.8479 169.383 71.9146C170.016 71.9479 170.633 71.9813 171.233 72.0146V77.3146C170.4 77.2146 169.533 77.1646 168.633 77.1646C167.666 77.1646 166.966 77.3979 166.533 77.8646C166.133 78.2979 165.933 79.0479 165.933 80.1146V81.6646H170.833V86.4146H165.933V107.515H158.833V86.4146ZM191.333 91.8146C191 90.0146 190.4 88.6479 189.533 87.7146C188.7 86.7813 187.417 86.3146 185.683 86.3146C184.55 86.3146 183.6 86.5146 182.833 86.9146C182.1 87.2813 181.5 87.7479 181.033 88.3146C180.6 88.8813 180.283 89.4813 180.083 90.1146C179.917 90.7479 179.817 91.3146 179.783 91.8146H191.333ZM179.783 96.3146C179.883 98.6146 180.467 100.281 181.533 101.315C182.6 102.348 184.133 102.865 186.133 102.865C187.567 102.865 188.8 102.515 189.833 101.815C190.867 101.081 191.5 100.315 191.733 99.5146H197.983C196.983 102.615 195.45 104.831 193.383 106.165C191.317 107.498 188.817 108.165 185.883 108.165C183.85 108.165 182.017 107.848 180.383 107.215C178.75 106.548 177.367 105.615 176.233 104.415C175.1 103.215 174.217 101.781 173.583 100.115C172.983 98.4479 172.683 96.6146 172.683 94.6146C172.683 92.6813 173 90.8813 173.633 89.2146C174.267 87.5479 175.167 86.1146 176.333 84.9146C177.5 83.6813 178.883 82.7146 180.483 82.0146C182.117 81.3146 183.917 80.9646 185.883 80.9646C188.083 80.9646 190 81.3979 191.633 82.2646C193.267 83.0979 194.6 84.2313 195.633 85.6646C196.7 87.0979 197.467 88.7313 197.933 90.5646C198.4 92.3979 198.567 94.3146 198.433 96.3146H179.783Z" fill="white"/>
<path d="M34.3018 149.925C34.3018 154.758 32.9518 158.358 30.2518 160.725C27.5518 163.058 23.8184 164.225 19.0518 164.225C14.2184 164.225 10.4684 163.058 7.80176 160.725C5.16842 158.392 3.85176 154.792 3.85176 149.925V127.725H11.7018V149.925C11.7018 150.892 11.7851 151.842 11.9518 152.775C12.1184 153.708 12.4684 154.542 13.0018 155.275C13.5351 155.975 14.2684 156.558 15.2018 157.025C16.1684 157.458 17.4518 157.675 19.0518 157.675C21.8518 157.675 23.7851 157.058 24.8518 155.825C25.9184 154.558 26.4518 152.592 26.4518 149.925V127.725H34.3018V149.925ZM40.3123 137.575H47.0623V141.175H47.2123C48.1123 139.675 49.279 138.592 50.7123 137.925C52.1456 137.225 53.6123 136.875 55.1123 136.875C57.0123 136.875 58.5623 137.142 59.7623 137.675C60.9956 138.175 61.9623 138.892 62.6623 139.825C63.3623 140.725 63.8456 141.842 64.1123 143.175C64.4123 144.475 64.5623 145.925 64.5623 147.525V163.425H57.4623V148.825C57.4623 146.692 57.129 145.108 56.4623 144.075C55.7956 143.008 54.6123 142.475 52.9123 142.475C50.979 142.475 49.579 143.058 48.7123 144.225C47.8456 145.358 47.4123 147.242 47.4123 149.875V163.425H40.3123V137.575ZM88.301 150.425C88.301 149.358 88.201 148.342 88.001 147.375C87.801 146.375 87.451 145.508 86.951 144.775C86.4843 144.008 85.8676 143.392 85.101 142.925C84.3343 142.458 83.3676 142.225 82.201 142.225C81.0343 142.225 80.051 142.458 79.251 142.925C78.451 143.392 77.801 144.008 77.301 144.775C76.8343 145.542 76.4843 146.425 76.251 147.425C76.051 148.392 75.951 149.408 75.951 150.475C75.951 151.475 76.0676 152.475 76.301 153.475C76.5343 154.475 76.901 155.375 77.401 156.175C77.9343 156.942 78.5843 157.575 79.351 158.075C80.151 158.542 81.101 158.775 82.201 158.775C83.3676 158.775 84.3343 158.542 85.101 158.075C85.901 157.608 86.5343 156.992 87.001 156.225C87.4676 155.425 87.801 154.525 88.001 153.525C88.201 152.525 88.301 151.492 88.301 150.425ZM88.401 160.125H88.301C87.4676 161.525 86.3676 162.542 85.001 163.175C83.6676 163.775 82.151 164.075 80.451 164.075C78.5176 164.075 76.8176 163.708 75.351 162.975C73.8843 162.208 72.6676 161.192 71.701 159.925C70.7676 158.625 70.051 157.142 69.551 155.475C69.0843 153.808 68.851 152.075 68.851 150.275C68.851 148.542 69.0843 146.875 69.551 145.275C70.051 143.642 70.7676 142.208 71.701 140.975C72.6676 139.742 73.8676 138.758 75.301 138.025C76.7343 137.258 78.401 136.875 80.301 136.875C81.8343 136.875 83.2843 137.208 84.651 137.875C86.051 138.508 87.151 139.458 87.951 140.725H88.051V127.725H95.151V163.425H88.401V160.125ZM117.917 147.725C117.584 145.925 116.984 144.558 116.117 143.625C115.284 142.692 114.001 142.225 112.267 142.225C111.134 142.225 110.184 142.425 109.417 142.825C108.684 143.192 108.084 143.658 107.617 144.225C107.184 144.792 106.867 145.392 106.667 146.025C106.501 146.658 106.401 147.225 106.367 147.725H117.917ZM106.367 152.225C106.467 154.525 107.051 156.192 108.117 157.225C109.184 158.258 110.717 158.775 112.717 158.775C114.151 158.775 115.384 158.425 116.417 157.725C117.451 156.992 118.084 156.225 118.317 155.425H124.567C123.567 158.525 122.034 160.742 119.967 162.075C117.901 163.408 115.401 164.075 112.467 164.075C110.434 164.075 108.601 163.758 106.967 163.125C105.334 162.458 103.951 161.525 102.817 160.325C101.684 159.125 100.801 157.692 100.167 156.025C99.5674 154.358 99.2674 152.525 99.2674 150.525C99.2674 148.592 99.584 146.792 100.217 145.125C100.851 143.458 101.751 142.025 102.917 140.825C104.084 139.592 105.467 138.625 107.067 137.925C108.701 137.225 110.501 136.875 112.467 136.875C114.667 136.875 116.584 137.308 118.217 138.175C119.851 139.008 121.184 140.142 122.217 141.575C123.284 143.008 124.051 144.642 124.517 146.475C124.984 148.308 125.151 150.225 125.017 152.225H106.367ZM129.228 137.575H135.978V142.375H136.078C136.412 141.575 136.862 140.842 137.428 140.175C137.995 139.475 138.645 138.892 139.378 138.425C140.112 137.925 140.895 137.542 141.728 137.275C142.562 137.008 143.428 136.875 144.328 136.875C144.795 136.875 145.312 136.958 145.878 137.125V143.725C145.545 143.658 145.145 143.608 144.678 143.575C144.212 143.508 143.762 143.475 143.328 143.475C142.028 143.475 140.928 143.692 140.028 144.125C139.128 144.558 138.395 145.158 137.828 145.925C137.295 146.658 136.912 147.525 136.678 148.525C136.445 149.525 136.328 150.608 136.328 151.775V163.425H129.228V137.575ZM178.212 163.425H170.912L166.312 146.075H166.212L161.812 163.425H154.462L146.262 137.575H153.762L158.512 155.125H158.612L162.912 137.575H169.812L174.212 155.075H174.312L179.062 137.575H186.362L178.212 163.425ZM189.385 137.575H196.135V142.375H196.235C196.568 141.575 197.018 140.842 197.585 140.175C198.151 139.475 198.801 138.892 199.535 138.425C200.268 137.925 201.051 137.542 201.885 137.275C202.718 137.008 203.585 136.875 204.485 136.875C204.951 136.875 205.468 136.958 206.035 137.125V143.725C205.701 143.658 205.301 143.608 204.835 143.575C204.368 143.508 203.918 143.475 203.485 143.475C202.185 143.475 201.085 143.692 200.185 144.125C199.285 144.558 198.551 145.158 197.985 145.925C197.451 146.658 197.068 147.525 196.835 148.525C196.601 149.525 196.485 150.608 196.485 151.775V163.425H189.385V137.575ZM216.118 133.575H209.018V127.725H216.118V133.575ZM209.018 137.575H216.118V163.425H209.018V137.575ZM230.709 137.575H235.909V142.325H230.709V155.125C230.709 156.325 230.909 157.125 231.309 157.525C231.709 157.925 232.509 158.125 233.709 158.125C234.109 158.125 234.492 158.108 234.859 158.075C235.225 158.042 235.575 157.992 235.909 157.925V163.425C235.309 163.525 234.642 163.592 233.909 163.625C233.175 163.658 232.459 163.675 231.759 163.675C230.659 163.675 229.609 163.592 228.609 163.425C227.642 163.292 226.775 163.008 226.009 162.575C225.275 162.142 224.692 161.525 224.259 160.725C223.825 159.925 223.609 158.875 223.609 157.575V142.325H219.309V137.575H223.609V129.825H230.709V137.575ZM256.687 147.725C256.354 145.925 255.754 144.558 254.887 143.625C254.054 142.692 252.77 142.225 251.037 142.225C249.904 142.225 248.954 142.425 248.187 142.825C247.454 143.192 246.854 143.658 246.387 144.225C245.954 144.792 245.637 145.392 245.437 146.025C245.27 146.658 245.17 147.225 245.137 147.725H256.687ZM245.137 152.225C245.237 154.525 245.82 156.192 246.887 157.225C247.954 158.258 249.487 158.775 251.487 158.775C252.92 158.775 254.154 158.425 255.187 157.725C256.22 156.992 256.854 156.225 257.087 155.425H263.337C262.337 158.525 260.804 160.742 258.737 162.075C256.67 163.408 254.17 164.075 251.237 164.075C249.204 164.075 247.37 163.758 245.737 163.125C244.104 162.458 242.72 161.525 241.587 160.325C240.454 159.125 239.57 157.692 238.937 156.025C238.337 154.358 238.037 152.525 238.037 150.525C238.037 148.592 238.354 146.792 238.987 145.125C239.62 143.458 240.52 142.025 241.687 140.825C242.854 139.592 244.237 138.625 245.837 137.925C247.47 137.225 249.27 136.875 251.237 136.875C253.437 136.875 255.354 137.308 256.987 138.175C258.62 139.008 259.954 140.142 260.987 141.575C262.054 143.008 262.82 144.642 263.287 146.475C263.754 148.308 263.92 150.225 263.787 152.225H245.137ZM267.998 137.575H274.748V142.375H274.848C275.181 141.575 275.631 140.842 276.198 140.175C276.765 139.475 277.415 138.892 278.148 138.425C278.881 137.925 279.665 137.542 280.498 137.275C281.331 137.008 282.198 136.875 283.098 136.875C283.565 136.875 284.081 136.958 284.648 137.125V143.725C284.315 143.658 283.915 143.608 283.448 143.575C282.981 143.508 282.531 143.475 282.098 143.475C280.798 143.475 279.698 143.692 278.798 144.125C277.898 144.558 277.165 145.158 276.598 145.925C276.065 146.658 275.681 147.525 275.448 148.525C275.215 149.525 275.098 150.608 275.098 151.775V163.425H267.998V137.575ZM292.931 155.025C292.931 155.792 293.081 156.458 293.381 157.025C293.715 157.558 294.131 158.008 294.631 158.375C295.131 158.708 295.698 158.958 296.331 159.125C296.998 159.292 297.681 159.375 298.381 159.375C298.881 159.375 299.398 159.325 299.931 159.225C300.498 159.092 300.998 158.908 301.431 158.675C301.898 158.408 302.281 158.075 302.581 157.675C302.881 157.242 303.031 156.708 303.031 156.075C303.031 155.008 302.315 154.208 300.881 153.675C299.481 153.142 297.515 152.608 294.981 152.075C293.948 151.842 292.931 151.575 291.931 151.275C290.965 150.942 290.098 150.525 289.331 150.025C288.565 149.492 287.948 148.842 287.481 148.075C287.015 147.275 286.781 146.308 286.781 145.175C286.781 143.508 287.098 142.142 287.731 141.075C288.398 140.008 289.265 139.175 290.331 138.575C291.398 137.942 292.598 137.508 293.931 137.275C295.265 137.008 296.631 136.875 298.031 136.875C299.431 136.875 300.781 137.008 302.081 137.275C303.415 137.542 304.598 137.992 305.631 138.625C306.665 139.258 307.515 140.108 308.181 141.175C308.881 142.208 309.298 143.525 309.431 145.125H302.681C302.581 143.758 302.065 142.842 301.131 142.375C300.198 141.875 299.098 141.625 297.831 141.625C297.431 141.625 296.998 141.658 296.531 141.725C296.065 141.758 295.631 141.858 295.231 142.025C294.865 142.192 294.548 142.442 294.281 142.775C294.015 143.075 293.881 143.492 293.881 144.025C293.881 144.658 294.115 145.175 294.581 145.575C295.048 145.975 295.648 146.308 296.381 146.575C297.148 146.808 298.015 147.025 298.981 147.225C299.948 147.425 300.931 147.642 301.931 147.875C302.965 148.108 303.965 148.392 304.931 148.725C305.931 149.058 306.815 149.508 307.581 150.075C308.348 150.608 308.965 151.292 309.431 152.125C309.898 152.925 310.131 153.925 310.131 155.125C310.131 156.825 309.781 158.258 309.081 159.425C308.415 160.558 307.531 161.475 306.431 162.175C305.331 162.875 304.065 163.358 302.631 163.625C301.231 163.925 299.798 164.075 298.331 164.075C296.831 164.075 295.365 163.925 293.931 163.625C292.498 163.325 291.215 162.825 290.081 162.125C288.981 161.425 288.065 160.508 287.331 159.375C286.631 158.208 286.248 156.758 286.181 155.025H292.931Z" fill="white"/>
<path d="M14.627 193.683H19.877V196.333H14.627V213.733C14.627 214.767 14.7603 215.583 15.027 216.183C15.327 216.75 16.0436 217.067 17.177 217.133C18.077 217.133 18.977 217.083 19.877 216.983V219.633C19.4103 219.633 18.9436 219.65 18.477 219.683C18.0103 219.717 17.5436 219.733 17.077 219.733C14.977 219.733 13.5103 219.333 12.677 218.533C11.8436 217.7 11.4436 216.183 11.477 213.983V196.333H6.97695V193.683H11.477V185.933H14.627V193.683ZM35.3219 195.583C33.8219 195.583 32.5052 195.9 31.3719 196.533C30.2385 197.167 29.2885 198 28.5219 199.033C27.7885 200.067 27.2219 201.25 26.8219 202.583C26.4552 203.883 26.2719 205.217 26.2719 206.583C26.2719 207.95 26.4552 209.3 26.8219 210.633C27.2219 211.933 27.7885 213.1 28.5219 214.133C29.2885 215.167 30.2385 216 31.3719 216.633C32.5052 217.267 33.8219 217.583 35.3219 217.583C36.8219 217.583 38.1385 217.267 39.2719 216.633C40.4052 216 41.3385 215.167 42.0719 214.133C42.8385 213.1 43.4052 211.933 43.7719 210.633C44.1719 209.3 44.3719 207.95 44.3719 206.583C44.3719 205.217 44.1719 203.883 43.7719 202.583C43.4052 201.25 42.8385 200.067 42.0719 199.033C41.3385 198 40.4052 197.167 39.2719 196.533C38.1385 195.9 36.8219 195.583 35.3219 195.583ZM35.3219 192.933C37.2885 192.933 39.0219 193.3 40.5219 194.033C42.0552 194.767 43.3385 195.75 44.3719 196.983C45.4052 198.217 46.1885 199.667 46.7219 201.333C47.2552 202.967 47.5219 204.717 47.5219 206.583C47.5219 208.45 47.2552 210.217 46.7219 211.883C46.1885 213.517 45.4052 214.95 44.3719 216.183C43.3385 217.417 42.0552 218.4 40.5219 219.133C39.0219 219.833 37.2885 220.183 35.3219 220.183C33.3552 220.183 31.6052 219.833 30.0719 219.133C28.5719 218.4 27.3052 217.417 26.2719 216.183C25.2385 214.95 24.4552 213.517 23.9219 211.883C23.3885 210.217 23.1219 208.45 23.1219 206.583C23.1219 204.717 23.3885 202.967 23.9219 201.333C24.4552 199.667 25.2385 198.217 26.2719 196.983C27.3052 195.75 28.5719 194.767 30.0719 194.033C31.6052 193.3 33.3552 192.933 35.3219 192.933ZM68.3211 207.733C68.2878 209.567 68.5711 211.1 69.1711 212.333C69.7711 213.567 70.5878 214.55 71.6211 215.283C72.6878 216.017 73.9378 216.55 75.3711 216.883C76.8044 217.183 78.3378 217.333 79.9711 217.333C80.9044 217.333 81.9211 217.2 83.0211 216.933C84.1211 216.667 85.1378 216.25 86.0711 215.683C87.0378 215.083 87.8378 214.333 88.4711 213.433C89.1044 212.5 89.4211 211.383 89.4211 210.083C89.4211 209.083 89.1878 208.217 88.7211 207.483C88.2878 206.75 87.7044 206.133 86.9711 205.633C86.2711 205.133 85.4878 204.733 84.6211 204.433C83.7544 204.1 82.9044 203.833 82.0711 203.633L74.1211 201.683C73.0878 201.417 72.0711 201.083 71.0711 200.683C70.1044 200.283 69.2544 199.75 68.5211 199.083C67.7878 198.417 67.1878 197.6 66.7211 196.633C66.2878 195.667 66.0711 194.483 66.0711 193.083C66.0711 192.217 66.2378 191.2 66.5711 190.033C66.9044 188.867 67.5211 187.767 68.4211 186.733C69.3544 185.7 70.6211 184.833 72.2211 184.133C73.8211 183.4 75.8711 183.033 78.3711 183.033C80.1378 183.033 81.8211 183.267 83.4211 183.733C85.0211 184.2 86.4211 184.9 87.6211 185.833C88.8211 186.767 89.7711 187.933 90.4711 189.333C91.2044 190.7 91.5711 192.3 91.5711 194.133H88.1711C88.1044 192.767 87.7878 191.583 87.2211 190.583C86.6878 189.55 85.9711 188.7 85.0711 188.033C84.2044 187.333 83.1878 186.817 82.0211 186.483C80.8878 186.117 79.6878 185.933 78.4211 185.933C77.2544 185.933 76.1211 186.067 75.0211 186.333C73.9544 186.567 73.0044 186.967 72.1711 187.533C71.3711 188.067 70.7211 188.783 70.2211 189.683C69.7211 190.583 69.4711 191.7 69.4711 193.033C69.4711 193.867 69.6044 194.6 69.8711 195.233C70.1711 195.833 70.5711 196.35 71.0711 196.783C71.5711 197.217 72.1378 197.567 72.7711 197.833C73.4378 198.1 74.1378 198.317 74.8711 198.483L83.5711 200.633C84.8378 200.967 86.0211 201.383 87.1211 201.883C88.2544 202.35 89.2378 202.95 90.0711 203.683C90.9378 204.383 91.6044 205.25 92.0711 206.283C92.5711 207.317 92.8211 208.567 92.8211 210.033C92.8211 210.433 92.7711 210.967 92.6711 211.633C92.6044 212.3 92.4044 213.017 92.0711 213.783C91.7711 214.517 91.3211 215.267 90.7211 216.033C90.1544 216.8 89.3544 217.5 88.3211 218.133C87.3211 218.733 86.0711 219.217 84.5711 219.583C83.0711 219.983 81.2711 220.183 79.1711 220.183C77.0711 220.183 75.1211 219.95 73.3211 219.483C71.5211 218.983 69.9878 218.233 68.7211 217.233C67.4544 216.233 66.4711 214.95 65.7711 213.383C65.1044 211.817 64.8211 209.933 64.9211 207.733H68.3211ZM97.3152 201.583C97.4152 200.083 97.7319 198.783 98.2652 197.683C98.7986 196.583 99.5152 195.683 100.415 194.983C101.349 194.283 102.432 193.767 103.665 193.433C104.899 193.1 106.265 192.933 107.765 192.933C108.899 192.933 110.032 193.05 111.165 193.283C112.299 193.483 113.315 193.883 114.215 194.483C115.115 195.083 115.849 195.933 116.415 197.033C116.982 198.1 117.265 199.5 117.265 201.233V214.933C117.265 216.2 117.882 216.833 119.115 216.833C119.482 216.833 119.815 216.767 120.115 216.633V219.283C119.749 219.35 119.415 219.4 119.115 219.433C118.849 219.467 118.499 219.483 118.065 219.483C117.265 219.483 116.615 219.383 116.115 219.183C115.649 218.95 115.282 218.633 115.015 218.233C114.749 217.833 114.565 217.367 114.465 216.833C114.399 216.267 114.365 215.65 114.365 214.983H114.265C113.699 215.817 113.115 216.567 112.515 217.233C111.949 217.867 111.299 218.4 110.565 218.833C109.865 219.267 109.049 219.6 108.115 219.833C107.215 220.067 106.132 220.183 104.865 220.183C103.665 220.183 102.532 220.033 101.465 219.733C100.432 219.467 99.5152 219.033 98.7152 218.433C97.9486 217.8 97.3319 217.017 96.8652 216.083C96.4319 215.117 96.2152 213.983 96.2152 212.683C96.2152 210.883 96.6152 209.483 97.4152 208.483C98.2152 207.45 99.2652 206.667 100.565 206.133C101.899 205.6 103.382 205.233 105.015 205.033C106.682 204.8 108.365 204.583 110.065 204.383C110.732 204.317 111.315 204.233 111.815 204.133C112.315 204.033 112.732 203.867 113.065 203.633C113.399 203.367 113.649 203.017 113.815 202.583C114.015 202.15 114.115 201.583 114.115 200.883C114.115 199.817 113.932 198.95 113.565 198.283C113.232 197.583 112.749 197.033 112.115 196.633C111.515 196.233 110.799 195.967 109.965 195.833C109.165 195.667 108.299 195.583 107.365 195.583C105.365 195.583 103.732 196.067 102.465 197.033C101.199 197.967 100.532 199.483 100.465 201.583H97.3152ZM114.115 205.383H114.015C113.815 205.75 113.432 206.017 112.865 206.183C112.299 206.35 111.799 206.467 111.365 206.533C110.032 206.767 108.649 206.983 107.215 207.183C105.815 207.35 104.532 207.617 103.365 207.983C102.199 208.35 101.232 208.883 100.465 209.583C99.7319 210.25 99.3652 211.217 99.3652 212.483C99.3652 213.283 99.5152 214 99.8152 214.633C100.149 215.233 100.582 215.767 101.115 216.233C101.649 216.667 102.265 217 102.965 217.233C103.665 217.467 104.382 217.583 105.115 217.583C106.315 217.583 107.465 217.4 108.565 217.033C109.665 216.667 110.615 216.133 111.415 215.433C112.249 214.733 112.899 213.883 113.365 212.883C113.865 211.883 114.115 210.75 114.115 209.483V205.383ZM133.493 196.333H128.393V219.483H125.243V196.333H120.843V193.683H125.243V191.333C125.243 190.233 125.326 189.217 125.493 188.283C125.66 187.35 125.976 186.55 126.443 185.883C126.91 185.217 127.543 184.7 128.343 184.333C129.176 183.967 130.226 183.783 131.493 183.783C131.96 183.783 132.393 183.8 132.793 183.833C133.193 183.867 133.643 183.917 134.143 183.983V186.683C133.71 186.617 133.31 186.567 132.943 186.533C132.576 186.467 132.21 186.433 131.843 186.433C130.976 186.433 130.31 186.567 129.843 186.833C129.376 187.1 129.026 187.467 128.793 187.933C128.593 188.367 128.476 188.883 128.443 189.483C128.41 190.083 128.393 190.733 128.393 191.433V193.683H133.493V196.333ZM155.032 204.783C154.999 203.583 154.782 202.433 154.382 201.333C154.016 200.233 153.482 199.267 152.782 198.433C152.082 197.567 151.232 196.883 150.232 196.383C149.232 195.85 148.099 195.583 146.832 195.583C145.532 195.583 144.382 195.85 143.382 196.383C142.382 196.883 141.532 197.567 140.832 198.433C140.132 199.267 139.566 200.25 139.132 201.383C138.732 202.483 138.466 203.617 138.332 204.783H155.032ZM138.332 207.433C138.332 208.567 138.482 209.75 138.782 210.983C139.116 212.183 139.632 213.267 140.332 214.233C141.032 215.2 141.916 216 142.982 216.633C144.049 217.267 145.332 217.583 146.832 217.583C149.132 217.583 150.932 216.983 152.232 215.783C153.532 214.583 154.432 212.983 154.932 210.983H158.082C157.416 213.917 156.182 216.183 154.382 217.783C152.616 219.383 150.099 220.183 146.832 220.183C144.799 220.183 143.032 219.833 141.532 219.133C140.066 218.4 138.866 217.417 137.932 216.183C136.999 214.917 136.299 213.467 135.832 211.833C135.399 210.167 135.182 208.417 135.182 206.583C135.182 204.883 135.399 203.217 135.832 201.583C136.299 199.95 136.999 198.5 137.932 197.233C138.866 195.933 140.066 194.9 141.532 194.133C143.032 193.333 144.799 192.933 146.832 192.933C148.899 192.933 150.666 193.35 152.132 194.183C153.599 195.017 154.782 196.117 155.682 197.483C156.616 198.817 157.282 200.367 157.682 202.133C158.082 203.867 158.249 205.633 158.182 207.433H138.332ZM184.21 217.383C184.21 219.283 183.993 221 183.56 222.533C183.16 224.067 182.51 225.367 181.61 226.433C180.71 227.5 179.527 228.317 178.06 228.883C176.627 229.45 174.86 229.733 172.76 229.733C171.46 229.733 170.193 229.583 168.96 229.283C167.727 228.983 166.61 228.517 165.61 227.883C164.643 227.25 163.827 226.433 163.16 225.433C162.527 224.467 162.16 223.3 162.06 221.933H165.21C165.377 222.9 165.693 223.7 166.16 224.333C166.66 225 167.243 225.533 167.91 225.933C168.61 226.333 169.377 226.617 170.21 226.783C171.043 226.983 171.893 227.083 172.76 227.083C175.693 227.083 177.81 226.25 179.11 224.583C180.41 222.917 181.06 220.517 181.06 217.383V213.883H180.96C180.227 215.483 179.143 216.767 177.71 217.733C176.31 218.7 174.66 219.183 172.76 219.183C170.693 219.183 168.927 218.85 167.46 218.183C165.993 217.483 164.777 216.533 163.81 215.333C162.877 214.133 162.193 212.733 161.76 211.133C161.327 209.5 161.11 207.767 161.11 205.933C161.11 204.167 161.36 202.5 161.86 200.933C162.393 199.333 163.143 197.95 164.11 196.783C165.11 195.583 166.327 194.65 167.76 193.983C169.227 193.283 170.893 192.933 172.76 192.933C173.727 192.933 174.627 193.067 175.46 193.333C176.327 193.6 177.11 193.983 177.81 194.483C178.51 194.95 179.127 195.5 179.66 196.133C180.227 196.767 180.66 197.433 180.96 198.133H181.06V193.683H184.21V217.383ZM172.76 216.533C174.127 216.533 175.327 216.25 176.36 215.683C177.393 215.083 178.26 214.317 178.96 213.383C179.66 212.417 180.177 211.317 180.51 210.083C180.877 208.85 181.06 207.583 181.06 206.283C181.06 205.017 180.91 203.75 180.61 202.483C180.31 201.217 179.827 200.067 179.16 199.033C178.493 198 177.627 197.167 176.56 196.533C175.527 195.9 174.26 195.583 172.76 195.583C171.26 195.583 169.977 195.9 168.91 196.533C167.843 197.133 166.96 197.933 166.26 198.933C165.56 199.933 165.043 201.083 164.71 202.383C164.41 203.65 164.26 204.95 164.26 206.283C164.26 207.583 164.427 208.85 164.76 210.083C165.093 211.317 165.61 212.417 166.31 213.383C167.01 214.317 167.893 215.083 168.96 215.683C170.027 216.25 171.293 216.533 172.76 216.533ZM211.093 219.483H208.193V214.833H208.093C207.26 216.567 206.043 217.9 204.443 218.833C202.877 219.733 201.127 220.183 199.193 220.183C197.56 220.183 196.16 219.95 194.993 219.483C193.86 219.05 192.927 218.417 192.193 217.583C191.493 216.75 190.977 215.733 190.643 214.533C190.31 213.333 190.143 211.967 190.143 210.433V193.683H193.293V210.483C193.36 212.817 193.893 214.583 194.893 215.783C195.927 216.983 197.693 217.583 200.193 217.583C201.56 217.583 202.727 217.3 203.693 216.733C204.66 216.133 205.46 215.35 206.093 214.383C206.727 213.417 207.193 212.317 207.493 211.083C207.793 209.817 207.943 208.533 207.943 207.233V193.683H211.093V219.483ZM216.749 201.583C216.849 200.083 217.165 198.783 217.699 197.683C218.232 196.583 218.949 195.683 219.849 194.983C220.782 194.283 221.865 193.767 223.099 193.433C224.332 193.1 225.699 192.933 227.199 192.933C228.332 192.933 229.465 193.05 230.599 193.283C231.732 193.483 232.749 193.883 233.649 194.483C234.549 195.083 235.282 195.933 235.849 197.033C236.415 198.1 236.699 199.5 236.699 201.233V214.933C236.699 216.2 237.315 216.833 238.549 216.833C238.915 216.833 239.249 216.767 239.549 216.633V219.283C239.182 219.35 238.849 219.4 238.549 219.433C238.282 219.467 237.932 219.483 237.499 219.483C236.699 219.483 236.049 219.383 235.549 219.183C235.082 218.95 234.715 218.633 234.449 218.233C234.182 217.833 233.999 217.367 233.899 216.833C233.832 216.267 233.799 215.65 233.799 214.983H233.699C233.132 215.817 232.549 216.567 231.949 217.233C231.382 217.867 230.732 218.4 229.999 218.833C229.299 219.267 228.482 219.6 227.549 219.833C226.649 220.067 225.565 220.183 224.299 220.183C223.099 220.183 221.965 220.033 220.899 219.733C219.865 219.467 218.949 219.033 218.149 218.433C217.382 217.8 216.765 217.017 216.299 216.083C215.865 215.117 215.649 213.983 215.649 212.683C215.649 210.883 216.049 209.483 216.849 208.483C217.649 207.45 218.699 206.667 219.999 206.133C221.332 205.6 222.815 205.233 224.449 205.033C226.115 204.8 227.799 204.583 229.499 204.383C230.165 204.317 230.749 204.233 231.249 204.133C231.749 204.033 232.165 203.867 232.499 203.633C232.832 203.367 233.082 203.017 233.249 202.583C233.449 202.15 233.549 201.583 233.549 200.883C233.549 199.817 233.365 198.95 232.999 198.283C232.665 197.583 232.182 197.033 231.549 196.633C230.949 196.233 230.232 195.967 229.399 195.833C228.599 195.667 227.732 195.583 226.799 195.583C224.799 195.583 223.165 196.067 221.899 197.033C220.632 197.967 219.965 199.483 219.899 201.583H216.749ZM233.549 205.383H233.449C233.249 205.75 232.865 206.017 232.299 206.183C231.732 206.35 231.232 206.467 230.799 206.533C229.465 206.767 228.082 206.983 226.649 207.183C225.249 207.35 223.965 207.617 222.799 207.983C221.632 208.35 220.665 208.883 219.899 209.583C219.165 210.25 218.799 211.217 218.799 212.483C218.799 213.283 218.949 214 219.249 214.633C219.582 215.233 220.015 215.767 220.549 216.233C221.082 216.667 221.699 217 222.399 217.233C223.099 217.467 223.815 217.583 224.549 217.583C225.749 217.583 226.899 217.4 227.999 217.033C229.099 216.667 230.049 216.133 230.849 215.433C231.682 214.733 232.332 213.883 232.799 212.883C233.299 211.883 233.549 210.75 233.549 209.483V205.383ZM242.977 193.683H245.877V199.733H245.977C246.777 197.633 248.01 196.017 249.677 194.883C251.377 193.75 253.393 193.233 255.727 193.333V196.483C254.293 196.417 252.993 196.617 251.827 197.083C250.66 197.517 249.643 198.15 248.777 198.983C247.943 199.817 247.293 200.817 246.827 201.983C246.36 203.117 246.127 204.367 246.127 205.733V219.483H242.977V193.683ZM280.569 219.483H277.669V214.583H277.569C277.236 215.417 276.736 216.183 276.069 216.883C275.436 217.583 274.702 218.183 273.869 218.683C273.036 219.15 272.136 219.517 271.169 219.783C270.236 220.05 269.302 220.183 268.369 220.183C266.402 220.183 264.686 219.833 263.219 219.133C261.786 218.4 260.586 217.417 259.619 216.183C258.652 214.917 257.936 213.467 257.469 211.833C257.002 210.167 256.769 208.417 256.769 206.583C256.769 204.75 257.002 203.017 257.469 201.383C257.936 199.717 258.652 198.267 259.619 197.033C260.586 195.767 261.786 194.767 263.219 194.033C264.686 193.3 266.402 192.933 268.369 192.933C269.336 192.933 270.269 193.05 271.169 193.283C272.102 193.517 272.969 193.883 273.769 194.383C274.569 194.85 275.269 195.433 275.869 196.133C276.502 196.833 276.986 197.65 277.319 198.583H277.419V183.783H280.569V219.483ZM259.919 206.583C259.919 207.917 260.069 209.25 260.369 210.583C260.702 211.883 261.202 213.05 261.869 214.083C262.569 215.117 263.452 215.967 264.519 216.633C265.586 217.267 266.869 217.583 268.369 217.583C270.036 217.583 271.436 217.267 272.569 216.633C273.736 215.967 274.669 215.117 275.369 214.083C276.102 213.05 276.619 211.883 276.919 210.583C277.252 209.25 277.419 207.917 277.419 206.583C277.419 205.25 277.252 203.933 276.919 202.633C276.619 201.3 276.102 200.117 275.369 199.083C274.669 198.05 273.736 197.217 272.569 196.583C271.436 195.917 270.036 195.583 268.369 195.583C266.869 195.583 265.586 195.917 264.519 196.583C263.452 197.217 262.569 198.05 261.869 199.083C261.202 200.117 260.702 201.3 260.369 202.633C260.069 203.933 259.919 205.25 259.919 206.583ZM302.03 201.233C301.997 200.267 301.797 199.433 301.43 198.733C301.063 198 300.563 197.4 299.93 196.933C299.33 196.467 298.63 196.133 297.83 195.933C297.03 195.7 296.18 195.583 295.28 195.583C294.58 195.583 293.863 195.667 293.13 195.833C292.43 195.967 291.78 196.217 291.18 196.583C290.58 196.917 290.097 197.367 289.73 197.933C289.363 198.5 289.18 199.2 289.18 200.033C289.18 200.733 289.347 201.333 289.68 201.833C290.047 202.3 290.497 202.7 291.03 203.033C291.563 203.367 292.147 203.65 292.78 203.883C293.413 204.083 293.997 204.25 294.53 204.383L298.73 205.333C299.63 205.467 300.513 205.717 301.38 206.083C302.28 206.417 303.063 206.867 303.73 207.433C304.43 208 304.997 208.7 305.43 209.533C305.863 210.367 306.08 211.35 306.08 212.483C306.08 213.883 305.763 215.083 305.13 216.083C304.497 217.05 303.68 217.85 302.68 218.483C301.713 219.083 300.613 219.517 299.38 219.783C298.147 220.05 296.93 220.183 295.73 220.183C292.697 220.183 290.23 219.467 288.33 218.033C286.463 216.6 285.397 214.3 285.13 211.133H288.28C288.413 213.267 289.18 214.883 290.58 215.983C292.013 217.05 293.78 217.583 295.88 217.583C296.647 217.583 297.43 217.5 298.23 217.333C299.063 217.167 299.83 216.883 300.53 216.483C301.23 216.083 301.797 215.583 302.23 214.983C302.697 214.35 302.93 213.583 302.93 212.683C302.93 211.917 302.763 211.283 302.43 210.783C302.13 210.25 301.713 209.817 301.18 209.483C300.647 209.117 300.03 208.817 299.33 208.583C298.663 208.35 297.98 208.15 297.28 207.983L293.23 207.083C292.197 206.817 291.247 206.517 290.38 206.183C289.513 205.817 288.747 205.383 288.08 204.883C287.447 204.35 286.947 203.717 286.58 202.983C286.213 202.217 286.03 201.283 286.03 200.183C286.03 198.883 286.313 197.767 286.88 196.833C287.48 195.9 288.247 195.15 289.18 194.583C290.113 194.017 291.147 193.6 292.28 193.333C293.447 193.067 294.597 192.933 295.73 192.933C297.03 192.933 298.23 193.1 299.33 193.433C300.463 193.767 301.447 194.283 302.28 194.983C303.147 195.683 303.83 196.55 304.33 197.583C304.83 198.617 305.113 199.833 305.18 201.233H302.03Z" fill="white"/>
<path d="M56.1699 250.667H61.4199V253.317H56.1699V270.717C56.1699 271.751 56.3033 272.567 56.5699 273.167C56.8699 273.734 57.5866 274.051 58.7199 274.117C59.6199 274.117 60.5199 274.067 61.4199 273.967V276.617C60.9533 276.617 60.4866 276.634 60.0199 276.667C59.5533 276.701 59.0866 276.717 58.6199 276.717C56.5199 276.717 55.0533 276.317 54.2199 275.517C53.3866 274.684 52.9866 273.167 53.0199 270.967V253.317H48.5199V250.667H53.0199V242.917H56.1699V250.667ZM65.9148 240.767H69.0648V255.117H69.1648C69.7648 253.551 70.8315 252.301 72.3648 251.367C73.8982 250.401 75.5815 249.917 77.4148 249.917C79.2148 249.917 80.7148 250.151 81.9148 250.617C83.1482 251.084 84.1315 251.751 84.8648 252.617C85.5982 253.451 86.1148 254.484 86.4148 255.717C86.7148 256.951 86.8648 258.334 86.8648 259.867V276.467H83.7148V260.367C83.7148 259.267 83.6148 258.251 83.4148 257.317C83.2148 256.351 82.8648 255.517 82.3648 254.817C81.8648 254.117 81.1815 253.567 80.3148 253.167C79.4815 252.767 78.4315 252.567 77.1648 252.567C75.8982 252.567 74.7648 252.801 73.7648 253.267C72.7982 253.701 71.9648 254.317 71.2648 255.117C70.5982 255.884 70.0648 256.817 69.6648 257.917C69.2982 258.984 69.0982 260.151 69.0648 261.417V276.467H65.9148V240.767ZM111.37 261.767C111.337 260.567 111.12 259.417 110.72 258.317C110.354 257.217 109.82 256.251 109.12 255.417C108.42 254.551 107.57 253.867 106.57 253.367C105.57 252.834 104.437 252.567 103.17 252.567C101.87 252.567 100.72 252.834 99.7203 253.367C98.7203 253.867 97.8703 254.551 97.1703 255.417C96.4703 256.251 95.9036 257.234 95.4703 258.367C95.0703 259.467 94.8036 260.601 94.6703 261.767H111.37ZM94.6703 264.417C94.6703 265.551 94.8203 266.734 95.1203 267.967C95.4536 269.167 95.9703 270.251 96.6703 271.217C97.3703 272.184 98.2536 272.984 99.3203 273.617C100.387 274.251 101.67 274.567 103.17 274.567C105.47 274.567 107.27 273.967 108.57 272.767C109.87 271.567 110.77 269.967 111.27 267.967H114.42C113.754 270.901 112.52 273.167 110.72 274.767C108.954 276.367 106.437 277.167 103.17 277.167C101.137 277.167 99.3703 276.817 97.8703 276.117C96.4036 275.384 95.2036 274.401 94.2703 273.167C93.337 271.901 92.637 270.451 92.1703 268.817C91.737 267.151 91.5203 265.401 91.5203 263.567C91.5203 261.867 91.737 260.201 92.1703 258.567C92.637 256.934 93.337 255.484 94.2703 254.217C95.2036 252.917 96.4036 251.884 97.8703 251.117C99.3703 250.317 101.137 249.917 103.17 249.917C105.237 249.917 107.004 250.334 108.47 251.167C109.937 252.001 111.12 253.101 112.02 254.467C112.954 255.801 113.62 257.351 114.02 259.117C114.42 260.851 114.587 262.617 114.52 264.417H94.6703ZM133.264 240.767H155.914V243.667H136.664V256.567H153.764V259.467H136.664V276.467H133.264V240.767ZM180.42 276.467H177.52V271.817H177.42C176.586 273.551 175.37 274.884 173.77 275.817C172.203 276.717 170.453 277.167 168.52 277.167C166.886 277.167 165.486 276.934 164.32 276.467C163.186 276.034 162.253 275.401 161.52 274.567C160.82 273.734 160.303 272.717 159.97 271.517C159.636 270.317 159.47 268.951 159.47 267.417V250.667H162.62V267.467C162.686 269.801 163.22 271.567 164.22 272.767C165.253 273.967 167.02 274.567 169.52 274.567C170.886 274.567 172.053 274.284 173.02 273.717C173.986 273.117 174.786 272.334 175.42 271.367C176.053 270.401 176.52 269.301 176.82 268.067C177.12 266.801 177.27 265.517 177.27 264.217V250.667H180.42V276.467ZM191.375 250.667H196.625V253.317H191.375V270.717C191.375 271.751 191.508 272.567 191.775 273.167C192.075 273.734 192.792 274.051 193.925 274.117C194.825 274.117 195.725 274.067 196.625 273.967V276.617C196.158 276.617 195.692 276.634 195.225 276.667C194.758 276.701 194.292 276.717 193.825 276.717C191.725 276.717 190.258 276.317 189.425 275.517C188.592 274.684 188.192 273.167 188.225 270.967V253.317H183.725V250.667H188.225V242.917H191.375V250.667ZM222.07 276.467H219.17V271.817H219.07C218.237 273.551 217.02 274.884 215.42 275.817C213.853 276.717 212.103 277.167 210.17 277.167C208.537 277.167 207.137 276.934 205.97 276.467C204.837 276.034 203.903 275.401 203.17 274.567C202.47 273.734 201.953 272.717 201.62 271.517C201.287 270.317 201.12 268.951 201.12 267.417V250.667H204.27V267.467C204.337 269.801 204.87 271.567 205.87 272.767C206.903 273.967 208.67 274.567 211.17 274.567C212.537 274.567 213.703 274.284 214.67 273.717C215.637 273.117 216.437 272.334 217.07 271.367C217.703 270.401 218.17 269.301 218.47 268.067C218.77 266.801 218.92 265.517 218.92 264.217V250.667H222.07V276.467ZM228.025 250.667H230.925V256.717H231.025C231.825 254.617 233.059 253.001 234.725 251.867C236.425 250.734 238.442 250.217 240.775 250.317V253.467C239.342 253.401 238.042 253.601 236.875 254.067C235.709 254.501 234.692 255.134 233.825 255.967C232.992 256.801 232.342 257.801 231.875 258.967C231.409 260.101 231.175 261.351 231.175 262.717V276.467H228.025V250.667ZM261.468 261.767C261.435 260.567 261.218 259.417 260.818 258.317C260.451 257.217 259.918 256.251 259.218 255.417C258.518 254.551 257.668 253.867 256.668 253.367C255.668 252.834 254.535 252.567 253.268 252.567C251.968 252.567 250.818 252.834 249.818 253.367C248.818 253.867 247.968 254.551 247.268 255.417C246.568 256.251 246.001 257.234 245.568 258.367C245.168 259.467 244.901 260.601 244.768 261.767H261.468ZM244.768 264.417C244.768 265.551 244.918 266.734 245.218 267.967C245.551 269.167 246.068 270.251 246.768 271.217C247.468 272.184 248.351 272.984 249.418 273.617C250.485 274.251 251.768 274.567 253.268 274.567C255.568 274.567 257.368 273.967 258.668 272.767C259.968 271.567 260.868 269.967 261.368 267.967H264.518C263.851 270.901 262.618 273.167 260.818 274.767C259.051 276.367 256.535 277.167 253.268 277.167C251.235 277.167 249.468 276.817 247.968 276.117C246.501 275.384 245.301 274.401 244.368 273.167C243.435 271.901 242.735 270.451 242.268 268.817C241.835 267.151 241.618 265.401 241.618 263.567C241.618 261.867 241.835 260.201 242.268 258.567C242.735 256.934 243.435 255.484 244.368 254.217C245.301 252.917 246.501 251.884 247.968 251.117C249.468 250.317 251.235 249.917 253.268 249.917C255.335 249.917 257.101 250.334 258.568 251.167C260.035 252.001 261.218 253.101 262.118 254.467C263.051 255.801 263.718 257.351 264.118 259.117C264.518 260.851 264.685 262.617 264.618 264.417H244.768Z" fill="white"/>
</svg>
