<svg id="mobile" viewBox="0 0 363 283" fill="none" xmlns="http://www.w3.org/2000/svg">
    <path d="M68.4754 24.8018C68.1754 23.4351 67.6754 22.2185 66.9754 21.1518C66.3087 20.0518 65.4754 19.1351 64.4754 18.4018C63.5087 17.6685 62.4254 17.1185 61.2254 16.7518C60.0587 16.3518 58.8254 16.1518 57.5254 16.1518C55.1587 16.1518 53.1254 16.6018 51.4254 17.5018C49.7254 18.4018 48.3254 19.6018 47.2254 21.1018C46.1587 22.5685 45.3587 24.2351 44.8254 26.1018C44.3254 27.9685 44.0754 29.8851 44.0754 31.8518C44.0754 33.7851 44.3254 35.7018 44.8254 37.6018C45.3587 39.4685 46.1587 41.1518 47.2254 42.6518C48.3254 44.1185 49.7254 45.3018 51.4254 46.2018C53.1254 47.1018 55.1587 47.5518 57.5254 47.5518C59.1921 47.5518 60.6921 47.2518 62.0254 46.6518C63.3587 46.0518 64.5087 45.2351 65.4754 44.2018C66.4421 43.1685 67.2254 41.9685 67.8254 40.6018C68.4254 39.2018 68.8087 37.7018 68.9754 36.1018H72.3754C72.1421 38.3018 71.6254 40.2851 70.8254 42.0518C70.0254 43.8185 68.9921 45.3185 67.7254 46.5518C66.4587 47.7851 64.9587 48.7351 63.2254 49.4018C61.5254 50.0685 59.6254 50.4018 57.5254 50.4018C54.7254 50.4018 52.2587 49.9018 50.1254 48.9018C48.0254 47.8685 46.2754 46.5018 44.8754 44.8018C43.4754 43.1018 42.4254 41.1351 41.7254 38.9018C41.0254 36.6685 40.6754 34.3185 40.6754 31.8518C40.6754 29.3851 41.0254 27.0351 41.7254 24.8018C42.4254 22.5685 43.4754 20.6018 44.8754 18.9018C46.2754 17.1685 48.0254 15.8018 50.1254 14.8018C52.2587 13.7685 54.7254 13.2518 57.5254 13.2518C59.2254 13.2518 60.8754 13.5018 62.4754 14.0018C64.1087 14.5018 65.5754 15.2518 66.8754 16.2518C68.2087 17.2185 69.3087 18.4185 70.1754 19.8518C71.0754 21.2851 71.6421 22.9351 71.8754 24.8018H68.4754ZM76.9305 14.0018H80.0805V28.3518H80.1805C80.7805 26.7851 81.8471 25.5351 83.3805 24.6018C84.9138 23.6351 86.5971 23.1518 88.4305 23.1518C90.2305 23.1518 91.7305 23.3851 92.9305 23.8518C94.1638 24.3185 95.1471 24.9851 95.8805 25.8518C96.6138 26.6851 97.1305 27.7185 97.4305 28.9518C97.7305 30.1851 97.8805 31.5685 97.8805 33.1018V49.7018H94.7305V33.6018C94.7305 32.5018 94.6305 31.4851 94.4305 30.5518C94.2305 29.5851 93.8805 28.7518 93.3805 28.0518C92.8805 27.3518 92.1971 26.8018 91.3305 26.4018C90.4971 26.0018 89.4471 25.8018 88.1805 25.8018C86.9138 25.8018 85.7805 26.0351 84.7805 26.5018C83.8138 26.9351 82.9805 27.5518 82.2805 28.3518C81.6138 29.1185 81.0805 30.0518 80.6805 31.1518C80.3138 32.2185 80.1138 33.3851 80.0805 34.6518V49.7018H76.9305V14.0018ZM103.536 31.8018C103.636 30.3018 103.953 29.0018 104.486 27.9018C105.019 26.8018 105.736 25.9018 106.636 25.2018C107.569 24.5018 108.653 23.9851 109.886 23.6518C111.119 23.3185 112.486 23.1518 113.986 23.1518C115.119 23.1518 116.253 23.2685 117.386 23.5018C118.519 23.7018 119.536 24.1018 120.436 24.7018C121.336 25.3018 122.069 26.1518 122.636 27.2518C123.203 28.3185 123.486 29.7185 123.486 31.4518V45.1518C123.486 46.4185 124.103 47.0518 125.336 47.0518C125.703 47.0518 126.036 46.9851 126.336 46.8518V49.5018C125.969 49.5685 125.636 49.6185 125.336 49.6518C125.069 49.6851 124.719 49.7018 124.286 49.7018C123.486 49.7018 122.836 49.6018 122.336 49.4018C121.869 49.1685 121.503 48.8518 121.236 48.4518C120.969 48.0518 120.786 47.5851 120.686 47.0518C120.619 46.4851 120.586 45.8685 120.586 45.2018H120.486C119.919 46.0351 119.336 46.7851 118.736 47.4518C118.169 48.0851 117.519 48.6185 116.786 49.0518C116.086 49.4851 115.269 49.8185 114.336 50.0518C113.436 50.2851 112.353 50.4018 111.086 50.4018C109.886 50.4018 108.753 50.2518 107.686 49.9518C106.653 49.6851 105.736 49.2518 104.936 48.6518C104.169 48.0185 103.553 47.2351 103.086 46.3018C102.653 45.3351 102.436 44.2018 102.436 42.9018C102.436 41.1018 102.836 39.7018 103.636 38.7018C104.436 37.6685 105.486 36.8851 106.786 36.3518C108.119 35.8185 109.603 35.4518 111.236 35.2518C112.903 35.0185 114.586 34.8018 116.286 34.6018C116.953 34.5351 117.536 34.4518 118.036 34.3518C118.536 34.2518 118.953 34.0851 119.286 33.8518C119.619 33.5851 119.869 33.2351 120.036 32.8018C120.236 32.3685 120.336 31.8018 120.336 31.1018C120.336 30.0351 120.153 29.1685 119.786 28.5018C119.453 27.8018 118.969 27.2518 118.336 26.8518C117.736 26.4518 117.019 26.1851 116.186 26.0518C115.386 25.8851 114.519 25.8018 113.586 25.8018C111.586 25.8018 109.953 26.2851 108.686 27.2518C107.419 28.1851 106.753 29.7018 106.686 31.8018H103.536ZM120.336 35.6018H120.236C120.036 35.9685 119.653 36.2351 119.086 36.4018C118.519 36.5685 118.019 36.6851 117.586 36.7518C116.253 36.9851 114.869 37.2018 113.436 37.4018C112.036 37.5685 110.753 37.8351 109.586 38.2018C108.419 38.5685 107.453 39.1018 106.686 39.8018C105.953 40.4685 105.586 41.4351 105.586 42.7018C105.586 43.5018 105.736 44.2185 106.036 44.8518C106.369 45.4518 106.803 45.9851 107.336 46.4518C107.869 46.8851 108.486 47.2185 109.186 47.4518C109.886 47.6851 110.603 47.8018 111.336 47.8018C112.536 47.8018 113.686 47.6185 114.786 47.2518C115.886 46.8851 116.836 46.3518 117.636 45.6518C118.469 44.9518 119.119 44.1018 119.586 43.1018C120.086 42.1018 120.336 40.9685 120.336 39.7018V35.6018ZM129.764 23.9018H132.664V28.2518H132.814C133.647 26.6518 134.73 25.4018 136.064 24.5018C137.43 23.6018 139.164 23.1518 141.264 23.1518C142.964 23.1518 144.497 23.5685 145.864 24.4018C147.264 25.2351 148.197 26.5018 148.664 28.2018C149.43 26.5018 150.564 25.2351 152.064 24.4018C153.564 23.5685 155.164 23.1518 156.864 23.1518C162.564 23.1518 165.414 26.1685 165.414 32.2018V49.7018H162.264V32.3518C162.264 30.2185 161.814 28.6018 160.914 27.5018C160.014 26.3685 158.43 25.8018 156.164 25.8018C154.797 25.8018 153.664 26.0685 152.764 26.6018C151.864 27.1018 151.147 27.7851 150.614 28.6518C150.08 29.5185 149.697 30.5185 149.464 31.6518C149.264 32.7518 149.164 33.9018 149.164 35.1018V49.7018H146.014V32.2018C146.014 31.3351 145.914 30.5185 145.714 29.7518C145.547 28.9518 145.247 28.2685 144.814 27.7018C144.414 27.1018 143.864 26.6351 143.164 26.3018C142.464 25.9685 141.614 25.8018 140.614 25.8018C139.28 25.8018 138.114 26.0518 137.114 26.5518C136.147 27.0185 135.347 27.6851 134.714 28.5518C134.114 29.3851 133.664 30.3851 133.364 31.5518C133.064 32.6851 132.914 33.9351 132.914 35.3018V49.7018H129.764V23.9018ZM171.414 23.9018H174.314V28.8018H174.414C175.147 27.0018 176.331 25.6185 177.964 24.6518C179.631 23.6518 181.514 23.1518 183.614 23.1518C185.581 23.1518 187.281 23.5185 188.714 24.2518C190.181 24.9851 191.397 25.9851 192.364 27.2518C193.331 28.4851 194.047 29.9351 194.514 31.6018C194.981 33.2351 195.214 34.9685 195.214 36.8018C195.214 38.6351 194.981 40.3851 194.514 42.0518C194.047 43.6851 193.331 45.1351 192.364 46.4018C191.397 47.6351 190.181 48.6185 188.714 49.3518C187.281 50.0518 185.581 50.4018 183.614 50.4018C182.681 50.4018 181.747 50.2851 180.814 50.0518C179.881 49.8185 179.014 49.4685 178.214 49.0018C177.414 48.5351 176.697 47.9518 176.064 47.2518C175.464 46.5518 174.997 45.7351 174.664 44.8018H174.564V59.2018H171.414V23.9018ZM192.064 36.8018C192.064 35.4685 191.897 34.1518 191.564 32.8518C191.264 31.5185 190.764 30.3351 190.064 29.3018C189.397 28.2685 188.531 27.4351 187.464 26.8018C186.397 26.1351 185.114 25.8018 183.614 25.8018C181.881 25.8018 180.431 26.1018 179.264 26.7018C178.097 27.3018 177.164 28.1018 176.464 29.1018C175.764 30.1018 175.264 31.2685 174.964 32.6018C174.697 33.9351 174.564 35.3351 174.564 36.8018C174.564 38.1351 174.714 39.4685 175.014 40.8018C175.347 42.1018 175.864 43.2685 176.564 44.3018C177.297 45.3351 178.231 46.1851 179.364 46.8518C180.531 47.4851 181.947 47.8018 183.614 47.8018C185.114 47.8018 186.397 47.4851 187.464 46.8518C188.531 46.1851 189.397 45.3351 190.064 44.3018C190.764 43.2685 191.264 42.1018 191.564 40.8018C191.897 39.4685 192.064 38.1351 192.064 36.8018ZM200.175 14.0018H203.325V19.0518H200.175V14.0018ZM200.175 23.9018H203.325V49.7018H200.175V23.9018ZM220.254 25.8018C218.754 25.8018 217.437 26.1185 216.304 26.7518C215.17 27.3851 214.22 28.2185 213.454 29.2518C212.72 30.2851 212.154 31.4685 211.754 32.8018C211.387 34.1018 211.204 35.4351 211.204 36.8018C211.204 38.1685 211.387 39.5185 211.754 40.8518C212.154 42.1518 212.72 43.3185 213.454 44.3518C214.22 45.3851 215.17 46.2185 216.304 46.8518C217.437 47.4851 218.754 47.8018 220.254 47.8018C221.754 47.8018 223.07 47.4851 224.204 46.8518C225.337 46.2185 226.27 45.3851 227.004 44.3518C227.77 43.3185 228.337 42.1518 228.704 40.8518C229.104 39.5185 229.304 38.1685 229.304 36.8018C229.304 35.4351 229.104 34.1018 228.704 32.8018C228.337 31.4685 227.77 30.2851 227.004 29.2518C226.27 28.2185 225.337 27.3851 224.204 26.7518C223.07 26.1185 221.754 25.8018 220.254 25.8018ZM220.254 23.1518C222.22 23.1518 223.954 23.5185 225.454 24.2518C226.987 24.9851 228.27 25.9685 229.304 27.2018C230.337 28.4351 231.12 29.8851 231.654 31.5518C232.187 33.1851 232.454 34.9351 232.454 36.8018C232.454 38.6685 232.187 40.4351 231.654 42.1018C231.12 43.7351 230.337 45.1685 229.304 46.4018C228.27 47.6351 226.987 48.6185 225.454 49.3518C223.954 50.0518 222.22 50.4018 220.254 50.4018C218.287 50.4018 216.537 50.0518 215.004 49.3518C213.504 48.6185 212.237 47.6351 211.204 46.4018C210.17 45.1685 209.387 43.7351 208.854 42.1018C208.32 40.4351 208.054 38.6685 208.054 36.8018C208.054 34.9351 208.32 33.1851 208.854 31.5518C209.387 29.8851 210.17 28.4351 211.204 27.2018C212.237 25.9685 213.504 24.9851 215.004 24.2518C216.537 23.5185 218.287 23.1518 220.254 23.1518ZM237.087 23.9018H240.237V28.3518H240.337C240.937 26.7851 242.003 25.5351 243.537 24.6018C245.07 23.6351 246.753 23.1518 248.587 23.1518C250.387 23.1518 251.887 23.3851 253.087 23.8518C254.32 24.3185 255.303 24.9851 256.037 25.8518C256.77 26.6851 257.287 27.7185 257.587 28.9518C257.887 30.1851 258.037 31.5685 258.037 33.1018V49.7018H254.887V33.6018C254.887 32.5018 254.787 31.4851 254.587 30.5518C254.387 29.5851 254.037 28.7518 253.537 28.0518C253.037 27.3518 252.353 26.8018 251.487 26.4018C250.653 26.0018 249.603 25.8018 248.337 25.8018C247.07 25.8018 245.937 26.0351 244.937 26.5018C243.97 26.9351 243.137 27.5518 242.437 28.3518C241.77 29.1185 241.237 30.0518 240.837 31.1518C240.47 32.2185 240.27 33.3851 240.237 34.6518V49.7018H237.087V23.9018ZM264.042 14.0018H267.192V19.0518H264.042V14.0018ZM264.042 23.9018H267.192V49.7018H264.042V23.9018ZM273.171 23.9018H276.321V28.3518H276.421C277.021 26.7851 278.087 25.5351 279.621 24.6018C281.154 23.6351 282.837 23.1518 284.671 23.1518C286.471 23.1518 287.971 23.3851 289.171 23.8518C290.404 24.3185 291.387 24.9851 292.121 25.8518C292.854 26.6851 293.371 27.7185 293.671 28.9518C293.971 30.1851 294.121 31.5685 294.121 33.1018V49.7018H290.971V33.6018C290.971 32.5018 290.871 31.4851 290.671 30.5518C290.471 29.5851 290.121 28.7518 289.621 28.0518C289.121 27.3518 288.437 26.8018 287.571 26.4018C286.737 26.0018 285.687 25.8018 284.421 25.8018C283.154 25.8018 282.021 26.0351 281.021 26.5018C280.054 26.9351 279.221 27.5518 278.521 28.3518C277.854 29.1185 277.321 30.0518 276.921 31.1518C276.554 32.2185 276.354 33.3851 276.321 34.6518V49.7018H273.171V23.9018ZM321.876 47.6018C321.876 49.5018 321.66 51.2185 321.226 52.7518C320.826 54.2851 320.176 55.5851 319.276 56.6518C318.376 57.7185 317.193 58.5351 315.726 59.1018C314.293 59.6685 312.526 59.9518 310.426 59.9518C309.126 59.9518 307.86 59.8018 306.626 59.5018C305.393 59.2018 304.276 58.7351 303.276 58.1018C302.31 57.4685 301.493 56.6518 300.826 55.6518C300.193 54.6851 299.826 53.5185 299.726 52.1518H302.876C303.043 53.1185 303.36 53.9185 303.826 54.5518C304.326 55.2185 304.91 55.7518 305.576 56.1518C306.276 56.5518 307.043 56.8351 307.876 57.0018C308.71 57.2018 309.56 57.3018 310.426 57.3018C313.36 57.3018 315.476 56.4685 316.776 54.8018C318.076 53.1351 318.726 50.7351 318.726 47.6018V44.1018H318.626C317.893 45.7018 316.81 46.9851 315.376 47.9518C313.976 48.9185 312.326 49.4018 310.426 49.4018C308.36 49.4018 306.593 49.0685 305.126 48.4018C303.66 47.7018 302.443 46.7518 301.476 45.5518C300.543 44.3518 299.86 42.9518 299.426 41.3518C298.993 39.7185 298.776 37.9851 298.776 36.1518C298.776 34.3851 299.026 32.7185 299.526 31.1518C300.06 29.5518 300.81 28.1685 301.776 27.0018C302.776 25.8018 303.993 24.8685 305.426 24.2018C306.893 23.5018 308.56 23.1518 310.426 23.1518C311.393 23.1518 312.293 23.2851 313.126 23.5518C313.993 23.8185 314.776 24.2018 315.476 24.7018C316.176 25.1685 316.793 25.7185 317.326 26.3518C317.893 26.9851 318.326 27.6518 318.626 28.3518H318.726V23.9018H321.876V47.6018ZM310.426 46.7518C311.793 46.7518 312.993 46.4685 314.026 45.9018C315.06 45.3018 315.926 44.5351 316.626 43.6018C317.326 42.6351 317.843 41.5351 318.176 40.3018C318.543 39.0685 318.726 37.8018 318.726 36.5018C318.726 35.2351 318.576 33.9685 318.276 32.7018C317.976 31.4351 317.493 30.2851 316.826 29.2518C316.16 28.2185 315.293 27.3851 314.226 26.7518C313.193 26.1185 311.926 25.8018 310.426 25.8018C308.926 25.8018 307.643 26.1185 306.576 26.7518C305.51 27.3518 304.626 28.1518 303.926 29.1518C303.226 30.1518 302.71 31.3018 302.376 32.6018C302.076 33.8685 301.926 35.1685 301.926 36.5018C301.926 37.8018 302.093 39.0685 302.426 40.3018C302.76 41.5351 303.276 42.6351 303.976 43.6018C304.676 44.5351 305.56 45.3018 306.626 45.9018C307.693 46.4685 308.96 46.7518 310.426 46.7518Z" fill="white"/>
    <path d="M59.3768 70.1266H67.2268V105.827H59.3768V70.1266ZM73.3729 79.9766H80.1229V83.5766H80.2729C81.1729 82.0766 82.3395 80.9933 83.7729 80.3266C85.2062 79.6266 86.6729 79.2766 88.1729 79.2766C90.0729 79.2766 91.6229 79.5433 92.8229 80.0766C94.0562 80.5766 95.0229 81.2933 95.7229 82.2266C96.4229 83.1266 96.9062 84.2433 97.1729 85.5766C97.4729 86.8766 97.6229 88.3266 97.6229 89.9266V105.827H90.5229V91.2266C90.5229 89.0933 90.1895 87.5099 89.5229 86.4766C88.8562 85.4099 87.6729 84.8766 85.9729 84.8766C84.0395 84.8766 82.6395 85.4599 81.7729 86.6266C80.9062 87.7599 80.4729 89.6433 80.4729 92.2766V105.827H73.3729V79.9766ZM103.012 79.9766H109.762V83.5766H109.912C110.812 82.0766 111.978 80.9933 113.412 80.3266C114.845 79.6266 116.312 79.2766 117.812 79.2766C119.712 79.2766 121.262 79.5433 122.462 80.0766C123.695 80.5766 124.662 81.2933 125.362 82.2266C126.062 83.1266 126.545 84.2433 126.812 85.5766C127.112 86.8766 127.262 88.3266 127.262 89.9266V105.827H120.162V91.2266C120.162 89.0933 119.828 87.5099 119.162 86.4766C118.495 85.4099 117.312 84.8766 115.612 84.8766C113.678 84.8766 112.278 85.4599 111.412 86.6266C110.545 87.7599 110.112 89.6433 110.112 92.2766V105.827H103.012V79.9766ZM138.95 92.9266C138.95 93.9599 139.05 94.9766 139.25 95.9766C139.45 96.9433 139.784 97.8266 140.25 98.6266C140.75 99.3933 141.4 100.01 142.2 100.477C143 100.943 144 101.177 145.2 101.177C146.4 101.177 147.4 100.943 148.2 100.477C149.034 100.01 149.684 99.3933 150.15 98.6266C150.65 97.8266 151 96.9433 151.2 95.9766C151.4 94.9766 151.5 93.9599 151.5 92.9266C151.5 91.8933 151.4 90.8766 151.2 89.8766C151 88.8766 150.65 87.9933 150.15 87.2266C149.684 86.4599 149.034 85.8433 148.2 85.3766C147.4 84.8766 146.4 84.6266 145.2 84.6266C144 84.6266 143 84.8766 142.2 85.3766C141.4 85.8433 140.75 86.4599 140.25 87.2266C139.784 87.9933 139.45 88.8766 139.25 89.8766C139.05 90.8766 138.95 91.8933 138.95 92.9266ZM131.85 92.9266C131.85 90.8599 132.167 88.9933 132.8 87.3266C133.434 85.6266 134.334 84.1933 135.5 83.0266C136.667 81.8266 138.067 80.9099 139.7 80.2766C141.334 79.6099 143.167 79.2766 145.2 79.2766C147.234 79.2766 149.067 79.6099 150.7 80.2766C152.367 80.9099 153.784 81.8266 154.95 83.0266C156.117 84.1933 157.017 85.6266 157.65 87.3266C158.284 88.9933 158.6 90.8599 158.6 92.9266C158.6 94.9933 158.284 96.8599 157.65 98.5266C157.017 100.193 156.117 101.627 154.95 102.827C153.784 103.993 152.367 104.893 150.7 105.527C149.067 106.16 147.234 106.477 145.2 106.477C143.167 106.477 141.334 106.16 139.7 105.527C138.067 104.893 136.667 103.993 135.5 102.827C134.334 101.627 133.434 100.193 132.8 98.5266C132.167 96.8599 131.85 94.9933 131.85 92.9266ZM177.517 105.827H169.617L160.767 79.9766H168.217L173.667 97.6266H173.767L179.217 79.9766H186.267L177.517 105.827ZM188.893 87.9266C188.993 86.2599 189.41 84.8766 190.143 83.7766C190.876 82.6766 191.81 81.7933 192.943 81.1266C194.076 80.4599 195.343 79.9933 196.743 79.7266C198.176 79.4266 199.61 79.2766 201.043 79.2766C202.343 79.2766 203.66 79.3766 204.993 79.5766C206.326 79.7433 207.543 80.0933 208.643 80.6266C209.743 81.1599 210.643 81.9099 211.343 82.8766C212.043 83.8099 212.393 85.0599 212.393 86.6266V100.077C212.393 101.243 212.46 102.36 212.593 103.427C212.726 104.493 212.96 105.293 213.293 105.827H206.093C205.96 105.427 205.843 105.027 205.743 104.627C205.676 104.193 205.626 103.76 205.593 103.327C204.46 104.493 203.126 105.31 201.593 105.777C200.06 106.243 198.493 106.477 196.893 106.477C195.66 106.477 194.51 106.327 193.443 106.027C192.376 105.727 191.443 105.26 190.643 104.627C189.843 103.993 189.21 103.193 188.743 102.227C188.31 101.26 188.093 100.11 188.093 98.7766C188.093 97.3099 188.343 96.1099 188.843 95.1766C189.376 94.2099 190.043 93.4433 190.843 92.8766C191.676 92.3099 192.61 91.8933 193.643 91.6266C194.71 91.3266 195.776 91.0933 196.843 90.9266C197.91 90.7599 198.96 90.6266 199.993 90.5266C201.026 90.4266 201.943 90.2766 202.743 90.0766C203.543 89.8766 204.176 89.5933 204.643 89.2266C205.11 88.8266 205.326 88.2599 205.293 87.5266C205.293 86.7599 205.16 86.1599 204.893 85.7266C204.66 85.2599 204.326 84.9099 203.893 84.6766C203.493 84.4099 203.01 84.2433 202.443 84.1766C201.91 84.0766 201.326 84.0266 200.693 84.0266C199.293 84.0266 198.193 84.3266 197.393 84.9266C196.593 85.5266 196.126 86.5266 195.993 87.9266H188.893ZM205.293 93.1766C204.993 93.4433 204.61 93.6599 204.143 93.8266C203.71 93.9599 203.226 94.0766 202.693 94.1766C202.193 94.2766 201.66 94.3599 201.093 94.4266C200.526 94.4933 199.96 94.5766 199.393 94.6766C198.86 94.7766 198.326 94.9099 197.793 95.0766C197.293 95.2433 196.843 95.4766 196.443 95.7766C196.076 96.0433 195.776 96.3933 195.543 96.8266C195.31 97.2599 195.193 97.8099 195.193 98.4766C195.193 99.1099 195.31 99.6433 195.543 100.077C195.776 100.51 196.093 100.86 196.493 101.127C196.893 101.36 197.36 101.527 197.893 101.627C198.426 101.727 198.976 101.777 199.543 101.777C200.943 101.777 202.026 101.543 202.793 101.077C203.56 100.61 204.126 100.06 204.493 99.4266C204.86 98.7599 205.076 98.0933 205.143 97.4266C205.243 96.7599 205.293 96.2266 205.293 95.8266V93.1766ZM226.904 79.9766H232.104V84.7266H226.904V97.5266C226.904 98.7266 227.104 99.5266 227.504 99.9266C227.904 100.327 228.704 100.527 229.904 100.527C230.304 100.527 230.687 100.51 231.054 100.477C231.421 100.443 231.771 100.393 232.104 100.327V105.827C231.504 105.927 230.837 105.993 230.104 106.027C229.371 106.06 228.654 106.077 227.954 106.077C226.854 106.077 225.804 105.993 224.804 105.827C223.837 105.693 222.971 105.41 222.204 104.977C221.471 104.543 220.887 103.927 220.454 103.127C220.021 102.327 219.804 101.277 219.804 99.9766V84.7266H215.504V79.9766H219.804V72.2266H226.904V79.9766ZM242.782 75.9766H235.682V70.1266H242.782V75.9766ZM235.682 79.9766H242.782V105.827H235.682V79.9766ZM254.673 92.9266C254.673 93.9599 254.773 94.9766 254.973 95.9766C255.173 96.9433 255.506 97.8266 255.973 98.6266C256.473 99.3933 257.123 100.01 257.923 100.477C258.723 100.943 259.723 101.177 260.923 101.177C262.123 101.177 263.123 100.943 263.923 100.477C264.756 100.01 265.406 99.3933 265.873 98.6266C266.373 97.8266 266.723 96.9433 266.923 95.9766C267.123 94.9766 267.223 93.9599 267.223 92.9266C267.223 91.8933 267.123 90.8766 266.923 89.8766C266.723 88.8766 266.373 87.9933 265.873 87.2266C265.406 86.4599 264.756 85.8433 263.923 85.3766C263.123 84.8766 262.123 84.6266 260.923 84.6266C259.723 84.6266 258.723 84.8766 257.923 85.3766C257.123 85.8433 256.473 86.4599 255.973 87.2266C255.506 87.9933 255.173 88.8766 254.973 89.8766C254.773 90.8766 254.673 91.8933 254.673 92.9266ZM247.573 92.9266C247.573 90.8599 247.89 88.9933 248.523 87.3266C249.156 85.6266 250.056 84.1933 251.223 83.0266C252.39 81.8266 253.79 80.9099 255.423 80.2766C257.056 79.6099 258.89 79.2766 260.923 79.2766C262.956 79.2766 264.79 79.6099 266.423 80.2766C268.09 80.9099 269.506 81.8266 270.673 83.0266C271.84 84.1933 272.74 85.6266 273.373 87.3266C274.006 88.9933 274.323 90.8599 274.323 92.9266C274.323 94.9933 274.006 96.8599 273.373 98.5266C272.74 100.193 271.84 101.627 270.673 102.827C269.506 103.993 268.09 104.893 266.423 105.527C264.79 106.16 262.956 106.477 260.923 106.477C258.89 106.477 257.056 106.16 255.423 105.527C253.79 104.893 252.39 103.993 251.223 102.827C250.056 101.627 249.156 100.193 248.523 98.5266C247.89 96.8599 247.573 94.9933 247.573 92.9266ZM278.939 79.9766H285.689V83.5766H285.839C286.739 82.0766 287.906 80.9933 289.339 80.3266C290.773 79.6266 292.239 79.2766 293.739 79.2766C295.639 79.2766 297.189 79.5433 298.389 80.0766C299.623 80.5766 300.589 81.2933 301.289 82.2266C301.989 83.1266 302.473 84.2433 302.739 85.5766C303.039 86.8766 303.189 88.3266 303.189 89.9266V105.827H296.089V91.2266C296.089 89.0933 295.756 87.5099 295.089 86.4766C294.423 85.4099 293.239 84.8766 291.539 84.8766C289.606 84.8766 288.206 85.4599 287.339 86.6266C286.473 87.7599 286.039 89.6433 286.039 92.2766V105.827H278.939V79.9766Z" fill="white"/>
    <path d="M69.775 144.521C69.875 142.855 70.2917 141.471 71.025 140.371C71.7583 139.271 72.6917 138.388 73.825 137.721C74.9583 137.055 76.225 136.588 77.625 136.321C79.0583 136.021 80.4917 135.871 81.925 135.871C83.225 135.871 84.5417 135.971 85.875 136.171C87.2083 136.338 88.425 136.688 89.525 137.221C90.625 137.755 91.525 138.505 92.225 139.471C92.925 140.405 93.275 141.655 93.275 143.221V156.671C93.275 157.838 93.3417 158.955 93.475 160.021C93.6083 161.088 93.8417 161.888 94.175 162.421H86.975C86.8417 162.021 86.725 161.621 86.625 161.221C86.5583 160.788 86.5083 160.355 86.475 159.921C85.3417 161.088 84.0083 161.905 82.475 162.371C80.9417 162.838 79.375 163.071 77.775 163.071C76.5417 163.071 75.3917 162.921 74.325 162.621C73.2583 162.321 72.325 161.855 71.525 161.221C70.725 160.588 70.0917 159.788 69.625 158.821C69.1917 157.855 68.975 156.705 68.975 155.371C68.975 153.905 69.225 152.705 69.725 151.771C70.2583 150.805 70.925 150.038 71.725 149.471C72.5583 148.905 73.4917 148.488 74.525 148.221C75.5917 147.921 76.6583 147.688 77.725 147.521C78.7917 147.355 79.8417 147.221 80.875 147.121C81.9083 147.021 82.825 146.871 83.625 146.671C84.425 146.471 85.0583 146.188 85.525 145.821C85.9917 145.421 86.2083 144.855 86.175 144.121C86.175 143.355 86.0417 142.755 85.775 142.321C85.5417 141.855 85.2083 141.505 84.775 141.271C84.375 141.005 83.8917 140.838 83.325 140.771C82.7917 140.671 82.2083 140.621 81.575 140.621C80.175 140.621 79.075 140.921 78.275 141.521C77.475 142.121 77.0083 143.121 76.875 144.521H69.775ZM86.175 149.771C85.875 150.038 85.4917 150.255 85.025 150.421C84.5917 150.555 84.1083 150.671 83.575 150.771C83.075 150.871 82.5417 150.955 81.975 151.021C81.4083 151.088 80.8417 151.171 80.275 151.271C79.7417 151.371 79.2083 151.505 78.675 151.671C78.175 151.838 77.725 152.071 77.325 152.371C76.9583 152.638 76.6583 152.988 76.425 153.421C76.1917 153.855 76.075 154.405 76.075 155.071C76.075 155.705 76.1917 156.238 76.425 156.671C76.6583 157.105 76.975 157.455 77.375 157.721C77.775 157.955 78.2417 158.121 78.775 158.221C79.3083 158.321 79.8583 158.371 80.425 158.371C81.825 158.371 82.9083 158.138 83.675 157.671C84.4417 157.205 85.0083 156.655 85.375 156.021C85.7417 155.355 85.9583 154.688 86.025 154.021C86.125 153.355 86.175 152.821 86.175 152.421V149.771ZM98.7859 136.571H105.536V140.171H105.686C106.586 138.671 107.753 137.588 109.186 136.921C110.619 136.221 112.086 135.871 113.586 135.871C115.486 135.871 117.036 136.138 118.236 136.671C119.469 137.171 120.436 137.888 121.136 138.821C121.836 139.721 122.319 140.838 122.586 142.171C122.886 143.471 123.036 144.921 123.036 146.521V162.421H115.936V147.821C115.936 145.688 115.603 144.105 114.936 143.071C114.269 142.005 113.086 141.471 111.386 141.471C109.453 141.471 108.053 142.055 107.186 143.221C106.319 144.355 105.886 146.238 105.886 148.871V162.421H98.7859V136.571ZM146.775 149.421C146.775 148.355 146.675 147.338 146.475 146.371C146.275 145.371 145.925 144.505 145.425 143.771C144.958 143.005 144.341 142.388 143.575 141.921C142.808 141.455 141.841 141.221 140.675 141.221C139.508 141.221 138.525 141.455 137.725 141.921C136.925 142.388 136.275 143.005 135.775 143.771C135.308 144.538 134.958 145.421 134.725 146.421C134.525 147.388 134.425 148.405 134.425 149.471C134.425 150.471 134.541 151.471 134.775 152.471C135.008 153.471 135.375 154.371 135.875 155.171C136.408 155.938 137.058 156.571 137.825 157.071C138.625 157.538 139.575 157.771 140.675 157.771C141.841 157.771 142.808 157.538 143.575 157.071C144.375 156.605 145.008 155.988 145.475 155.221C145.941 154.421 146.275 153.521 146.475 152.521C146.675 151.521 146.775 150.488 146.775 149.421ZM146.875 159.121H146.775C145.941 160.521 144.841 161.538 143.475 162.171C142.141 162.771 140.625 163.071 138.925 163.071C136.991 163.071 135.291 162.705 133.825 161.971C132.358 161.205 131.141 160.188 130.175 158.921C129.241 157.621 128.525 156.138 128.025 154.471C127.558 152.805 127.325 151.071 127.325 149.271C127.325 147.538 127.558 145.871 128.025 144.271C128.525 142.638 129.241 141.205 130.175 139.971C131.141 138.738 132.341 137.755 133.775 137.021C135.208 136.255 136.875 135.871 138.775 135.871C140.308 135.871 141.758 136.205 143.125 136.871C144.525 137.505 145.625 138.455 146.425 139.721H146.525V126.721H153.625V162.421H146.875V159.121ZM203.957 148.921C203.957 153.755 202.607 157.355 199.907 159.721C197.207 162.055 193.474 163.221 188.707 163.221C183.874 163.221 180.124 162.055 177.457 159.721C174.824 157.388 173.507 153.788 173.507 148.921V126.721H181.357V148.921C181.357 149.888 181.44 150.838 181.607 151.771C181.774 152.705 182.124 153.538 182.657 154.271C183.19 154.971 183.924 155.555 184.857 156.021C185.824 156.455 187.107 156.671 188.707 156.671C191.507 156.671 193.44 156.055 194.507 154.821C195.574 153.555 196.107 151.588 196.107 148.921V126.721H203.957V148.921ZM209.968 136.571H216.718V140.171H216.868C217.768 138.671 218.934 137.588 220.368 136.921C221.801 136.221 223.268 135.871 224.768 135.871C226.668 135.871 228.218 136.138 229.418 136.671C230.651 137.171 231.618 137.888 232.318 138.821C233.018 139.721 233.501 140.838 233.768 142.171C234.068 143.471 234.218 144.921 234.218 146.521V162.421H227.118V147.821C227.118 145.688 226.784 144.105 226.118 143.071C225.451 142.005 224.268 141.471 222.568 141.471C220.634 141.471 219.234 142.055 218.368 143.221C217.501 144.355 217.068 146.238 217.068 148.871V162.421H209.968V136.571ZM246.906 132.571H239.806V126.721H246.906V132.571ZM239.806 136.571H246.906V162.421H239.806V136.571ZM261.497 136.571H266.697V141.321H261.497V154.121C261.497 155.321 261.697 156.121 262.097 156.521C262.497 156.921 263.297 157.121 264.497 157.121C264.897 157.121 265.28 157.105 265.647 157.071C266.014 157.038 266.364 156.988 266.697 156.921V162.421C266.097 162.521 265.43 162.588 264.697 162.621C263.964 162.655 263.247 162.671 262.547 162.671C261.447 162.671 260.397 162.588 259.397 162.421C258.43 162.288 257.564 162.005 256.797 161.571C256.064 161.138 255.48 160.521 255.047 159.721C254.614 158.921 254.397 157.871 254.397 156.571V141.321H250.097V136.571H254.397V128.821H261.497V136.571ZM282.825 165.621C282.058 167.721 280.992 169.221 279.625 170.121C278.258 171.021 276.358 171.471 273.925 171.471C273.192 171.471 272.458 171.438 271.725 171.371C271.025 171.338 270.308 171.288 269.575 171.221V165.371C270.242 165.438 270.925 165.505 271.625 165.571C272.325 165.638 273.025 165.655 273.725 165.621C274.658 165.521 275.342 165.155 275.775 164.521C276.242 163.888 276.475 163.188 276.475 162.421C276.475 161.855 276.375 161.321 276.175 160.821L267.125 136.571H274.675L280.525 154.271H280.625L286.275 136.571H293.625L282.825 165.621Z" fill="white"/>
    <path d="M166.249 180.495H169.399V185.545H166.249V180.495ZM166.249 190.395H169.399V216.195H166.249V190.395ZM175.378 190.395H178.528V194.845H178.628C179.228 193.278 180.294 192.028 181.828 191.095C183.361 190.128 185.044 189.645 186.878 189.645C188.678 189.645 190.178 189.878 191.378 190.345C192.611 190.812 193.594 191.478 194.328 192.345C195.061 193.178 195.578 194.212 195.878 195.445C196.178 196.678 196.328 198.062 196.328 199.595V216.195H193.178V200.095C193.178 198.995 193.078 197.978 192.878 197.045C192.678 196.078 192.328 195.245 191.828 194.545C191.328 193.845 190.644 193.295 189.778 192.895C188.944 192.495 187.894 192.295 186.628 192.295C185.361 192.295 184.228 192.528 183.228 192.995C182.261 193.428 181.428 194.045 180.728 194.845C180.061 195.612 179.528 196.545 179.128 197.645C178.761 198.712 178.561 199.878 178.528 201.145V216.195H175.378V190.395Z" fill="white"/>
    <path d="M4.02773 236.197H7.42773V268.997H27.4277V271.897H4.02773V236.197ZM30.3332 236.197H33.4832V241.247H30.3332V236.197ZM30.3332 246.097H33.4832V271.897H30.3332V246.097ZM49.4617 248.747H44.3617V271.897H41.2117V248.747H36.8117V246.097H41.2117V243.747C41.2117 242.647 41.2951 241.631 41.4617 240.697C41.6284 239.764 41.9451 238.964 42.4117 238.297C42.8784 237.631 43.5117 237.114 44.3117 236.747C45.1451 236.381 46.1951 236.197 47.4617 236.197C47.9284 236.197 48.3617 236.214 48.7617 236.247C49.1617 236.281 49.6117 236.331 50.1117 236.397V239.097C49.6784 239.031 49.2784 238.981 48.9117 238.947C48.5451 238.881 48.1784 238.847 47.8117 238.847C46.9451 238.847 46.2784 238.981 45.8117 239.247C45.3451 239.514 44.9951 239.881 44.7617 240.347C44.5617 240.781 44.4451 241.297 44.4117 241.897C44.3784 242.497 44.3617 243.147 44.3617 243.847V246.097H49.4617V248.747ZM71.0012 257.197C70.9678 255.997 70.7512 254.847 70.3512 253.747C69.9845 252.647 69.4512 251.681 68.7512 250.847C68.0512 249.981 67.2012 249.297 66.2012 248.797C65.2012 248.264 64.0678 247.997 62.8012 247.997C61.5012 247.997 60.3512 248.264 59.3512 248.797C58.3512 249.297 57.5012 249.981 56.8012 250.847C56.1012 251.681 55.5345 252.664 55.1012 253.797C54.7012 254.897 54.4345 256.031 54.3012 257.197H71.0012ZM54.3012 259.847C54.3012 260.981 54.4512 262.164 54.7512 263.397C55.0845 264.597 55.6012 265.681 56.3012 266.647C57.0012 267.614 57.8845 268.414 58.9512 269.047C60.0178 269.681 61.3012 269.997 62.8012 269.997C65.1012 269.997 66.9012 269.397 68.2012 268.197C69.5012 266.997 70.4012 265.397 70.9012 263.397H74.0512C73.3845 266.331 72.1512 268.597 70.3512 270.197C68.5845 271.797 66.0678 272.597 62.8012 272.597C60.7678 272.597 59.0012 272.247 57.5012 271.547C56.0345 270.814 54.8345 269.831 53.9012 268.597C52.9678 267.331 52.2678 265.881 51.8012 264.247C51.3678 262.581 51.1512 260.831 51.1512 258.997C51.1512 257.297 51.3678 255.631 51.8012 253.997C52.2678 252.364 52.9678 250.914 53.9012 249.647C54.8345 248.347 56.0345 247.314 57.5012 246.547C59.0012 245.747 60.7678 245.347 62.8012 245.347C64.8678 245.347 66.6345 245.764 68.1012 246.597C69.5678 247.431 70.7512 248.531 71.6512 249.897C72.5845 251.231 73.2512 252.781 73.6512 254.547C74.0512 256.281 74.2178 258.047 74.1512 259.847H54.3012ZM92.5449 236.197H95.9449V258.297C95.9449 260.364 96.1783 262.131 96.6449 263.597C97.1116 265.031 97.7949 266.214 98.6949 267.147C99.5949 268.047 100.695 268.714 101.995 269.147C103.295 269.547 104.762 269.747 106.395 269.747C108.062 269.747 109.545 269.547 110.845 269.147C112.145 268.714 113.245 268.047 114.145 267.147C115.045 266.214 115.728 265.031 116.195 263.597C116.662 262.131 116.895 260.364 116.895 258.297V236.197H120.295V259.047C120.295 260.881 120.028 262.631 119.495 264.297C118.995 265.931 118.178 267.364 117.045 268.597C115.945 269.831 114.512 270.814 112.745 271.547C111.012 272.247 108.895 272.597 106.395 272.597C103.928 272.597 101.812 272.247 100.045 271.547C98.3116 270.814 96.8783 269.831 95.7449 268.597C94.6449 267.364 93.8283 265.931 93.2949 264.297C92.7949 262.631 92.5449 260.881 92.5449 259.047V236.197ZM126.473 246.097H129.623V250.547H129.723C130.323 248.981 131.39 247.731 132.923 246.797C134.457 245.831 136.14 245.347 137.973 245.347C139.773 245.347 141.273 245.581 142.473 246.047C143.707 246.514 144.69 247.181 145.423 248.047C146.157 248.881 146.673 249.914 146.973 251.147C147.273 252.381 147.423 253.764 147.423 255.297V271.897H144.273V255.797C144.273 254.697 144.173 253.681 143.973 252.747C143.773 251.781 143.423 250.947 142.923 250.247C142.423 249.547 141.74 248.997 140.873 248.597C140.04 248.197 138.99 247.997 137.723 247.997C136.457 247.997 135.323 248.231 134.323 248.697C133.357 249.131 132.523 249.747 131.823 250.547C131.157 251.314 130.623 252.247 130.223 253.347C129.857 254.414 129.657 255.581 129.623 256.847V271.897H126.473V246.097ZM176.079 271.897H173.179V266.997H173.079C172.746 267.831 172.246 268.597 171.579 269.297C170.946 269.997 170.212 270.597 169.379 271.097C168.546 271.564 167.646 271.931 166.679 272.197C165.746 272.464 164.812 272.597 163.879 272.597C161.912 272.597 160.196 272.247 158.729 271.547C157.296 270.814 156.096 269.831 155.129 268.597C154.162 267.331 153.446 265.881 152.979 264.247C152.512 262.581 152.279 260.831 152.279 258.997C152.279 257.164 152.512 255.431 152.979 253.797C153.446 252.131 154.162 250.681 155.129 249.447C156.096 248.181 157.296 247.181 158.729 246.447C160.196 245.714 161.912 245.347 163.879 245.347C164.846 245.347 165.779 245.464 166.679 245.697C167.612 245.931 168.479 246.297 169.279 246.797C170.079 247.264 170.779 247.847 171.379 248.547C172.012 249.247 172.496 250.064 172.829 250.997H172.929V236.197H176.079V271.897ZM155.429 258.997C155.429 260.331 155.579 261.664 155.879 262.997C156.212 264.297 156.712 265.464 157.379 266.497C158.079 267.531 158.962 268.381 160.029 269.047C161.096 269.681 162.379 269.997 163.879 269.997C165.546 269.997 166.946 269.681 168.079 269.047C169.246 268.381 170.179 267.531 170.879 266.497C171.612 265.464 172.129 264.297 172.429 262.997C172.762 261.664 172.929 260.331 172.929 258.997C172.929 257.664 172.762 256.347 172.429 255.047C172.129 253.714 171.612 252.531 170.879 251.497C170.179 250.464 169.246 249.631 168.079 248.997C166.946 248.331 165.546 247.997 163.879 247.997C162.379 247.997 161.096 248.331 160.029 248.997C158.962 249.631 158.079 250.464 157.379 251.497C156.712 252.531 156.212 253.714 155.879 255.047C155.579 256.347 155.429 257.664 155.429 258.997ZM200.64 257.197C200.607 255.997 200.39 254.847 199.99 253.747C199.623 252.647 199.09 251.681 198.39 250.847C197.69 249.981 196.84 249.297 195.84 248.797C194.84 248.264 193.707 247.997 192.44 247.997C191.14 247.997 189.99 248.264 188.99 248.797C187.99 249.297 187.14 249.981 186.44 250.847C185.74 251.681 185.173 252.664 184.74 253.797C184.34 254.897 184.073 256.031 183.94 257.197H200.64ZM183.94 259.847C183.94 260.981 184.09 262.164 184.39 263.397C184.723 264.597 185.24 265.681 185.94 266.647C186.64 267.614 187.523 268.414 188.59 269.047C189.657 269.681 190.94 269.997 192.44 269.997C194.74 269.997 196.54 269.397 197.84 268.197C199.14 266.997 200.04 265.397 200.54 263.397H203.69C203.023 266.331 201.79 268.597 199.99 270.197C198.223 271.797 195.707 272.597 192.44 272.597C190.407 272.597 188.64 272.247 187.14 271.547C185.673 270.814 184.473 269.831 183.54 268.597C182.607 267.331 181.907 265.881 181.44 264.247C181.007 262.581 180.79 260.831 180.79 258.997C180.79 257.297 181.007 255.631 181.44 253.997C181.907 252.364 182.607 250.914 183.54 249.647C184.473 248.347 185.673 247.314 187.14 246.547C188.64 245.747 190.407 245.347 192.44 245.347C194.507 245.347 196.273 245.764 197.74 246.597C199.207 247.431 200.39 248.531 201.29 249.897C202.223 251.231 202.89 252.781 203.29 254.547C203.69 256.281 203.857 258.047 203.79 259.847H183.94ZM208.018 246.097H210.918V252.147H211.018C211.818 250.047 213.051 248.431 214.718 247.297C216.418 246.164 218.434 245.647 220.768 245.747V248.897C219.334 248.831 218.034 249.031 216.868 249.497C215.701 249.931 214.684 250.564 213.818 251.397C212.984 252.231 212.334 253.231 211.868 254.397C211.401 255.531 211.168 256.781 211.168 258.147V271.897H208.018V246.097ZM221.189 246.097H224.539L231.139 268.197H231.239L237.539 246.097H241.089L247.389 268.197H247.489L254.089 246.097H257.439L249.139 271.897H245.689L239.339 250.197H239.239L232.939 271.897H229.489L221.189 246.097ZM260.85 246.097H263.75V252.147H263.85C264.65 250.047 265.883 248.431 267.55 247.297C269.25 246.164 271.266 245.647 273.6 245.747V248.897C272.166 248.831 270.866 249.031 269.7 249.497C268.533 249.931 267.516 250.564 266.65 251.397C265.816 252.231 265.166 253.231 264.7 254.397C264.233 255.531 264 256.781 264 258.147V271.897H260.85V246.097ZM276.671 236.197H279.821V241.247H276.671V236.197ZM276.671 246.097H279.821V271.897H276.671V246.097ZM290.85 246.097H296.1V248.747H290.85V266.147C290.85 267.181 290.983 267.997 291.25 268.597C291.55 269.164 292.266 269.481 293.4 269.547C294.3 269.547 295.2 269.497 296.1 269.397V272.047C295.633 272.047 295.166 272.064 294.7 272.097C294.233 272.131 293.766 272.147 293.3 272.147C291.2 272.147 289.733 271.747 288.9 270.947C288.066 270.114 287.666 268.597 287.7 266.397V248.747H283.2V246.097H287.7V238.347H290.85V246.097ZM300.695 236.197H303.845V241.247H300.695V236.197ZM300.695 246.097H303.845V271.897H300.695V246.097ZM309.823 246.097H312.973V250.547H313.073C313.673 248.981 314.74 247.731 316.273 246.797C317.806 245.831 319.49 245.347 321.323 245.347C323.123 245.347 324.623 245.581 325.823 246.047C327.056 246.514 328.04 247.181 328.773 248.047C329.506 248.881 330.023 249.914 330.323 251.147C330.623 252.381 330.773 253.764 330.773 255.297V271.897H327.623V255.797C327.623 254.697 327.523 253.681 327.323 252.747C327.123 251.781 326.773 250.947 326.273 250.247C325.773 249.547 325.09 248.997 324.223 248.597C323.39 248.197 322.34 247.997 321.073 247.997C319.806 247.997 318.673 248.231 317.673 248.697C316.706 249.131 315.873 249.747 315.173 250.547C314.506 251.314 313.973 252.247 313.573 253.347C313.206 254.414 313.006 255.581 312.973 256.847V271.897H309.823V246.097ZM358.529 269.797C358.529 271.697 358.312 273.414 357.879 274.947C357.479 276.481 356.829 277.781 355.929 278.847C355.029 279.914 353.845 280.731 352.379 281.297C350.945 281.864 349.179 282.147 347.079 282.147C345.779 282.147 344.512 281.997 343.279 281.697C342.045 281.397 340.929 280.931 339.929 280.297C338.962 279.664 338.145 278.847 337.479 277.847C336.845 276.881 336.479 275.714 336.379 274.347H339.529C339.695 275.314 340.012 276.114 340.479 276.747C340.979 277.414 341.562 277.947 342.229 278.347C342.929 278.747 343.695 279.031 344.529 279.197C345.362 279.397 346.212 279.497 347.079 279.497C350.012 279.497 352.129 278.664 353.429 276.997C354.729 275.331 355.379 272.931 355.379 269.797V266.297H355.279C354.545 267.897 353.462 269.181 352.029 270.147C350.629 271.114 348.979 271.597 347.079 271.597C345.012 271.597 343.245 271.264 341.779 270.597C340.312 269.897 339.095 268.947 338.129 267.747C337.195 266.547 336.512 265.147 336.079 263.547C335.645 261.914 335.429 260.181 335.429 258.347C335.429 256.581 335.679 254.914 336.179 253.347C336.712 251.747 337.462 250.364 338.429 249.197C339.429 247.997 340.645 247.064 342.079 246.397C343.545 245.697 345.212 245.347 347.079 245.347C348.045 245.347 348.945 245.481 349.779 245.747C350.645 246.014 351.429 246.397 352.129 246.897C352.829 247.364 353.445 247.914 353.979 248.547C354.545 249.181 354.979 249.847 355.279 250.547H355.379V246.097H358.529V269.797ZM347.079 268.947C348.445 268.947 349.645 268.664 350.679 268.097C351.712 267.497 352.579 266.731 353.279 265.797C353.979 264.831 354.495 263.731 354.829 262.497C355.195 261.264 355.379 259.997 355.379 258.697C355.379 257.431 355.229 256.164 354.929 254.897C354.629 253.631 354.145 252.481 353.479 251.447C352.812 250.414 351.945 249.581 350.879 248.947C349.845 248.314 348.579 247.997 347.079 247.997C345.579 247.997 344.295 248.314 343.229 248.947C342.162 249.547 341.279 250.347 340.579 251.347C339.879 252.347 339.362 253.497 339.029 254.797C338.729 256.064 338.579 257.364 338.579 258.697C338.579 259.997 338.745 261.264 339.079 262.497C339.412 263.731 339.929 264.831 340.629 265.797C341.329 266.731 342.212 267.497 343.279 268.097C344.345 268.664 345.612 268.947 347.079 268.947Z" fill="white"/>
</svg>
