<svg width="383" height="232" viewBox="0 0 383 232" fill="none" xmlns="http://www.w3.org/2000/svg">
    <path d="M112.429 13.5711H124.779C130.212 13.7044 134.296 15.2378 137.029 18.1711C139.796 21.0711 141.179 25.4878 141.179 31.4211C141.179 37.3545 139.796 41.7878 137.029 44.7211C134.296 47.6211 130.212 49.1378 124.779 49.2711H112.429V13.5711ZM115.829 46.3711H123.079C125.646 46.3711 127.846 46.1045 129.679 45.5711C131.546 45.0045 133.079 44.1211 134.279 42.9211C135.479 41.7211 136.362 40.1711 136.929 38.2711C137.496 36.3711 137.779 34.0878 137.779 31.4211C137.779 28.7545 137.496 26.4711 136.929 24.5711C136.362 22.6711 135.479 21.1211 134.279 19.9211C133.079 18.7211 131.546 17.8544 129.679 17.3211C127.846 16.7544 125.646 16.4711 123.079 16.4711H115.829V46.3711ZM146.058 23.4711H148.958V29.5211H149.058C149.858 27.4211 151.091 25.8045 152.758 24.6711C154.458 23.5378 156.474 23.0211 158.808 23.1211V26.2711C157.374 26.2045 156.074 26.4045 154.908 26.8711C153.741 27.3045 152.724 27.9378 151.858 28.7711C151.024 29.6045 150.374 30.6045 149.908 31.7711C149.441 32.9045 149.208 34.1545 149.208 35.5211V49.2711H146.058V23.4711ZM161.879 13.5711H165.029V18.6211H161.879V13.5711ZM161.879 23.4711H165.029V49.2711H161.879V23.4711ZM168.158 23.4711H171.658L179.758 46.1211H179.858L187.858 23.4711H191.108L181.458 49.2711H178.108L168.158 23.4711ZM194.252 13.5711H197.402V18.6211H194.252V13.5711ZM194.252 23.4711H197.402V49.2711H194.252V23.4711ZM203.381 23.4711H206.531V27.9211H206.631C207.231 26.3545 208.297 25.1044 209.831 24.1711C211.364 23.2045 213.047 22.7211 214.881 22.7211C216.681 22.7211 218.181 22.9545 219.381 23.4211C220.614 23.8878 221.597 24.5545 222.331 25.4211C223.064 26.2545 223.581 27.2878 223.881 28.5211C224.181 29.7545 224.331 31.1378 224.331 32.6711V49.2711H221.181V33.1711C221.181 32.0711 221.081 31.0545 220.881 30.1211C220.681 29.1545 220.331 28.3211 219.831 27.6211C219.331 26.9211 218.647 26.3711 217.781 25.9711C216.947 25.5711 215.897 25.3711 214.631 25.3711C213.364 25.3711 212.231 25.6045 211.231 26.0711C210.264 26.5045 209.431 27.1211 208.731 27.9211C208.064 28.6878 207.531 29.6211 207.131 30.7211C206.764 31.7878 206.564 32.9545 206.531 34.2211V49.2711H203.381V23.4711ZM252.086 47.1711C252.086 49.0711 251.869 50.7878 251.436 52.3211C251.036 53.8545 250.386 55.1545 249.486 56.2211C248.586 57.2878 247.403 58.1045 245.936 58.6711C244.503 59.2378 242.736 59.5211 240.636 59.5211C239.336 59.5211 238.069 59.3711 236.836 59.0711C235.603 58.7711 234.486 58.3045 233.486 57.6711C232.519 57.0378 231.703 56.2211 231.036 55.2211C230.403 54.2545 230.036 53.0878 229.936 51.7211H233.086C233.253 52.6878 233.569 53.4878 234.036 54.1211C234.536 54.7878 235.119 55.3211 235.786 55.7211C236.486 56.1211 237.253 56.4045 238.086 56.5711C238.919 56.7711 239.769 56.8711 240.636 56.8711C243.569 56.8711 245.686 56.0378 246.986 54.3711C248.286 52.7045 248.936 50.3045 248.936 47.1711V43.6711H248.836C248.103 45.2711 247.019 46.5545 245.586 47.5211C244.186 48.4878 242.536 48.9711 240.636 48.9711C238.569 48.9711 236.803 48.6378 235.336 47.9711C233.869 47.2711 232.653 46.3211 231.686 45.1211C230.753 43.9211 230.069 42.5211 229.636 40.9211C229.203 39.2878 228.986 37.5545 228.986 35.7211C228.986 33.9545 229.236 32.2878 229.736 30.7211C230.269 29.1211 231.019 27.7378 231.986 26.5711C232.986 25.3711 234.203 24.4378 235.636 23.7711C237.103 23.0711 238.769 22.7211 240.636 22.7211C241.603 22.7211 242.503 22.8545 243.336 23.1211C244.203 23.3878 244.986 23.7711 245.686 24.2711C246.386 24.7378 247.003 25.2878 247.536 25.9211C248.103 26.5545 248.536 27.2211 248.836 27.9211H248.936V23.4711H252.086V47.1711ZM240.636 46.3211C242.003 46.3211 243.203 46.0378 244.236 45.4711C245.269 44.8711 246.136 44.1045 246.836 43.1711C247.536 42.2045 248.053 41.1045 248.386 39.8711C248.753 38.6378 248.936 37.3711 248.936 36.0711C248.936 34.8045 248.786 33.5378 248.486 32.2711C248.186 31.0045 247.703 29.8545 247.036 28.8211C246.369 27.7878 245.503 26.9545 244.436 26.3211C243.403 25.6878 242.136 25.3711 240.636 25.3711C239.136 25.3711 237.853 25.6878 236.786 26.3211C235.719 26.9211 234.836 27.7211 234.136 28.7211C233.436 29.7211 232.919 30.8711 232.586 32.1711C232.286 33.4378 232.136 34.7378 232.136 36.0711C232.136 37.3711 232.303 38.6378 232.636 39.8711C232.969 41.1045 233.486 42.2045 234.186 43.1711C234.886 44.1045 235.769 44.8711 236.836 45.4711C237.903 46.0378 239.169 46.3211 240.636 46.3211Z" fill="white"/>
    <path d="M12.2287 86.7091H18.3287C19.2287 86.7091 20.0954 86.6425 20.9287 86.5091C21.762 86.3758 22.4954 86.1258 23.1287 85.7591C23.762 85.3591 24.262 84.8091 24.6287 84.1091C25.0287 83.4091 25.2287 82.4925 25.2287 81.3591C25.2287 80.2258 25.0287 79.3091 24.6287 78.6091C24.262 77.9091 23.762 77.3758 23.1287 77.0091C22.4954 76.6091 21.762 76.3425 20.9287 76.2091C20.0954 76.0758 19.2287 76.0091 18.3287 76.0091H12.2287V86.7091ZM4.37871 69.9091H20.4787C22.712 69.9091 24.612 70.2425 26.1787 70.9091C27.7454 71.5425 29.012 72.3925 29.9787 73.4591C30.9787 74.5258 31.6954 75.7425 32.1287 77.1091C32.5954 78.4758 32.8287 79.8925 32.8287 81.3591C32.8287 82.7925 32.5954 84.2091 32.1287 85.6091C31.6954 86.9758 30.9787 88.1925 29.9787 89.2591C29.012 90.3258 27.7454 91.1925 26.1787 91.8591C24.612 92.4925 22.712 92.8091 20.4787 92.8091H12.2287V105.609H4.37871V69.9091ZM36.9783 79.7591H43.7283V84.5591H43.8283C44.1617 83.7591 44.6117 83.0258 45.1783 82.3591C45.745 81.6591 46.395 81.0758 47.1283 80.6091C47.8617 80.1091 48.645 79.7258 49.4783 79.4591C50.3117 79.1925 51.1783 79.0591 52.0783 79.0591C52.545 79.0591 53.0617 79.1425 53.6283 79.3091V85.9091C53.295 85.8425 52.895 85.7925 52.4283 85.7591C51.9617 85.6925 51.5117 85.6591 51.0783 85.6591C49.7783 85.6591 48.6783 85.8758 47.7783 86.3091C46.8783 86.7425 46.145 87.3425 45.5783 88.1091C45.045 88.8425 44.6617 89.7091 44.4283 90.7091C44.195 91.7091 44.0783 92.7925 44.0783 93.9591V105.609H36.9783V79.7591ZM61.833 92.7091C61.833 93.7425 61.933 94.7591 62.133 95.7591C62.333 96.7258 62.6663 97.6091 63.133 98.4091C63.633 99.1758 64.283 99.7925 65.083 100.259C65.883 100.726 66.883 100.959 68.083 100.959C69.283 100.959 70.283 100.726 71.083 100.259C71.9163 99.7925 72.5663 99.1758 73.033 98.4091C73.533 97.6091 73.883 96.7258 74.083 95.7591C74.283 94.7591 74.383 93.7425 74.383 92.7091C74.383 91.6758 74.283 90.6591 74.083 89.6591C73.883 88.6591 73.533 87.7758 73.033 87.0091C72.5663 86.2425 71.9163 85.6258 71.083 85.1591C70.283 84.6591 69.283 84.4091 68.083 84.4091C66.883 84.4091 65.883 84.6591 65.083 85.1591C64.283 85.6258 63.633 86.2425 63.133 87.0091C62.6663 87.7758 62.333 88.6591 62.133 89.6591C61.933 90.6591 61.833 91.6758 61.833 92.7091ZM54.733 92.7091C54.733 90.6425 55.0497 88.7758 55.683 87.1091C56.3163 85.4091 57.2163 83.9758 58.383 82.8091C59.5497 81.6091 60.9497 80.6925 62.583 80.0591C64.2163 79.3925 66.0497 79.0591 68.083 79.0591C70.1163 79.0591 71.9497 79.3925 73.583 80.0591C75.2497 80.6925 76.6663 81.6091 77.833 82.8091C78.9997 83.9758 79.8997 85.4091 80.533 87.1091C81.1663 88.7758 81.483 90.6425 81.483 92.7091C81.483 94.7758 81.1663 96.6425 80.533 98.3091C79.8997 99.9758 78.9997 101.409 77.833 102.609C76.6663 103.776 75.2497 104.676 73.583 105.309C71.9497 105.942 70.1163 106.259 68.083 106.259C66.0497 106.259 64.2163 105.942 62.583 105.309C60.9497 104.676 59.5497 103.776 58.383 102.609C57.2163 101.409 56.3163 99.9758 55.683 98.3091C55.0497 96.6425 54.733 94.7758 54.733 92.7091ZM87.6494 84.5091H83.3994V79.7591H87.6494V77.7591C87.6494 75.4591 88.3661 73.5758 89.7994 72.1091C91.2327 70.6425 93.3994 69.9091 96.2994 69.9091C96.9327 69.9091 97.5661 69.9425 98.1994 70.0091C98.8327 70.0425 99.4494 70.0758 100.049 70.1091V75.4091C99.2161 75.3091 98.3494 75.2591 97.4494 75.2591C96.4827 75.2591 95.7827 75.4925 95.3494 75.9591C94.9494 76.3925 94.7494 77.1425 94.7494 78.2091V79.7591H99.6494V84.5091H94.7494V105.609H87.6494V84.5091ZM120.15 89.9091C119.816 88.1091 119.216 86.7425 118.35 85.8091C117.516 84.8758 116.233 84.4091 114.5 84.4091C113.366 84.4091 112.416 84.6091 111.65 85.0091C110.916 85.3758 110.316 85.8425 109.85 86.4091C109.416 86.9758 109.1 87.5758 108.9 88.2091C108.733 88.8425 108.633 89.4091 108.6 89.9091H120.15ZM108.6 94.4091C108.7 96.7091 109.283 98.3758 110.35 99.4091C111.416 100.442 112.95 100.959 114.95 100.959C116.383 100.959 117.616 100.609 118.65 99.9091C119.683 99.1758 120.316 98.4091 120.55 97.6091H126.8C125.8 100.709 124.266 102.926 122.2 104.259C120.133 105.592 117.633 106.259 114.7 106.259C112.666 106.259 110.833 105.942 109.2 105.309C107.566 104.642 106.183 103.709 105.05 102.509C103.916 101.309 103.033 99.8758 102.4 98.2091C101.8 96.5425 101.5 94.7091 101.5 92.7091C101.5 90.7758 101.816 88.9758 102.45 87.3091C103.083 85.6425 103.983 84.2091 105.15 83.0091C106.316 81.7758 107.7 80.8091 109.3 80.1091C110.933 79.4091 112.733 79.0591 114.7 79.0591C116.9 79.0591 118.816 79.4925 120.45 80.3591C122.083 81.1925 123.416 82.3258 124.45 83.7591C125.516 85.1925 126.283 86.8258 126.75 88.6591C127.216 90.4925 127.383 92.4091 127.25 94.4091H108.6ZM136.961 97.2091C136.961 97.9758 137.111 98.6425 137.411 99.2091C137.744 99.7425 138.161 100.192 138.661 100.559C139.161 100.892 139.727 101.142 140.361 101.309C141.027 101.476 141.711 101.559 142.411 101.559C142.911 101.559 143.427 101.509 143.961 101.409C144.527 101.276 145.027 101.092 145.461 100.859C145.927 100.592 146.311 100.259 146.611 99.8591C146.911 99.4258 147.061 98.8925 147.061 98.2591C147.061 97.1925 146.344 96.3925 144.911 95.8591C143.511 95.3258 141.544 94.7925 139.011 94.2591C137.977 94.0258 136.961 93.7591 135.961 93.4591C134.994 93.1258 134.127 92.7091 133.361 92.2091C132.594 91.6758 131.977 91.0258 131.511 90.2591C131.044 89.4591 130.811 88.4925 130.811 87.3591C130.811 85.6925 131.127 84.3258 131.761 83.2591C132.427 82.1925 133.294 81.3591 134.361 80.7591C135.427 80.1258 136.627 79.6925 137.961 79.4591C139.294 79.1925 140.661 79.0591 142.061 79.0591C143.461 79.0591 144.811 79.1925 146.111 79.4591C147.444 79.7258 148.627 80.1758 149.661 80.8091C150.694 81.4425 151.544 82.2925 152.211 83.3591C152.911 84.3925 153.327 85.7091 153.461 87.3091H146.711C146.611 85.9425 146.094 85.0258 145.161 84.5591C144.227 84.0591 143.127 83.8091 141.861 83.8091C141.461 83.8091 141.027 83.8425 140.561 83.9091C140.094 83.9425 139.661 84.0425 139.261 84.2091C138.894 84.3758 138.577 84.6258 138.311 84.9591C138.044 85.2591 137.911 85.6758 137.911 86.2091C137.911 86.8425 138.144 87.3591 138.611 87.7591C139.077 88.1591 139.677 88.4925 140.411 88.7591C141.177 88.9925 142.044 89.2091 143.011 89.4091C143.977 89.6091 144.961 89.8258 145.961 90.0591C146.994 90.2925 147.994 90.5758 148.961 90.9091C149.961 91.2425 150.844 91.6925 151.611 92.2591C152.377 92.7925 152.994 93.4758 153.461 94.3091C153.927 95.1091 154.161 96.1091 154.161 97.3091C154.161 99.0091 153.811 100.442 153.111 101.609C152.444 102.742 151.561 103.659 150.461 104.359C149.361 105.059 148.094 105.542 146.661 105.809C145.261 106.109 143.827 106.259 142.361 106.259C140.861 106.259 139.394 106.109 137.961 105.809C136.527 105.509 135.244 105.009 134.111 104.309C133.011 103.609 132.094 102.692 131.361 101.559C130.661 100.392 130.277 98.9425 130.211 97.2091H136.961ZM163.816 97.2091C163.816 97.9758 163.966 98.6425 164.266 99.2091C164.6 99.7425 165.016 100.192 165.516 100.559C166.016 100.892 166.583 101.142 167.216 101.309C167.883 101.476 168.566 101.559 169.266 101.559C169.766 101.559 170.283 101.509 170.816 101.409C171.383 101.276 171.883 101.092 172.316 100.859C172.783 100.592 173.166 100.259 173.466 99.8591C173.766 99.4258 173.916 98.8925 173.916 98.2591C173.916 97.1925 173.2 96.3925 171.766 95.8591C170.366 95.3258 168.4 94.7925 165.866 94.2591C164.833 94.0258 163.816 93.7591 162.816 93.4591C161.85 93.1258 160.983 92.7091 160.216 92.2091C159.45 91.6758 158.833 91.0258 158.366 90.2591C157.9 89.4591 157.666 88.4925 157.666 87.3591C157.666 85.6925 157.983 84.3258 158.616 83.2591C159.283 82.1925 160.15 81.3591 161.216 80.7591C162.283 80.1258 163.483 79.6925 164.816 79.4591C166.15 79.1925 167.516 79.0591 168.916 79.0591C170.316 79.0591 171.666 79.1925 172.966 79.4591C174.3 79.7258 175.483 80.1758 176.516 80.8091C177.55 81.4425 178.4 82.2925 179.066 83.3591C179.766 84.3925 180.183 85.7091 180.316 87.3091H173.566C173.466 85.9425 172.95 85.0258 172.016 84.5591C171.083 84.0591 169.983 83.8091 168.716 83.8091C168.316 83.8091 167.883 83.8425 167.416 83.9091C166.95 83.9425 166.516 84.0425 166.116 84.2091C165.75 84.3758 165.433 84.6258 165.166 84.9591C164.9 85.2591 164.766 85.6758 164.766 86.2091C164.766 86.8425 165 87.3591 165.466 87.7591C165.933 88.1591 166.533 88.4925 167.266 88.7591C168.033 88.9925 168.9 89.2091 169.866 89.4091C170.833 89.6091 171.816 89.8258 172.816 90.0591C173.85 90.2925 174.85 90.5758 175.816 90.9091C176.816 91.2425 177.7 91.6925 178.466 92.2591C179.233 92.7925 179.85 93.4758 180.316 94.3091C180.783 95.1091 181.016 96.1091 181.016 97.3091C181.016 99.0091 180.666 100.442 179.966 101.609C179.3 102.742 178.416 103.659 177.316 104.359C176.216 105.059 174.95 105.542 173.516 105.809C172.116 106.109 170.683 106.259 169.216 106.259C167.716 106.259 166.25 106.109 164.816 105.809C163.383 105.509 162.1 105.009 160.966 104.309C159.866 103.609 158.95 102.692 158.216 101.559C157.516 100.392 157.133 98.9425 157.066 97.2091H163.816ZM192.472 75.7591H185.372V69.9091H192.472V75.7591ZM185.372 79.7591H192.472V105.609H185.372V79.7591ZM204.362 92.7091C204.362 93.7425 204.462 94.7591 204.662 95.7591C204.862 96.7258 205.196 97.6091 205.662 98.4091C206.162 99.1758 206.812 99.7925 207.612 100.259C208.412 100.726 209.412 100.959 210.612 100.959C211.812 100.959 212.812 100.726 213.612 100.259C214.446 99.7925 215.096 99.1758 215.562 98.4091C216.062 97.6091 216.412 96.7258 216.612 95.7591C216.812 94.7591 216.912 93.7425 216.912 92.7091C216.912 91.6758 216.812 90.6591 216.612 89.6591C216.412 88.6591 216.062 87.7758 215.562 87.0091C215.096 86.2425 214.446 85.6258 213.612 85.1591C212.812 84.6591 211.812 84.4091 210.612 84.4091C209.412 84.4091 208.412 84.6591 207.612 85.1591C206.812 85.6258 206.162 86.2425 205.662 87.0091C205.196 87.7758 204.862 88.6591 204.662 89.6591C204.462 90.6591 204.362 91.6758 204.362 92.7091ZM197.262 92.7091C197.262 90.6425 197.579 88.7758 198.212 87.1091C198.846 85.4091 199.746 83.9758 200.912 82.8091C202.079 81.6091 203.479 80.6925 205.112 80.0591C206.746 79.3925 208.579 79.0591 210.612 79.0591C212.646 79.0591 214.479 79.3925 216.112 80.0591C217.779 80.6925 219.196 81.6091 220.362 82.8091C221.529 83.9758 222.429 85.4091 223.062 87.1091C223.696 88.7758 224.012 90.6425 224.012 92.7091C224.012 94.7758 223.696 96.6425 223.062 98.3091C222.429 99.9758 221.529 101.409 220.362 102.609C219.196 103.776 217.779 104.676 216.112 105.309C214.479 105.942 212.646 106.259 210.612 106.259C208.579 106.259 206.746 105.942 205.112 105.309C203.479 104.676 202.079 103.776 200.912 102.609C199.746 101.409 198.846 99.9758 198.212 98.3091C197.579 96.6425 197.262 94.7758 197.262 92.7091ZM228.629 79.7591H235.379V83.3591H235.529C236.429 81.8591 237.595 80.7758 239.029 80.1091C240.462 79.4091 241.929 79.0591 243.429 79.0591C245.329 79.0591 246.879 79.3258 248.079 79.8591C249.312 80.3591 250.279 81.0758 250.979 82.0091C251.679 82.9091 252.162 84.0258 252.429 85.3591C252.729 86.6591 252.879 88.1091 252.879 89.7091V105.609H245.779V91.0091C245.779 88.8758 245.445 87.2925 244.779 86.2591C244.112 85.1925 242.929 84.6591 241.229 84.6591C239.295 84.6591 237.895 85.2425 237.029 86.4091C236.162 87.5425 235.729 89.4258 235.729 92.0591V105.609H228.629V79.7591ZM257.967 87.7091C258.067 86.0425 258.484 84.6591 259.217 83.5591C259.951 82.4591 260.884 81.5758 262.017 80.9091C263.151 80.2425 264.417 79.7758 265.817 79.5091C267.251 79.2091 268.684 79.0591 270.117 79.0591C271.417 79.0591 272.734 79.1591 274.067 79.3591C275.401 79.5258 276.617 79.8758 277.717 80.4091C278.817 80.9425 279.717 81.6925 280.417 82.6591C281.117 83.5925 281.467 84.8425 281.467 86.4091V99.8591C281.467 101.026 281.534 102.142 281.667 103.209C281.801 104.276 282.034 105.076 282.367 105.609H275.167C275.034 105.209 274.917 104.809 274.817 104.409C274.751 103.976 274.701 103.542 274.667 103.109C273.534 104.276 272.201 105.092 270.667 105.559C269.134 106.026 267.567 106.259 265.967 106.259C264.734 106.259 263.584 106.109 262.517 105.809C261.451 105.509 260.517 105.042 259.717 104.409C258.917 103.776 258.284 102.976 257.817 102.009C257.384 101.042 257.167 99.8925 257.167 98.5591C257.167 97.0925 257.417 95.8925 257.917 94.9591C258.451 93.9925 259.117 93.2258 259.917 92.6591C260.751 92.0925 261.684 91.6758 262.717 91.4091C263.784 91.1091 264.851 90.8758 265.917 90.7091C266.984 90.5425 268.034 90.4091 269.067 90.3091C270.101 90.2091 271.017 90.0591 271.817 89.8591C272.617 89.6591 273.251 89.3758 273.717 89.0091C274.184 88.6091 274.401 88.0425 274.367 87.3091C274.367 86.5425 274.234 85.9425 273.967 85.5091C273.734 85.0425 273.401 84.6925 272.967 84.4591C272.567 84.1925 272.084 84.0258 271.517 83.9591C270.984 83.8591 270.401 83.8091 269.767 83.8091C268.367 83.8091 267.267 84.1091 266.467 84.7091C265.667 85.3091 265.201 86.3091 265.067 87.7091H257.967ZM274.367 92.9591C274.067 93.2258 273.684 93.4425 273.217 93.6091C272.784 93.7425 272.301 93.8591 271.767 93.9591C271.267 94.0591 270.734 94.1425 270.167 94.2091C269.601 94.2758 269.034 94.3591 268.467 94.4591C267.934 94.5591 267.401 94.6925 266.867 94.8591C266.367 95.0258 265.917 95.2591 265.517 95.5591C265.151 95.8258 264.851 96.1758 264.617 96.6091C264.384 97.0425 264.267 97.5925 264.267 98.2591C264.267 98.8925 264.384 99.4258 264.617 99.8591C264.851 100.292 265.167 100.642 265.567 100.909C265.967 101.142 266.434 101.309 266.967 101.409C267.501 101.509 268.051 101.559 268.617 101.559C270.017 101.559 271.101 101.326 271.867 100.859C272.634 100.392 273.201 99.8425 273.567 99.2091C273.934 98.5425 274.151 97.8758 274.217 97.2091C274.317 96.5425 274.367 96.0091 274.367 95.6091V92.9591ZM287.178 69.9091H294.278V105.609H287.178V69.9091ZM307.169 75.7591H300.069V69.9091H307.169V75.7591ZM300.069 79.7591H307.169V105.609H300.069V79.7591ZM318.26 97.2091C318.26 97.9758 318.41 98.6425 318.71 99.2091C319.043 99.7425 319.46 100.192 319.96 100.559C320.46 100.892 321.026 101.142 321.66 101.309C322.326 101.476 323.01 101.559 323.71 101.559C324.21 101.559 324.726 101.509 325.26 101.409C325.826 101.276 326.326 101.092 326.76 100.859C327.226 100.592 327.61 100.259 327.91 99.8591C328.21 99.4258 328.36 98.8925 328.36 98.2591C328.36 97.1925 327.643 96.3925 326.21 95.8591C324.81 95.3258 322.843 94.7925 320.31 94.2591C319.276 94.0258 318.26 93.7591 317.26 93.4591C316.293 93.1258 315.426 92.7091 314.66 92.2091C313.893 91.6758 313.276 91.0258 312.81 90.2591C312.343 89.4591 312.11 88.4925 312.11 87.3591C312.11 85.6925 312.426 84.3258 313.06 83.2591C313.726 82.1925 314.593 81.3591 315.66 80.7591C316.726 80.1258 317.926 79.6925 319.26 79.4591C320.593 79.1925 321.96 79.0591 323.36 79.0591C324.76 79.0591 326.11 79.1925 327.41 79.4591C328.743 79.7258 329.926 80.1758 330.96 80.8091C331.993 81.4425 332.843 82.2925 333.51 83.3591C334.21 84.3925 334.626 85.7091 334.76 87.3091H328.01C327.91 85.9425 327.393 85.0258 326.46 84.5591C325.526 84.0591 324.426 83.8091 323.16 83.8091C322.76 83.8091 322.326 83.8425 321.86 83.9091C321.393 83.9425 320.96 84.0425 320.56 84.2091C320.193 84.3758 319.876 84.6258 319.61 84.9591C319.343 85.2591 319.21 85.6758 319.21 86.2091C319.21 86.8425 319.443 87.3591 319.91 87.7591C320.376 88.1591 320.976 88.4925 321.71 88.7591C322.476 88.9925 323.343 89.2091 324.31 89.4091C325.276 89.6091 326.26 89.8258 327.26 90.0591C328.293 90.2925 329.293 90.5758 330.26 90.9091C331.26 91.2425 332.143 91.6925 332.91 92.2591C333.676 92.7925 334.293 93.4758 334.76 94.3091C335.226 95.1091 335.46 96.1091 335.46 97.3091C335.46 99.0091 335.11 100.442 334.41 101.609C333.743 102.742 332.86 103.659 331.76 104.359C330.66 105.059 329.393 105.542 327.96 105.809C326.56 106.109 325.126 106.259 323.66 106.259C322.16 106.259 320.693 106.109 319.26 105.809C317.826 105.509 316.543 105.009 315.41 104.309C314.31 103.609 313.393 102.692 312.66 101.559C311.96 100.392 311.576 98.9425 311.51 97.2091H318.26ZM339.815 79.7591H346.515V83.2591H346.615C347.548 81.9258 348.665 80.8925 349.965 80.1591C351.298 79.4258 352.815 79.0591 354.515 79.0591C356.148 79.0591 357.632 79.3758 358.965 80.0091C360.332 80.6425 361.365 81.7591 362.065 83.3591C362.832 82.2258 363.865 81.2258 365.165 80.3591C366.498 79.4925 368.065 79.0591 369.865 79.0591C371.232 79.0591 372.498 79.2258 373.665 79.5591C374.832 79.8925 375.832 80.4258 376.665 81.1591C377.498 81.8925 378.148 82.8591 378.615 84.0591C379.082 85.2258 379.315 86.6425 379.315 88.3091V105.609H372.215V90.9591C372.215 90.0925 372.182 89.2758 372.115 88.5091C372.048 87.7425 371.865 87.0758 371.565 86.5091C371.265 85.9425 370.815 85.4925 370.215 85.1591C369.648 84.8258 368.865 84.6591 367.865 84.6591C366.865 84.6591 366.048 84.8591 365.415 85.2591C364.815 85.6258 364.332 86.1258 363.965 86.7591C363.632 87.3591 363.398 88.0591 363.265 88.8591C363.165 89.6258 363.115 90.4091 363.115 91.2091V105.609H356.015V91.1091C356.015 90.3425 355.998 89.5925 355.965 88.8591C355.932 88.0925 355.782 87.3925 355.515 86.7591C355.282 86.1258 354.865 85.6258 354.265 85.2591C353.698 84.8591 352.848 84.6591 351.715 84.6591C351.382 84.6591 350.932 84.7425 350.365 84.9091C349.832 85.0425 349.298 85.3258 348.765 85.7591C348.265 86.1591 347.832 86.7591 347.465 87.5591C347.098 88.3258 346.915 89.3425 346.915 90.6091V105.609H339.815V79.7591Z" fill="white"/>
    <path d="M121.154 125.854H124.304V130.904H121.154V125.854ZM121.154 135.754H124.304V161.554H121.154V135.754ZM130.283 135.754H133.433V140.204H133.533C134.133 138.638 135.2 137.388 136.733 136.454C138.266 135.488 139.95 135.004 141.783 135.004C143.583 135.004 145.083 135.238 146.283 135.704C147.516 136.171 148.5 136.838 149.233 137.704C149.966 138.538 150.483 139.571 150.783 140.804C151.083 142.038 151.233 143.421 151.233 144.954V161.554H148.083V145.454C148.083 144.354 147.983 143.338 147.783 142.404C147.583 141.438 147.233 140.604 146.733 139.904C146.233 139.204 145.55 138.654 144.683 138.254C143.85 137.854 142.8 137.654 141.533 137.654C140.266 137.654 139.133 137.888 138.133 138.354C137.166 138.788 136.333 139.404 135.633 140.204C134.966 140.971 134.433 141.904 134.033 143.004C133.666 144.071 133.466 145.238 133.433 146.504V161.554H130.283V135.754ZM175.104 142.804H187.804C188.838 142.804 189.821 142.654 190.754 142.354C191.688 142.021 192.504 141.554 193.204 140.954C193.904 140.354 194.454 139.638 194.854 138.804C195.288 137.938 195.504 136.954 195.504 135.854C195.504 133.654 194.871 131.921 193.604 130.654C192.338 129.388 190.404 128.754 187.804 128.754H175.104V142.804ZM171.704 125.854H188.054C189.521 125.854 190.904 126.038 192.204 126.404C193.538 126.771 194.688 127.338 195.654 128.104C196.654 128.838 197.438 129.804 198.004 131.004C198.604 132.171 198.904 133.554 198.904 135.154C198.904 137.421 198.321 139.388 197.154 141.054C195.988 142.721 194.254 143.788 191.954 144.254V144.354C193.121 144.521 194.088 144.838 194.854 145.304C195.621 145.738 196.238 146.304 196.704 147.004C197.204 147.704 197.554 148.521 197.754 149.454C197.988 150.354 198.138 151.338 198.204 152.404C198.238 153.004 198.271 153.738 198.304 154.604C198.338 155.471 198.404 156.354 198.504 157.254C198.604 158.121 198.754 158.954 198.954 159.754C199.188 160.521 199.488 161.121 199.854 161.554H196.104C195.904 161.221 195.738 160.821 195.604 160.354C195.504 159.854 195.421 159.354 195.354 158.854C195.321 158.321 195.288 157.804 195.254 157.304C195.221 156.804 195.188 156.371 195.154 156.004C195.088 154.738 194.971 153.488 194.804 152.254C194.671 150.988 194.354 149.871 193.854 148.904C193.388 147.904 192.688 147.104 191.754 146.504C190.854 145.904 189.604 145.638 188.004 145.704H175.104V161.554H171.704V125.854ZM204.504 125.854H207.654V130.904H204.504V125.854ZM204.504 135.754H207.654V161.554H204.504V135.754ZM229.133 143.304C229.099 142.338 228.899 141.504 228.533 140.804C228.166 140.071 227.666 139.471 227.033 139.004C226.433 138.538 225.733 138.204 224.933 138.004C224.133 137.771 223.283 137.654 222.383 137.654C221.683 137.654 220.966 137.738 220.233 137.904C219.533 138.038 218.883 138.288 218.283 138.654C217.683 138.988 217.199 139.438 216.833 140.004C216.466 140.571 216.283 141.271 216.283 142.104C216.283 142.804 216.449 143.404 216.783 143.904C217.149 144.371 217.599 144.771 218.133 145.104C218.666 145.438 219.249 145.721 219.883 145.954C220.516 146.154 221.099 146.321 221.633 146.454L225.833 147.404C226.733 147.538 227.616 147.788 228.483 148.154C229.383 148.488 230.166 148.938 230.833 149.504C231.533 150.071 232.099 150.771 232.533 151.604C232.966 152.438 233.183 153.421 233.183 154.554C233.183 155.954 232.866 157.154 232.233 158.154C231.599 159.121 230.783 159.921 229.783 160.554C228.816 161.154 227.716 161.588 226.483 161.854C225.249 162.121 224.033 162.254 222.833 162.254C219.799 162.254 217.333 161.538 215.433 160.104C213.566 158.671 212.499 156.371 212.233 153.204H215.383C215.516 155.338 216.283 156.954 217.683 158.054C219.116 159.121 220.883 159.654 222.983 159.654C223.749 159.654 224.533 159.571 225.333 159.404C226.166 159.238 226.933 158.954 227.633 158.554C228.333 158.154 228.899 157.654 229.333 157.054C229.799 156.421 230.033 155.654 230.033 154.754C230.033 153.988 229.866 153.354 229.533 152.854C229.233 152.321 228.816 151.888 228.283 151.554C227.749 151.188 227.133 150.888 226.433 150.654C225.766 150.421 225.083 150.221 224.383 150.054L220.333 149.154C219.299 148.888 218.349 148.588 217.483 148.254C216.616 147.888 215.849 147.454 215.183 146.954C214.549 146.421 214.049 145.788 213.683 145.054C213.316 144.288 213.133 143.354 213.133 142.254C213.133 140.954 213.416 139.838 213.983 138.904C214.583 137.971 215.349 137.221 216.283 136.654C217.216 136.088 218.249 135.671 219.383 135.404C220.549 135.138 221.699 135.004 222.833 135.004C224.133 135.004 225.333 135.171 226.433 135.504C227.566 135.838 228.549 136.354 229.383 137.054C230.249 137.754 230.933 138.621 231.433 139.654C231.933 140.688 232.216 141.904 232.283 143.304H229.133ZM237.755 125.854H240.905V148.254L255.205 135.754H259.405L248.405 145.304L260.155 161.554H256.205L246.005 147.504L240.905 151.754V161.554H237.755V125.854Z" fill="white"/>
    <path d="M56.0303 184.628L67.8803 215.928L80.1803 184.628H85.1803V220.328H81.7803V189.478H81.6803L69.4803 220.328H66.2803L54.5303 189.478H54.4303V220.328H51.0303V184.628H56.0303ZM91.2947 202.428C91.3947 200.928 91.7114 199.628 92.2447 198.528C92.7781 197.428 93.4947 196.528 94.3947 195.828C95.3281 195.128 96.4114 194.612 97.6447 194.278C98.8781 193.945 100.245 193.778 101.745 193.778C102.878 193.778 104.011 193.895 105.145 194.128C106.278 194.328 107.295 194.728 108.195 195.328C109.095 195.928 109.828 196.778 110.395 197.878C110.961 198.945 111.245 200.345 111.245 202.078V215.778C111.245 217.045 111.861 217.678 113.095 217.678C113.461 217.678 113.795 217.612 114.095 217.478V220.128C113.728 220.195 113.395 220.245 113.095 220.278C112.828 220.312 112.478 220.328 112.045 220.328C111.245 220.328 110.595 220.228 110.095 220.028C109.628 219.795 109.261 219.478 108.995 219.078C108.728 218.678 108.545 218.212 108.445 217.678C108.378 217.112 108.345 216.495 108.345 215.828H108.245C107.678 216.662 107.095 217.412 106.495 218.078C105.928 218.712 105.278 219.245 104.545 219.678C103.845 220.112 103.028 220.445 102.095 220.678C101.195 220.912 100.111 221.028 98.8447 221.028C97.6447 221.028 96.5114 220.878 95.4447 220.578C94.4114 220.312 93.4947 219.878 92.6947 219.278C91.9281 218.645 91.3114 217.862 90.8447 216.928C90.4114 215.962 90.1947 214.828 90.1947 213.528C90.1947 211.728 90.5947 210.328 91.3947 209.328C92.1947 208.295 93.2447 207.512 94.5447 206.978C95.8781 206.445 97.3614 206.078 98.9947 205.878C100.661 205.645 102.345 205.428 104.045 205.228C104.711 205.162 105.295 205.078 105.795 204.978C106.295 204.878 106.711 204.712 107.045 204.478C107.378 204.212 107.628 203.862 107.795 203.428C107.995 202.995 108.095 202.428 108.095 201.728C108.095 200.662 107.911 199.795 107.545 199.128C107.211 198.428 106.728 197.878 106.095 197.478C105.495 197.078 104.778 196.812 103.945 196.678C103.145 196.512 102.278 196.428 101.345 196.428C99.3447 196.428 97.7114 196.912 96.4447 197.878C95.1781 198.812 94.5114 200.328 94.4447 202.428H91.2947ZM108.095 206.228H107.995C107.795 206.595 107.411 206.862 106.845 207.028C106.278 207.195 105.778 207.312 105.345 207.378C104.011 207.612 102.628 207.828 101.195 208.028C99.7947 208.195 98.5114 208.462 97.3447 208.828C96.1781 209.195 95.2114 209.728 94.4447 210.428C93.7114 211.095 93.3447 212.062 93.3447 213.328C93.3447 214.128 93.4947 214.845 93.7947 215.478C94.1281 216.078 94.5614 216.612 95.0947 217.078C95.6281 217.512 96.2447 217.845 96.9447 218.078C97.6447 218.312 98.3614 218.428 99.0947 218.428C100.295 218.428 101.445 218.245 102.545 217.878C103.645 217.512 104.595 216.978 105.395 216.278C106.228 215.578 106.878 214.728 107.345 213.728C107.845 212.728 108.095 211.595 108.095 210.328V206.228ZM117.472 194.528H120.622V198.978H120.722C121.322 197.412 122.389 196.162 123.922 195.228C125.456 194.262 127.139 193.778 128.972 193.778C130.772 193.778 132.272 194.012 133.472 194.478C134.706 194.945 135.689 195.612 136.422 196.478C137.156 197.312 137.672 198.345 137.972 199.578C138.272 200.812 138.422 202.195 138.422 203.728V220.328H135.272V204.228C135.272 203.128 135.172 202.112 134.972 201.178C134.772 200.212 134.422 199.378 133.922 198.678C133.422 197.978 132.739 197.428 131.872 197.028C131.039 196.628 129.989 196.428 128.722 196.428C127.456 196.428 126.322 196.662 125.322 197.128C124.356 197.562 123.522 198.178 122.822 198.978C122.156 199.745 121.622 200.678 121.222 201.778C120.856 202.845 120.656 204.012 120.622 205.278V220.328H117.472V194.528ZM144.078 202.428C144.178 200.928 144.495 199.628 145.028 198.528C145.561 197.428 146.278 196.528 147.178 195.828C148.111 195.128 149.195 194.612 150.428 194.278C151.661 193.945 153.028 193.778 154.528 193.778C155.661 193.778 156.795 193.895 157.928 194.128C159.061 194.328 160.078 194.728 160.978 195.328C161.878 195.928 162.611 196.778 163.178 197.878C163.745 198.945 164.028 200.345 164.028 202.078V215.778C164.028 217.045 164.645 217.678 165.878 217.678C166.245 217.678 166.578 217.612 166.878 217.478V220.128C166.511 220.195 166.178 220.245 165.878 220.278C165.611 220.312 165.261 220.328 164.828 220.328C164.028 220.328 163.378 220.228 162.878 220.028C162.411 219.795 162.045 219.478 161.778 219.078C161.511 218.678 161.328 218.212 161.228 217.678C161.161 217.112 161.128 216.495 161.128 215.828H161.028C160.461 216.662 159.878 217.412 159.278 218.078C158.711 218.712 158.061 219.245 157.328 219.678C156.628 220.112 155.811 220.445 154.878 220.678C153.978 220.912 152.895 221.028 151.628 221.028C150.428 221.028 149.295 220.878 148.228 220.578C147.195 220.312 146.278 219.878 145.478 219.278C144.711 218.645 144.095 217.862 143.628 216.928C143.195 215.962 142.978 214.828 142.978 213.528C142.978 211.728 143.378 210.328 144.178 209.328C144.978 208.295 146.028 207.512 147.328 206.978C148.661 206.445 150.145 206.078 151.778 205.878C153.445 205.645 155.128 205.428 156.828 205.228C157.495 205.162 158.078 205.078 158.578 204.978C159.078 204.878 159.495 204.712 159.828 204.478C160.161 204.212 160.411 203.862 160.578 203.428C160.778 202.995 160.878 202.428 160.878 201.728C160.878 200.662 160.695 199.795 160.328 199.128C159.995 198.428 159.511 197.878 158.878 197.478C158.278 197.078 157.561 196.812 156.728 196.678C155.928 196.512 155.061 196.428 154.128 196.428C152.128 196.428 150.495 196.912 149.228 197.878C147.961 198.812 147.295 200.328 147.228 202.428H144.078ZM160.878 206.228H160.778C160.578 206.595 160.195 206.862 159.628 207.028C159.061 207.195 158.561 207.312 158.128 207.378C156.795 207.612 155.411 207.828 153.978 208.028C152.578 208.195 151.295 208.462 150.128 208.828C148.961 209.195 147.995 209.728 147.228 210.428C146.495 211.095 146.128 212.062 146.128 213.328C146.128 214.128 146.278 214.845 146.578 215.478C146.911 216.078 147.345 216.612 147.878 217.078C148.411 217.512 149.028 217.845 149.728 218.078C150.428 218.312 151.145 218.428 151.878 218.428C153.078 218.428 154.228 218.245 155.328 217.878C156.428 217.512 157.378 216.978 158.178 216.278C159.011 215.578 159.661 214.728 160.128 213.728C160.628 212.728 160.878 211.595 160.878 210.328V206.228ZM192.106 218.228C192.106 220.128 191.889 221.845 191.456 223.378C191.056 224.912 190.406 226.212 189.506 227.278C188.606 228.345 187.422 229.162 185.956 229.728C184.522 230.295 182.756 230.578 180.656 230.578C179.356 230.578 178.089 230.428 176.856 230.128C175.622 229.828 174.506 229.362 173.506 228.728C172.539 228.095 171.722 227.278 171.056 226.278C170.422 225.312 170.056 224.145 169.956 222.778H173.106C173.272 223.745 173.589 224.545 174.056 225.178C174.556 225.845 175.139 226.378 175.806 226.778C176.506 227.178 177.272 227.462 178.106 227.628C178.939 227.828 179.789 227.928 180.656 227.928C183.589 227.928 185.706 227.095 187.006 225.428C188.306 223.762 188.956 221.362 188.956 218.228V214.728H188.856C188.122 216.328 187.039 217.612 185.606 218.578C184.206 219.545 182.556 220.028 180.656 220.028C178.589 220.028 176.822 219.695 175.356 219.028C173.889 218.328 172.672 217.378 171.706 216.178C170.772 214.978 170.089 213.578 169.656 211.978C169.222 210.345 169.006 208.612 169.006 206.778C169.006 205.012 169.256 203.345 169.756 201.778C170.289 200.178 171.039 198.795 172.006 197.628C173.006 196.428 174.222 195.495 175.656 194.828C177.122 194.128 178.789 193.778 180.656 193.778C181.622 193.778 182.522 193.912 183.356 194.178C184.222 194.445 185.006 194.828 185.706 195.328C186.406 195.795 187.022 196.345 187.556 196.978C188.122 197.612 188.556 198.278 188.856 198.978H188.956V194.528H192.106V218.228ZM180.656 217.378C182.022 217.378 183.222 217.095 184.256 216.528C185.289 215.928 186.156 215.162 186.856 214.228C187.556 213.262 188.072 212.162 188.406 210.928C188.772 209.695 188.956 208.428 188.956 207.128C188.956 205.862 188.806 204.595 188.506 203.328C188.206 202.062 187.722 200.912 187.056 199.878C186.389 198.845 185.522 198.012 184.456 197.378C183.422 196.745 182.156 196.428 180.656 196.428C179.156 196.428 177.872 196.745 176.806 197.378C175.739 197.978 174.856 198.778 174.156 199.778C173.456 200.778 172.939 201.928 172.606 203.228C172.306 204.495 172.156 205.795 172.156 207.128C172.156 208.428 172.322 209.695 172.656 210.928C172.989 212.162 173.506 213.262 174.206 214.228C174.906 215.162 175.789 215.928 176.856 216.528C177.922 217.095 179.189 217.378 180.656 217.378ZM216.639 205.628C216.606 204.428 216.389 203.278 215.989 202.178C215.622 201.078 215.089 200.112 214.389 199.278C213.689 198.412 212.839 197.728 211.839 197.228C210.839 196.695 209.706 196.428 208.439 196.428C207.139 196.428 205.989 196.695 204.989 197.228C203.989 197.728 203.139 198.412 202.439 199.278C201.739 200.112 201.172 201.095 200.739 202.228C200.339 203.328 200.072 204.462 199.939 205.628H216.639ZM199.939 208.278C199.939 209.412 200.089 210.595 200.389 211.828C200.722 213.028 201.239 214.112 201.939 215.078C202.639 216.045 203.522 216.845 204.589 217.478C205.656 218.112 206.939 218.428 208.439 218.428C210.739 218.428 212.539 217.828 213.839 216.628C215.139 215.428 216.039 213.828 216.539 211.828H219.689C219.022 214.762 217.789 217.028 215.989 218.628C214.222 220.228 211.706 221.028 208.439 221.028C206.406 221.028 204.639 220.678 203.139 219.978C201.672 219.245 200.472 218.262 199.539 217.028C198.606 215.762 197.906 214.312 197.439 212.678C197.006 211.012 196.789 209.262 196.789 207.428C196.789 205.728 197.006 204.062 197.439 202.428C197.906 200.795 198.606 199.345 199.539 198.078C200.472 196.778 201.672 195.745 203.139 194.978C204.639 194.178 206.406 193.778 208.439 193.778C210.506 193.778 212.272 194.195 213.739 195.028C215.206 195.862 216.389 196.962 217.289 198.328C218.222 199.662 218.889 201.212 219.289 202.978C219.689 204.712 219.856 206.478 219.789 208.278H199.939ZM224.017 194.528H226.917V198.878H227.067C227.9 197.278 228.983 196.028 230.317 195.128C231.683 194.228 233.417 193.778 235.517 193.778C237.217 193.778 238.75 194.195 240.117 195.028C241.517 195.862 242.45 197.128 242.917 198.828C243.683 197.128 244.817 195.862 246.317 195.028C247.817 194.195 249.417 193.778 251.117 193.778C256.817 193.778 259.667 196.795 259.667 202.828V220.328H256.517V202.978C256.517 200.845 256.067 199.228 255.167 198.128C254.267 196.995 252.683 196.428 250.417 196.428C249.05 196.428 247.917 196.695 247.017 197.228C246.117 197.728 245.4 198.412 244.867 199.278C244.333 200.145 243.95 201.145 243.717 202.278C243.517 203.378 243.417 204.528 243.417 205.728V220.328H240.267V202.828C240.267 201.962 240.167 201.145 239.967 200.378C239.8 199.578 239.5 198.895 239.067 198.328C238.667 197.728 238.117 197.262 237.417 196.928C236.717 196.595 235.867 196.428 234.867 196.428C233.533 196.428 232.367 196.678 231.367 197.178C230.4 197.645 229.6 198.312 228.967 199.178C228.367 200.012 227.917 201.012 227.617 202.178C227.317 203.312 227.167 204.562 227.167 205.928V220.328H224.017V194.528ZM284.217 205.628C284.184 204.428 283.967 203.278 283.567 202.178C283.2 201.078 282.667 200.112 281.967 199.278C281.267 198.412 280.417 197.728 279.417 197.228C278.417 196.695 277.284 196.428 276.017 196.428C274.717 196.428 273.567 196.695 272.567 197.228C271.567 197.728 270.717 198.412 270.017 199.278C269.317 200.112 268.75 201.095 268.317 202.228C267.917 203.328 267.65 204.462 267.517 205.628H284.217ZM267.517 208.278C267.517 209.412 267.667 210.595 267.967 211.828C268.3 213.028 268.817 214.112 269.517 215.078C270.217 216.045 271.1 216.845 272.167 217.478C273.234 218.112 274.517 218.428 276.017 218.428C278.317 218.428 280.117 217.828 281.417 216.628C282.717 215.428 283.617 213.828 284.117 211.828H287.267C286.6 214.762 285.367 217.028 283.567 218.628C281.8 220.228 279.284 221.028 276.017 221.028C273.984 221.028 272.217 220.678 270.717 219.978C269.25 219.245 268.05 218.262 267.117 217.028C266.184 215.762 265.484 214.312 265.017 212.678C264.584 211.012 264.367 209.262 264.367 207.428C264.367 205.728 264.584 204.062 265.017 202.428C265.484 200.795 266.184 199.345 267.117 198.078C268.05 196.778 269.25 195.745 270.717 194.978C272.217 194.178 273.984 193.778 276.017 193.778C278.084 193.778 279.85 194.195 281.317 195.028C282.784 195.862 283.967 196.962 284.867 198.328C285.8 199.662 286.467 201.212 286.867 202.978C287.267 204.712 287.434 206.478 287.367 208.278H267.517ZM291.545 194.528H294.695V198.978H294.795C295.395 197.412 296.461 196.162 297.995 195.228C299.528 194.262 301.211 193.778 303.045 193.778C304.845 193.778 306.345 194.012 307.545 194.478C308.778 194.945 309.761 195.612 310.495 196.478C311.228 197.312 311.745 198.345 312.045 199.578C312.345 200.812 312.495 202.195 312.495 203.728V220.328H309.345V204.228C309.345 203.128 309.245 202.112 309.045 201.178C308.845 200.212 308.495 199.378 307.995 198.678C307.495 197.978 306.811 197.428 305.945 197.028C305.111 196.628 304.061 196.428 302.795 196.428C301.528 196.428 300.395 196.662 299.395 197.128C298.428 197.562 297.595 198.178 296.895 198.978C296.228 199.745 295.695 200.678 295.295 201.778C294.928 202.845 294.728 204.012 294.695 205.278V220.328H291.545V194.528ZM323.45 194.528H328.7V197.178H323.45V214.578C323.45 215.612 323.584 216.428 323.85 217.028C324.15 217.595 324.867 217.912 326 217.978C326.9 217.978 327.8 217.928 328.7 217.828V220.478C328.234 220.478 327.767 220.495 327.3 220.528C326.834 220.562 326.367 220.578 325.9 220.578C323.8 220.578 322.334 220.178 321.5 219.378C320.667 218.545 320.267 217.028 320.3 214.828V197.178H315.8V194.528H320.3V186.778H323.45V194.528Z" fill="white"/>
</svg>
