<svg id="mobile" viewBox="0 0 364 289" fill="none" xmlns="http://www.w3.org/2000/svg">
    <path d="M86.7768 14.2799H109.427V17.1799H90.1768V30.0799H107.277V32.9799H90.1768V49.9799H86.7768V14.2799ZM123.932 26.0799C122.432 26.0799 121.116 26.3966 119.982 27.0299C118.849 27.6632 117.899 28.4966 117.132 29.5299C116.399 30.5632 115.832 31.7466 115.432 33.0799C115.066 34.3799 114.882 35.7132 114.882 37.0799C114.882 38.4466 115.066 39.7966 115.432 41.1299C115.832 42.4299 116.399 43.5966 117.132 44.6299C117.899 45.6632 118.849 46.4966 119.982 47.1299C121.116 47.7632 122.432 48.0799 123.932 48.0799C125.432 48.0799 126.749 47.7632 127.882 47.1299C129.016 46.4966 129.949 45.6632 130.682 44.6299C131.449 43.5966 132.016 42.4299 132.382 41.1299C132.782 39.7966 132.982 38.4466 132.982 37.0799C132.982 35.7132 132.782 34.3799 132.382 33.0799C132.016 31.7466 131.449 30.5632 130.682 29.5299C129.949 28.4966 129.016 27.6632 127.882 27.0299C126.749 26.3966 125.432 26.0799 123.932 26.0799ZM123.932 23.4299C125.899 23.4299 127.632 23.7966 129.132 24.5299C130.666 25.2632 131.949 26.2466 132.982 27.4799C134.016 28.7132 134.799 30.1632 135.332 31.8299C135.866 33.4632 136.132 35.2132 136.132 37.0799C136.132 38.9466 135.866 40.7132 135.332 42.3799C134.799 44.0132 134.016 45.4466 132.982 46.6799C131.949 47.9132 130.666 48.8966 129.132 49.6299C127.632 50.3299 125.899 50.6799 123.932 50.6799C121.966 50.6799 120.216 50.3299 118.682 49.6299C117.182 48.8966 115.916 47.9132 114.882 46.6799C113.849 45.4466 113.066 44.0132 112.532 42.3799C111.999 40.7132 111.732 38.9466 111.732 37.0799C111.732 35.2132 111.999 33.4632 112.532 31.8299C113.066 30.1632 113.849 28.7132 114.882 27.4799C115.916 26.2466 117.182 25.2632 118.682 24.5299C120.216 23.7966 121.966 23.4299 123.932 23.4299ZM156.265 31.7299C156.232 30.7632 156.032 29.9299 155.665 29.2299C155.299 28.4966 154.799 27.8966 154.165 27.4299C153.565 26.9632 152.865 26.6299 152.065 26.4299C151.265 26.1966 150.415 26.0799 149.515 26.0799C148.815 26.0799 148.099 26.1632 147.365 26.3299C146.665 26.4632 146.015 26.7132 145.415 27.0799C144.815 27.4132 144.332 27.8632 143.965 28.4299C143.599 28.9966 143.415 29.6966 143.415 30.5299C143.415 31.2299 143.582 31.8299 143.915 32.3299C144.282 32.7966 144.732 33.1966 145.265 33.5299C145.799 33.8632 146.382 34.1466 147.015 34.3799C147.649 34.5799 148.232 34.7466 148.765 34.8799L152.965 35.8299C153.865 35.9632 154.749 36.2132 155.615 36.5799C156.515 36.9132 157.299 37.3632 157.965 37.9299C158.665 38.4966 159.232 39.1966 159.665 40.0299C160.099 40.8632 160.315 41.8466 160.315 42.9799C160.315 44.3799 159.999 45.5799 159.365 46.5799C158.732 47.5466 157.915 48.3466 156.915 48.9799C155.949 49.5799 154.849 50.0132 153.615 50.2799C152.382 50.5466 151.165 50.6799 149.965 50.6799C146.932 50.6799 144.465 49.9632 142.565 48.5299C140.699 47.0966 139.632 44.7966 139.365 41.6299H142.515C142.649 43.7632 143.415 45.3799 144.815 46.4799C146.249 47.5466 148.015 48.0799 150.115 48.0799C150.882 48.0799 151.665 47.9966 152.465 47.8299C153.299 47.6632 154.065 47.3799 154.765 46.9799C155.465 46.5799 156.032 46.0799 156.465 45.4799C156.932 44.8466 157.165 44.0799 157.165 43.1799C157.165 42.4132 156.999 41.7799 156.665 41.2799C156.365 40.7466 155.949 40.3132 155.415 39.9799C154.882 39.6132 154.265 39.3132 153.565 39.0799C152.899 38.8466 152.215 38.6466 151.515 38.4799L147.465 37.5799C146.432 37.3132 145.482 37.0132 144.615 36.6799C143.749 36.3132 142.982 35.8799 142.315 35.3799C141.682 34.8466 141.182 34.2132 140.815 33.4799C140.449 32.7132 140.265 31.7799 140.265 30.6799C140.265 29.3799 140.549 28.2632 141.115 27.3299C141.715 26.3966 142.482 25.6466 143.415 25.0799C144.349 24.5132 145.382 24.0966 146.515 23.8299C147.682 23.5632 148.832 23.4299 149.965 23.4299C151.265 23.4299 152.465 23.5966 153.565 23.9299C154.699 24.2632 155.682 24.7799 156.515 25.4799C157.382 26.1799 158.065 27.0466 158.565 28.0799C159.065 29.1132 159.349 30.3299 159.415 31.7299H156.265ZM169.888 24.1799H175.138V26.8299H169.888V44.2299C169.888 45.2632 170.021 46.0799 170.288 46.6799C170.588 47.2466 171.304 47.5632 172.438 47.6299C173.338 47.6299 174.238 47.5799 175.138 47.4799V50.1299C174.671 50.1299 174.204 50.1466 173.738 50.1799C173.271 50.2132 172.804 50.2299 172.338 50.2299C170.238 50.2299 168.771 49.8299 167.938 49.0299C167.104 48.1966 166.704 46.6799 166.738 44.4799V26.8299H162.238V24.1799H166.738V16.4299H169.888V24.1799ZM198.233 35.2799C198.199 34.0799 197.983 32.9299 197.583 31.8299C197.216 30.7299 196.683 29.7632 195.983 28.9299C195.283 28.0632 194.433 27.3799 193.433 26.8799C192.433 26.3466 191.299 26.0799 190.033 26.0799C188.733 26.0799 187.583 26.3466 186.583 26.8799C185.583 27.3799 184.733 28.0632 184.033 28.9299C183.333 29.7632 182.766 30.7466 182.333 31.8799C181.933 32.9799 181.666 34.1132 181.533 35.2799H198.233ZM181.533 37.9299C181.533 39.0632 181.683 40.2466 181.983 41.4799C182.316 42.6799 182.833 43.7632 183.533 44.7299C184.233 45.6966 185.116 46.4966 186.183 47.1299C187.249 47.7632 188.533 48.0799 190.033 48.0799C192.333 48.0799 194.133 47.4799 195.433 46.2799C196.733 45.0799 197.633 43.4799 198.133 41.4799H201.283C200.616 44.4132 199.383 46.6799 197.583 48.2799C195.816 49.8799 193.299 50.6799 190.033 50.6799C187.999 50.6799 186.233 50.3299 184.733 49.6299C183.266 48.8966 182.066 47.9132 181.133 46.6799C180.199 45.4132 179.499 43.9632 179.033 42.3299C178.599 40.6632 178.383 38.9132 178.383 37.0799C178.383 35.3799 178.599 33.7132 179.033 32.0799C179.499 30.4466 180.199 28.9966 181.133 27.7299C182.066 26.4299 183.266 25.3966 184.733 24.6299C186.233 23.8299 187.999 23.4299 190.033 23.4299C192.099 23.4299 193.866 23.8466 195.333 24.6799C196.799 25.5132 197.983 26.6132 198.883 27.9799C199.816 29.3132 200.483 30.8632 200.883 32.6299C201.283 34.3632 201.449 36.1299 201.383 37.9299H181.533ZM205.61 24.1799H208.51V30.2299H208.61C209.41 28.1299 210.644 26.5132 212.31 25.3799C214.01 24.2466 216.027 23.7299 218.36 23.8299V26.9799C216.927 26.9132 215.627 27.1132 214.46 27.5799C213.294 28.0132 212.277 28.6466 211.41 29.4799C210.577 30.3132 209.927 31.3132 209.46 32.4799C208.994 33.6132 208.76 34.8632 208.76 36.2299V49.9799H205.61V24.1799ZM221.432 14.2799H224.582V19.3299H221.432V14.2799ZM221.432 24.1799H224.582V49.9799H221.432V24.1799ZM230.56 24.1799H233.71V28.6299H233.81C234.41 27.0632 235.477 25.8132 237.01 24.8799C238.544 23.9132 240.227 23.4299 242.06 23.4299C243.86 23.4299 245.36 23.6632 246.56 24.1299C247.794 24.5966 248.777 25.2632 249.51 26.1299C250.244 26.9632 250.76 27.9966 251.06 29.2299C251.36 30.4632 251.51 31.8466 251.51 33.3799V49.9799H248.36V33.8799C248.36 32.7799 248.26 31.7632 248.06 30.8299C247.86 29.8632 247.51 29.0299 247.01 28.3299C246.51 27.6299 245.827 27.0799 244.96 26.6799C244.127 26.2799 243.077 26.0799 241.81 26.0799C240.544 26.0799 239.41 26.3132 238.41 26.7799C237.444 27.2132 236.61 27.8299 235.91 28.6299C235.244 29.3966 234.71 30.3299 234.31 31.4299C233.944 32.4966 233.744 33.6632 233.71 34.9299V49.9799H230.56V24.1799ZM279.266 47.8799C279.266 49.7799 279.049 51.4966 278.616 53.0299C278.216 54.5632 277.566 55.8632 276.666 56.9299C275.766 57.9966 274.582 58.8132 273.116 59.3799C271.682 59.9466 269.916 60.2299 267.816 60.2299C266.516 60.2299 265.249 60.0799 264.016 59.7799C262.782 59.4799 261.666 59.0132 260.666 58.3799C259.699 57.7466 258.882 56.9299 258.216 55.9299C257.582 54.9632 257.216 53.7966 257.116 52.4299H260.266C260.432 53.3966 260.749 54.1966 261.216 54.8299C261.716 55.4966 262.299 56.0299 262.966 56.4299C263.666 56.8299 264.432 57.1132 265.266 57.2799C266.099 57.4799 266.949 57.5799 267.816 57.5799C270.749 57.5799 272.866 56.7466 274.166 55.0799C275.466 53.4132 276.116 51.0132 276.116 47.8799V44.3799H276.016C275.282 45.9799 274.199 47.2632 272.766 48.2299C271.366 49.1966 269.716 49.6799 267.816 49.6799C265.749 49.6799 263.982 49.3466 262.516 48.6799C261.049 47.9799 259.832 47.0299 258.866 45.8299C257.932 44.6299 257.249 43.2299 256.816 41.6299C256.382 39.9966 256.166 38.2632 256.166 36.4299C256.166 34.6632 256.416 32.9966 256.916 31.4299C257.449 29.8299 258.199 28.4466 259.166 27.2799C260.166 26.0799 261.382 25.1466 262.816 24.4799C264.282 23.7799 265.949 23.4299 267.816 23.4299C268.782 23.4299 269.682 23.5632 270.516 23.8299C271.382 24.0966 272.166 24.4799 272.866 24.9799C273.566 25.4466 274.182 25.9966 274.716 26.6299C275.282 27.2632 275.716 27.9299 276.016 28.6299H276.116V24.1799H279.266V47.8799ZM267.816 47.0299C269.182 47.0299 270.382 46.7466 271.416 46.1799C272.449 45.5799 273.316 44.8132 274.016 43.8799C274.716 42.9132 275.232 41.8132 275.566 40.5799C275.932 39.3466 276.116 38.0799 276.116 36.7799C276.116 35.5132 275.966 34.2466 275.666 32.9799C275.366 31.7132 274.882 30.5632 274.216 29.5299C273.549 28.4966 272.682 27.6632 271.616 27.0299C270.582 26.3966 269.316 26.0799 267.816 26.0799C266.316 26.0799 265.032 26.3966 263.966 27.0299C262.899 27.6299 262.016 28.4299 261.316 29.4299C260.616 30.4299 260.099 31.5799 259.766 32.8799C259.466 34.1466 259.316 35.4466 259.316 36.7799C259.316 38.0799 259.482 39.3466 259.816 40.5799C260.149 41.8132 260.666 42.9132 261.366 43.8799C262.066 44.8132 262.949 45.5799 264.016 46.1799C265.082 46.7466 266.349 47.0299 267.816 47.0299Z" fill="white"/>
    <path d="M124.727 103.729C123.327 105.529 121.777 106.796 120.077 107.529C118.377 108.229 116.66 108.579 114.927 108.579C112.193 108.579 109.727 108.113 107.527 107.179C105.36 106.213 103.527 104.896 102.027 103.229C100.527 101.563 99.3766 99.6125 98.5766 97.3792C97.7766 95.1125 97.3766 92.6792 97.3766 90.0792C97.3766 87.4125 97.7766 84.9458 98.5766 82.6792C99.3766 80.3792 100.527 78.3792 102.027 76.6792C103.527 74.9792 105.36 73.6458 107.527 72.6792C109.727 71.7125 112.193 71.2292 114.927 71.2292C116.76 71.2292 118.527 71.5125 120.227 72.0792C121.96 72.6125 123.51 73.4125 124.877 74.4792C126.277 75.5458 127.427 76.8625 128.327 78.4292C129.227 79.9958 129.777 81.7958 129.977 83.8292H122.477C122.01 81.8292 121.11 80.3292 119.777 79.3292C118.443 78.3292 116.827 77.8292 114.927 77.8292C113.16 77.8292 111.66 78.1792 110.427 78.8792C109.193 79.5458 108.193 80.4625 107.427 81.6292C106.66 82.7625 106.093 84.0625 105.727 85.5292C105.393 86.9958 105.227 88.5125 105.227 90.0792C105.227 91.5792 105.393 93.0458 105.727 94.4792C106.093 95.8792 106.66 97.1458 107.427 98.2792C108.193 99.4125 109.193 100.329 110.427 101.029C111.66 101.696 113.16 102.029 114.927 102.029C117.527 102.029 119.527 101.379 120.927 100.079C122.36 98.7458 123.193 96.8292 123.427 94.3292H115.527V88.4792H130.527V107.779H125.527L124.727 103.729ZM136.116 81.9292H142.866V86.7292H142.966C143.299 85.9292 143.749 85.1958 144.316 84.5292C144.883 83.8292 145.533 83.2458 146.266 82.7792C146.999 82.2792 147.783 81.8958 148.616 81.6292C149.449 81.3625 150.316 81.2292 151.216 81.2292C151.683 81.2292 152.199 81.3125 152.766 81.4792V88.0792C152.433 88.0125 152.033 87.9625 151.566 87.9292C151.099 87.8625 150.649 87.8292 150.216 87.8292C148.916 87.8292 147.816 88.0458 146.916 88.4792C146.016 88.9125 145.283 89.5125 144.716 90.2792C144.183 91.0125 143.799 91.8792 143.566 92.8792C143.333 93.8792 143.216 94.9625 143.216 96.1292V107.779H136.116V81.9292ZM160.971 94.8792C160.971 95.9125 161.071 96.9292 161.271 97.9292C161.471 98.8958 161.804 99.7792 162.271 100.579C162.771 101.346 163.421 101.963 164.221 102.429C165.021 102.896 166.021 103.129 167.221 103.129C168.421 103.129 169.421 102.896 170.221 102.429C171.054 101.963 171.704 101.346 172.171 100.579C172.671 99.7792 173.021 98.8958 173.221 97.9292C173.421 96.9292 173.521 95.9125 173.521 94.8792C173.521 93.8458 173.421 92.8292 173.221 91.8292C173.021 90.8292 172.671 89.9458 172.171 89.1792C171.704 88.4125 171.054 87.7958 170.221 87.3292C169.421 86.8292 168.421 86.5792 167.221 86.5792C166.021 86.5792 165.021 86.8292 164.221 87.3292C163.421 87.7958 162.771 88.4125 162.271 89.1792C161.804 89.9458 161.471 90.8292 161.271 91.8292C161.071 92.8292 160.971 93.8458 160.971 94.8792ZM153.871 94.8792C153.871 92.8125 154.187 90.9458 154.821 89.2792C155.454 87.5792 156.354 86.1458 157.521 84.9792C158.687 83.7792 160.087 82.8625 161.721 82.2292C163.354 81.5625 165.187 81.2292 167.221 81.2292C169.254 81.2292 171.087 81.5625 172.721 82.2292C174.387 82.8625 175.804 83.7792 176.971 84.9792C178.137 86.1458 179.037 87.5792 179.671 89.2792C180.304 90.9458 180.621 92.8125 180.621 94.8792C180.621 96.9458 180.304 98.8125 179.671 100.479C179.037 102.146 178.137 103.579 176.971 104.779C175.804 105.946 174.387 106.846 172.721 107.479C171.087 108.113 169.254 108.429 167.221 108.429C165.187 108.429 163.354 108.113 161.721 107.479C160.087 106.846 158.687 105.946 157.521 104.779C156.354 103.579 155.454 102.146 154.821 100.479C154.187 98.8125 153.871 96.9458 153.871 94.8792ZM214.787 107.779H207.487L202.887 90.4292H202.787L198.387 107.779H191.037L182.837 81.9292H190.337L195.087 99.4792H195.187L199.487 81.9292H206.387L210.787 99.4292H210.887L215.637 81.9292H222.937L214.787 107.779ZM234.96 81.9292H240.16V86.6792H234.96V99.4792C234.96 100.679 235.16 101.479 235.56 101.879C235.96 102.279 236.76 102.479 237.96 102.479C238.36 102.479 238.743 102.463 239.11 102.429C239.476 102.396 239.826 102.346 240.16 102.279V107.779C239.56 107.879 238.893 107.946 238.16 107.979C237.426 108.013 236.71 108.029 236.01 108.029C234.91 108.029 233.86 107.946 232.86 107.779C231.893 107.646 231.026 107.363 230.26 106.929C229.526 106.496 228.943 105.879 228.51 105.079C228.076 104.279 227.86 103.229 227.86 101.929V86.6792H223.56V81.9292H227.86V74.1792H234.96V81.9292ZM243.538 72.0792H250.638V85.5292H250.788C251.688 84.0292 252.838 82.9458 254.238 82.2792C255.638 81.5792 257.005 81.2292 258.338 81.2292C260.238 81.2292 261.788 81.4958 262.988 82.0292C264.221 82.5292 265.188 83.2458 265.888 84.1792C266.588 85.0792 267.071 86.1958 267.338 87.5292C267.638 88.8292 267.788 90.2792 267.788 91.8792V107.779H260.688V93.1792C260.688 91.0458 260.355 89.4625 259.688 88.4292C259.021 87.3625 257.838 86.8292 256.138 86.8292C254.205 86.8292 252.805 87.4125 251.938 88.5792C251.071 89.7125 250.638 91.5958 250.638 94.2292V107.779H243.538V72.0792Z" fill="white"/>
    <path d="M59.827 160.481C58.3936 161.881 56.8603 162.931 55.227 163.631C53.627 164.331 51.8103 164.681 49.777 164.681C48.177 164.681 46.6603 164.448 45.227 163.981C43.827 163.515 42.6103 162.831 41.577 161.931C40.5436 160.998 39.727 159.881 39.127 158.581C38.527 157.248 38.227 155.731 38.227 154.031C38.227 152.765 38.4436 151.615 38.877 150.581C39.3103 149.515 39.8936 148.565 40.627 147.731C41.3936 146.865 42.2603 146.098 43.227 145.431C44.1936 144.765 45.1936 144.181 46.227 143.681C45.2603 142.515 44.4436 141.348 43.777 140.181C43.1436 139.015 42.827 137.648 42.827 136.081C42.827 134.848 43.077 133.731 43.577 132.731C44.1103 131.731 44.8103 130.881 45.677 130.181C46.5436 129.448 47.527 128.898 48.627 128.531C49.7603 128.131 50.927 127.931 52.127 127.931C53.4936 127.931 54.7603 128.115 55.927 128.481C57.127 128.848 58.1603 129.398 59.027 130.131C59.927 130.831 60.627 131.715 61.127 132.781C61.6603 133.848 61.927 135.081 61.927 136.481C61.927 138.581 61.3103 140.348 60.077 141.781C58.877 143.215 57.377 144.415 55.577 145.381L60.177 151.031C60.5436 150.365 60.827 149.681 61.027 148.981C61.227 148.248 61.377 147.515 61.477 146.781H67.627C67.4603 148.381 67.0936 149.931 66.527 151.431C65.9603 152.931 65.177 154.315 64.177 155.581L71.427 164.031H62.727L59.827 160.481ZM49.977 148.281C49.3436 148.548 48.727 148.865 48.127 149.231C47.527 149.598 46.9936 150.031 46.527 150.531C46.0603 151.031 45.677 151.581 45.377 152.181C45.1103 152.781 44.977 153.448 44.977 154.181C44.977 154.815 45.1103 155.431 45.377 156.031C45.677 156.598 46.0603 157.098 46.527 157.531C46.9936 157.931 47.527 158.265 48.127 158.531C48.7603 158.765 49.4103 158.881 50.077 158.881C51.3436 158.881 52.4436 158.598 53.377 158.031C54.3436 157.431 55.2436 156.665 56.077 155.731L49.977 148.281ZM55.727 136.081C55.727 135.148 55.3936 134.348 54.727 133.681C54.0936 133.015 53.3436 132.681 52.477 132.681C51.6103 132.681 50.8603 132.981 50.227 133.581C49.5936 134.148 49.277 134.898 49.277 135.831C49.277 136.965 49.577 137.931 50.177 138.731C50.777 139.531 51.4103 140.348 52.077 141.181C53.077 140.548 53.927 139.865 54.627 139.131C55.3603 138.398 55.727 137.381 55.727 136.081ZM93.5715 152.181C93.5715 153.381 93.7882 154.398 94.2215 155.231C94.6548 156.065 95.2215 156.748 95.9215 157.281C96.6548 157.781 97.5048 158.165 98.4715 158.431C99.4382 158.665 100.438 158.781 101.471 158.781C102.171 158.781 102.921 158.731 103.721 158.631C104.521 158.498 105.271 158.265 105.971 157.931C106.671 157.598 107.255 157.148 107.721 156.581C108.188 155.981 108.421 155.231 108.421 154.331C108.421 153.365 108.105 152.581 107.471 151.981C106.871 151.381 106.071 150.881 105.071 150.481C104.071 150.081 102.938 149.731 101.671 149.431C100.405 149.131 99.1215 148.798 97.8215 148.431C96.4882 148.098 95.1882 147.698 93.9215 147.231C92.6548 146.731 91.5215 146.098 90.5215 145.331C89.5215 144.565 88.7048 143.615 88.0715 142.481C87.4715 141.315 87.1715 139.915 87.1715 138.281C87.1715 136.448 87.5548 134.865 88.3215 133.531C89.1215 132.165 90.1548 131.031 91.4215 130.131C92.6882 129.231 94.1215 128.565 95.7215 128.131C97.3215 127.698 98.9215 127.481 100.521 127.481C102.388 127.481 104.171 127.698 105.871 128.131C107.605 128.531 109.138 129.198 110.471 130.131C111.805 131.065 112.855 132.265 113.621 133.731C114.421 135.165 114.821 136.915 114.821 138.981H107.221C107.155 137.915 106.921 137.031 106.521 136.331C106.155 135.631 105.655 135.081 105.021 134.681C104.388 134.281 103.655 133.998 102.821 133.831C102.021 133.665 101.138 133.581 100.171 133.581C99.5382 133.581 98.9048 133.648 98.2715 133.781C97.6382 133.915 97.0548 134.148 96.5215 134.481C96.0215 134.815 95.6048 135.231 95.2715 135.731C94.9382 136.231 94.7715 136.865 94.7715 137.631C94.7715 138.331 94.9048 138.898 95.1715 139.331C95.4382 139.765 95.9548 140.165 96.7215 140.531C97.5215 140.898 98.6048 141.265 99.9715 141.631C101.371 141.998 103.188 142.465 105.421 143.031C106.088 143.165 107.005 143.415 108.171 143.781C109.371 144.115 110.555 144.665 111.721 145.431C112.888 146.198 113.888 147.231 114.721 148.531C115.588 149.798 116.021 151.431 116.021 153.431C116.021 155.065 115.705 156.581 115.071 157.981C114.438 159.381 113.488 160.598 112.221 161.631C110.988 162.631 109.438 163.415 107.571 163.981C105.738 164.548 103.605 164.831 101.171 164.831C99.2048 164.831 97.2882 164.581 95.4215 164.081C93.5882 163.615 91.9548 162.865 90.5215 161.831C89.1215 160.798 88.0048 159.481 87.1715 157.881C86.3382 156.281 85.9382 154.381 85.9715 152.181H93.5715ZM128.942 138.181H134.142V142.931H128.942V155.731C128.942 156.931 129.142 157.731 129.542 158.131C129.942 158.531 130.742 158.731 131.942 158.731C132.342 158.731 132.726 158.715 133.092 158.681C133.459 158.648 133.809 158.598 134.142 158.531V164.031C133.542 164.131 132.876 164.198 132.142 164.231C131.409 164.265 130.692 164.281 129.992 164.281C128.892 164.281 127.842 164.198 126.842 164.031C125.876 163.898 125.009 163.615 124.242 163.181C123.509 162.748 122.926 162.131 122.492 161.331C122.059 160.531 121.842 159.481 121.842 158.181V142.931H117.542V138.181H121.842V130.431H128.942V138.181ZM137.22 146.131C137.32 144.465 137.737 143.081 138.47 141.981C139.204 140.881 140.137 139.998 141.27 139.331C142.404 138.665 143.67 138.198 145.07 137.931C146.504 137.631 147.937 137.481 149.37 137.481C150.67 137.481 151.987 137.581 153.32 137.781C154.654 137.948 155.87 138.298 156.97 138.831C158.07 139.365 158.97 140.115 159.67 141.081C160.37 142.015 160.72 143.265 160.72 144.831V158.281C160.72 159.448 160.787 160.565 160.92 161.631C161.054 162.698 161.287 163.498 161.62 164.031H154.42C154.287 163.631 154.17 163.231 154.07 162.831C154.004 162.398 153.954 161.965 153.92 161.531C152.787 162.698 151.454 163.515 149.92 163.981C148.387 164.448 146.82 164.681 145.22 164.681C143.987 164.681 142.837 164.531 141.77 164.231C140.704 163.931 139.77 163.465 138.97 162.831C138.17 162.198 137.537 161.398 137.07 160.431C136.637 159.465 136.42 158.315 136.42 156.981C136.42 155.515 136.67 154.315 137.17 153.381C137.704 152.415 138.37 151.648 139.17 151.081C140.004 150.515 140.937 150.098 141.97 149.831C143.037 149.531 144.104 149.298 145.17 149.131C146.237 148.965 147.287 148.831 148.32 148.731C149.354 148.631 150.27 148.481 151.07 148.281C151.87 148.081 152.504 147.798 152.97 147.431C153.437 147.031 153.654 146.465 153.62 145.731C153.62 144.965 153.487 144.365 153.22 143.931C152.987 143.465 152.654 143.115 152.22 142.881C151.82 142.615 151.337 142.448 150.77 142.381C150.237 142.281 149.654 142.231 149.02 142.231C147.62 142.231 146.52 142.531 145.72 143.131C144.92 143.731 144.454 144.731 144.32 146.131H137.22ZM153.62 151.381C153.32 151.648 152.937 151.865 152.47 152.031C152.037 152.165 151.554 152.281 151.02 152.381C150.52 152.481 149.987 152.565 149.42 152.631C148.854 152.698 148.287 152.781 147.72 152.881C147.187 152.981 146.654 153.115 146.12 153.281C145.62 153.448 145.17 153.681 144.77 153.981C144.404 154.248 144.104 154.598 143.87 155.031C143.637 155.465 143.52 156.015 143.52 156.681C143.52 157.315 143.637 157.848 143.87 158.281C144.104 158.715 144.42 159.065 144.82 159.331C145.22 159.565 145.687 159.731 146.22 159.831C146.754 159.931 147.304 159.981 147.87 159.981C149.27 159.981 150.354 159.748 151.12 159.281C151.887 158.815 152.454 158.265 152.82 157.631C153.187 156.965 153.404 156.298 153.47 155.631C153.57 154.965 153.62 154.431 153.62 154.031V151.381ZM166.231 138.181H172.981V141.781H173.131C174.031 140.281 175.198 139.198 176.631 138.531C178.065 137.831 179.531 137.481 181.031 137.481C182.931 137.481 184.481 137.748 185.681 138.281C186.915 138.781 187.881 139.498 188.581 140.431C189.281 141.331 189.765 142.448 190.031 143.781C190.331 145.081 190.481 146.531 190.481 148.131V164.031H183.381V149.431C183.381 147.298 183.048 145.715 182.381 144.681C181.715 143.615 180.531 143.081 178.831 143.081C176.898 143.081 175.498 143.665 174.631 144.831C173.765 145.965 173.331 147.848 173.331 150.481V164.031H166.231V138.181ZM214.22 151.031C214.22 149.965 214.12 148.948 213.92 147.981C213.72 146.981 213.37 146.115 212.87 145.381C212.403 144.615 211.787 143.998 211.02 143.531C210.253 143.065 209.287 142.831 208.12 142.831C206.953 142.831 205.97 143.065 205.17 143.531C204.37 143.998 203.72 144.615 203.22 145.381C202.753 146.148 202.403 147.031 202.17 148.031C201.97 148.998 201.87 150.015 201.87 151.081C201.87 152.081 201.987 153.081 202.22 154.081C202.453 155.081 202.82 155.981 203.32 156.781C203.853 157.548 204.503 158.181 205.27 158.681C206.07 159.148 207.02 159.381 208.12 159.381C209.287 159.381 210.253 159.148 211.02 158.681C211.82 158.215 212.453 157.598 212.92 156.831C213.387 156.031 213.72 155.131 213.92 154.131C214.12 153.131 214.22 152.098 214.22 151.031ZM214.32 160.731H214.22C213.387 162.131 212.287 163.148 210.92 163.781C209.587 164.381 208.07 164.681 206.37 164.681C204.437 164.681 202.737 164.315 201.27 163.581C199.803 162.815 198.587 161.798 197.62 160.531C196.687 159.231 195.97 157.748 195.47 156.081C195.003 154.415 194.77 152.681 194.77 150.881C194.77 149.148 195.003 147.481 195.47 145.881C195.97 144.248 196.687 142.815 197.62 141.581C198.587 140.348 199.787 139.365 201.22 138.631C202.653 137.865 204.32 137.481 206.22 137.481C207.753 137.481 209.203 137.815 210.57 138.481C211.97 139.115 213.07 140.065 213.87 141.331H213.97V128.331H221.07V164.031H214.32V160.731ZM226.136 146.131C226.236 144.465 226.653 143.081 227.386 141.981C228.12 140.881 229.053 139.998 230.186 139.331C231.32 138.665 232.586 138.198 233.986 137.931C235.42 137.631 236.853 137.481 238.286 137.481C239.586 137.481 240.903 137.581 242.236 137.781C243.57 137.948 244.786 138.298 245.886 138.831C246.986 139.365 247.886 140.115 248.586 141.081C249.286 142.015 249.636 143.265 249.636 144.831V158.281C249.636 159.448 249.703 160.565 249.836 161.631C249.97 162.698 250.203 163.498 250.536 164.031H243.336C243.203 163.631 243.086 163.231 242.986 162.831C242.92 162.398 242.87 161.965 242.836 161.531C241.703 162.698 240.37 163.515 238.836 163.981C237.303 164.448 235.736 164.681 234.136 164.681C232.903 164.681 231.753 164.531 230.686 164.231C229.62 163.931 228.686 163.465 227.886 162.831C227.086 162.198 226.453 161.398 225.986 160.431C225.553 159.465 225.336 158.315 225.336 156.981C225.336 155.515 225.586 154.315 226.086 153.381C226.62 152.415 227.286 151.648 228.086 151.081C228.92 150.515 229.853 150.098 230.886 149.831C231.953 149.531 233.02 149.298 234.086 149.131C235.153 148.965 236.203 148.831 237.236 148.731C238.27 148.631 239.186 148.481 239.986 148.281C240.786 148.081 241.42 147.798 241.886 147.431C242.353 147.031 242.57 146.465 242.536 145.731C242.536 144.965 242.403 144.365 242.136 143.931C241.903 143.465 241.57 143.115 241.136 142.881C240.736 142.615 240.253 142.448 239.686 142.381C239.153 142.281 238.57 142.231 237.936 142.231C236.536 142.231 235.436 142.531 234.636 143.131C233.836 143.731 233.37 144.731 233.236 146.131H226.136ZM242.536 151.381C242.236 151.648 241.853 151.865 241.386 152.031C240.953 152.165 240.47 152.281 239.936 152.381C239.436 152.481 238.903 152.565 238.336 152.631C237.77 152.698 237.203 152.781 236.636 152.881C236.103 152.981 235.57 153.115 235.036 153.281C234.536 153.448 234.086 153.681 233.686 153.981C233.32 154.248 233.02 154.598 232.786 155.031C232.553 155.465 232.436 156.015 232.436 156.681C232.436 157.315 232.553 157.848 232.786 158.281C233.02 158.715 233.336 159.065 233.736 159.331C234.136 159.565 234.603 159.731 235.136 159.831C235.67 159.931 236.22 159.981 236.786 159.981C238.186 159.981 239.27 159.748 240.036 159.281C240.803 158.815 241.37 158.265 241.736 157.631C242.103 156.965 242.32 156.298 242.386 155.631C242.486 154.965 242.536 154.431 242.536 154.031V151.381ZM255.147 138.181H261.897V142.981H261.997C262.331 142.181 262.781 141.448 263.347 140.781C263.914 140.081 264.564 139.498 265.297 139.031C266.031 138.531 266.814 138.148 267.647 137.881C268.481 137.615 269.347 137.481 270.247 137.481C270.714 137.481 271.231 137.565 271.797 137.731V144.331C271.464 144.265 271.064 144.215 270.597 144.181C270.131 144.115 269.681 144.081 269.247 144.081C267.947 144.081 266.847 144.298 265.947 144.731C265.047 145.165 264.314 145.765 263.747 146.531C263.214 147.265 262.831 148.131 262.597 149.131C262.364 150.131 262.247 151.215 262.247 152.381V164.031H255.147V138.181ZM292.052 151.031C292.052 149.965 291.952 148.948 291.752 147.981C291.552 146.981 291.202 146.115 290.702 145.381C290.235 144.615 289.619 143.998 288.852 143.531C288.085 143.065 287.119 142.831 285.952 142.831C284.785 142.831 283.802 143.065 283.002 143.531C282.202 143.998 281.552 144.615 281.052 145.381C280.585 146.148 280.235 147.031 280.002 148.031C279.802 148.998 279.702 150.015 279.702 151.081C279.702 152.081 279.819 153.081 280.052 154.081C280.285 155.081 280.652 155.981 281.152 156.781C281.685 157.548 282.335 158.181 283.102 158.681C283.902 159.148 284.852 159.381 285.952 159.381C287.119 159.381 288.085 159.148 288.852 158.681C289.652 158.215 290.285 157.598 290.752 156.831C291.219 156.031 291.552 155.131 291.752 154.131C291.952 153.131 292.052 152.098 292.052 151.031ZM292.152 160.731H292.052C291.219 162.131 290.119 163.148 288.752 163.781C287.419 164.381 285.902 164.681 284.202 164.681C282.269 164.681 280.569 164.315 279.102 163.581C277.635 162.815 276.419 161.798 275.452 160.531C274.519 159.231 273.802 157.748 273.302 156.081C272.835 154.415 272.602 152.681 272.602 150.881C272.602 149.148 272.835 147.481 273.302 145.881C273.802 144.248 274.519 142.815 275.452 141.581C276.419 140.348 277.619 139.365 279.052 138.631C280.485 137.865 282.152 137.481 284.052 137.481C285.585 137.481 287.035 137.815 288.402 138.481C289.802 139.115 290.902 140.065 291.702 141.331H291.802V128.331H298.902V164.031H292.152V160.731ZM309.768 155.631C309.768 156.398 309.918 157.065 310.218 157.631C310.552 158.165 310.968 158.615 311.468 158.981C311.968 159.315 312.535 159.565 313.168 159.731C313.835 159.898 314.518 159.981 315.218 159.981C315.718 159.981 316.235 159.931 316.768 159.831C317.335 159.698 317.835 159.515 318.268 159.281C318.735 159.015 319.118 158.681 319.418 158.281C319.718 157.848 319.868 157.315 319.868 156.681C319.868 155.615 319.152 154.815 317.718 154.281C316.318 153.748 314.352 153.215 311.818 152.681C310.785 152.448 309.768 152.181 308.768 151.881C307.802 151.548 306.935 151.131 306.168 150.631C305.402 150.098 304.785 149.448 304.318 148.681C303.852 147.881 303.618 146.915 303.618 145.781C303.618 144.115 303.935 142.748 304.568 141.681C305.235 140.615 306.102 139.781 307.168 139.181C308.235 138.548 309.435 138.115 310.768 137.881C312.102 137.615 313.468 137.481 314.868 137.481C316.268 137.481 317.618 137.615 318.918 137.881C320.252 138.148 321.435 138.598 322.468 139.231C323.502 139.865 324.352 140.715 325.018 141.781C325.718 142.815 326.135 144.131 326.268 145.731H319.518C319.418 144.365 318.902 143.448 317.968 142.981C317.035 142.481 315.935 142.231 314.668 142.231C314.268 142.231 313.835 142.265 313.368 142.331C312.902 142.365 312.468 142.465 312.068 142.631C311.702 142.798 311.385 143.048 311.118 143.381C310.852 143.681 310.718 144.098 310.718 144.631C310.718 145.265 310.952 145.781 311.418 146.181C311.885 146.581 312.485 146.915 313.218 147.181C313.985 147.415 314.852 147.631 315.818 147.831C316.785 148.031 317.768 148.248 318.768 148.481C319.802 148.715 320.802 148.998 321.768 149.331C322.768 149.665 323.652 150.115 324.418 150.681C325.185 151.215 325.802 151.898 326.268 152.731C326.735 153.531 326.968 154.531 326.968 155.731C326.968 157.431 326.618 158.865 325.918 160.031C325.252 161.165 324.368 162.081 323.268 162.781C322.168 163.481 320.902 163.965 319.468 164.231C318.068 164.531 316.635 164.681 315.168 164.681C313.668 164.681 312.202 164.531 310.768 164.231C309.335 163.931 308.052 163.431 306.918 162.731C305.818 162.031 304.902 161.115 304.168 159.981C303.468 158.815 303.085 157.365 303.018 155.631H309.768Z" fill="white"/>
    <path d="M167.575 198.373H162.475V221.523H159.325V198.373H154.925V195.723H159.325V193.373C159.325 192.273 159.408 191.256 159.575 190.323C159.742 189.39 160.058 188.59 160.525 187.923C160.992 187.256 161.625 186.74 162.425 186.373C163.258 186.006 164.308 185.823 165.575 185.823C166.042 185.823 166.475 185.84 166.875 185.873C167.275 185.906 167.725 185.956 168.225 186.023V188.723C167.792 188.656 167.392 188.606 167.025 188.573C166.658 188.506 166.292 188.473 165.925 188.473C165.058 188.473 164.392 188.606 163.925 188.873C163.458 189.14 163.108 189.506 162.875 189.973C162.675 190.406 162.558 190.923 162.525 191.523C162.492 192.123 162.475 192.773 162.475 193.473V195.723H167.575V198.373ZM181.464 197.623C179.964 197.623 178.648 197.94 177.514 198.573C176.381 199.206 175.431 200.04 174.664 201.073C173.931 202.106 173.364 203.29 172.964 204.623C172.598 205.923 172.414 207.256 172.414 208.623C172.414 209.99 172.598 211.34 172.964 212.673C173.364 213.973 173.931 215.14 174.664 216.173C175.431 217.206 176.381 218.04 177.514 218.673C178.648 219.306 179.964 219.623 181.464 219.623C182.964 219.623 184.281 219.306 185.414 218.673C186.548 218.04 187.481 217.206 188.214 216.173C188.981 215.14 189.548 213.973 189.914 212.673C190.314 211.34 190.514 209.99 190.514 208.623C190.514 207.256 190.314 205.923 189.914 204.623C189.548 203.29 188.981 202.106 188.214 201.073C187.481 200.04 186.548 199.206 185.414 198.573C184.281 197.94 182.964 197.623 181.464 197.623ZM181.464 194.973C183.431 194.973 185.164 195.34 186.664 196.073C188.198 196.806 189.481 197.79 190.514 199.023C191.548 200.256 192.331 201.706 192.864 203.373C193.398 205.006 193.664 206.756 193.664 208.623C193.664 210.49 193.398 212.256 192.864 213.923C192.331 215.556 191.548 216.99 190.514 218.223C189.481 219.456 188.198 220.44 186.664 221.173C185.164 221.873 183.431 222.223 181.464 222.223C179.498 222.223 177.748 221.873 176.214 221.173C174.714 220.44 173.448 219.456 172.414 218.223C171.381 216.99 170.598 215.556 170.064 213.923C169.531 212.256 169.264 210.49 169.264 208.623C169.264 206.756 169.531 205.006 170.064 203.373C170.598 201.706 171.381 200.256 172.414 199.023C173.448 197.79 174.714 196.806 176.214 196.073C177.748 195.34 179.498 194.973 181.464 194.973ZM198.348 195.723H201.248V201.773H201.348C202.148 199.673 203.381 198.056 205.048 196.923C206.748 195.79 208.764 195.273 211.098 195.373V198.523C209.664 198.456 208.364 198.656 207.198 199.123C206.031 199.556 205.014 200.19 204.148 201.023C203.314 201.856 202.664 202.856 202.198 204.023C201.731 205.156 201.498 206.406 201.498 207.773V221.523H198.348V195.723Z" fill="white"/>
    <path d="M4.10293 241.92H7.50293V274.72H27.5029V277.62H4.10293V241.92ZM30.4084 241.92H33.5584V246.97H30.4084V241.92ZM30.4084 251.82H33.5584V277.62H30.4084V251.82ZM49.5369 254.47H44.4369V277.62H41.2869V254.47H36.8869V251.82H41.2869V249.47C41.2869 248.37 41.3702 247.354 41.5369 246.42C41.7036 245.487 42.0202 244.687 42.4869 244.02C42.9536 243.354 43.5869 242.837 44.3869 242.47C45.2202 242.104 46.2702 241.92 47.5369 241.92C48.0036 241.92 48.4369 241.937 48.8369 241.97C49.2369 242.004 49.6869 242.054 50.1869 242.12V244.82C49.7536 244.754 49.3536 244.704 48.9869 244.67C48.6202 244.604 48.2536 244.57 47.8869 244.57C47.0202 244.57 46.3536 244.704 45.8869 244.97C45.4202 245.237 45.0702 245.604 44.8369 246.07C44.6369 246.504 44.5202 247.02 44.4869 247.62C44.4536 248.22 44.4369 248.87 44.4369 249.57V251.82H49.5369V254.47ZM71.0764 262.92C71.043 261.72 70.8264 260.57 70.4264 259.47C70.0597 258.37 69.5264 257.404 68.8264 256.57C68.1264 255.704 67.2764 255.02 66.2764 254.52C65.2764 253.987 64.143 253.72 62.8764 253.72C61.5764 253.72 60.4264 253.987 59.4264 254.52C58.4264 255.02 57.5764 255.704 56.8764 256.57C56.1764 257.404 55.6097 258.387 55.1764 259.52C54.7764 260.62 54.5097 261.754 54.3764 262.92H71.0764ZM54.3764 265.57C54.3764 266.704 54.5264 267.887 54.8264 269.12C55.1597 270.32 55.6764 271.404 56.3764 272.37C57.0764 273.337 57.9597 274.137 59.0264 274.77C60.093 275.404 61.3764 275.72 62.8764 275.72C65.1764 275.72 66.9764 275.12 68.2764 273.92C69.5764 272.72 70.4764 271.12 70.9764 269.12H74.1264C73.4597 272.054 72.2264 274.32 70.4264 275.92C68.6597 277.52 66.143 278.32 62.8764 278.32C60.843 278.32 59.0764 277.97 57.5764 277.27C56.1097 276.537 54.9097 275.554 53.9764 274.32C53.043 273.054 52.343 271.604 51.8764 269.97C51.443 268.304 51.2264 266.554 51.2264 264.72C51.2264 263.02 51.443 261.354 51.8764 259.72C52.343 258.087 53.043 256.637 53.9764 255.37C54.9097 254.07 56.1097 253.037 57.5764 252.27C59.0764 251.47 60.843 251.07 62.8764 251.07C64.943 251.07 66.7097 251.487 68.1764 252.32C69.643 253.154 70.8264 254.254 71.7264 255.62C72.6597 256.954 73.3264 258.504 73.7264 260.27C74.1264 262.004 74.293 263.77 74.2264 265.57H54.3764ZM92.6201 241.92H96.0201V264.02C96.0201 266.087 96.2535 267.854 96.7201 269.32C97.1868 270.754 97.8701 271.937 98.7701 272.87C99.6701 273.77 100.77 274.437 102.07 274.87C103.37 275.27 104.837 275.47 106.47 275.47C108.137 275.47 109.62 275.27 110.92 274.87C112.22 274.437 113.32 273.77 114.22 272.87C115.12 271.937 115.803 270.754 116.27 269.32C116.737 267.854 116.97 266.087 116.97 264.02V241.92H120.37V264.77C120.37 266.604 120.103 268.354 119.57 270.02C119.07 271.654 118.253 273.087 117.12 274.32C116.02 275.554 114.587 276.537 112.82 277.27C111.087 277.97 108.97 278.32 106.47 278.32C104.003 278.32 101.887 277.97 100.12 277.27C98.3868 276.537 96.9535 275.554 95.8201 274.32C94.7201 273.087 93.9035 271.654 93.3701 270.02C92.8701 268.354 92.6201 266.604 92.6201 264.77V241.92ZM126.549 251.82H129.699V256.27H129.799C130.399 254.704 131.465 253.454 132.999 252.52C134.532 251.554 136.215 251.07 138.049 251.07C139.849 251.07 141.349 251.304 142.549 251.77C143.782 252.237 144.765 252.904 145.499 253.77C146.232 254.604 146.749 255.637 147.049 256.87C147.349 258.104 147.499 259.487 147.499 261.02V277.62H144.349V261.52C144.349 260.42 144.249 259.404 144.049 258.47C143.849 257.504 143.499 256.67 142.999 255.97C142.499 255.27 141.815 254.72 140.949 254.32C140.115 253.92 139.065 253.72 137.799 253.72C136.532 253.72 135.399 253.954 134.399 254.42C133.432 254.854 132.599 255.47 131.899 256.27C131.232 257.037 130.699 257.97 130.299 259.07C129.932 260.137 129.732 261.304 129.699 262.57V277.62H126.549V251.82ZM176.154 277.62H173.254V272.72H173.154C172.821 273.554 172.321 274.32 171.654 275.02C171.021 275.72 170.287 276.32 169.454 276.82C168.621 277.287 167.721 277.654 166.754 277.92C165.821 278.187 164.887 278.32 163.954 278.32C161.987 278.32 160.271 277.97 158.804 277.27C157.371 276.537 156.171 275.554 155.204 274.32C154.237 273.054 153.521 271.604 153.054 269.97C152.587 268.304 152.354 266.554 152.354 264.72C152.354 262.887 152.587 261.154 153.054 259.52C153.521 257.854 154.237 256.404 155.204 255.17C156.171 253.904 157.371 252.904 158.804 252.17C160.271 251.437 161.987 251.07 163.954 251.07C164.921 251.07 165.854 251.187 166.754 251.42C167.687 251.654 168.554 252.02 169.354 252.52C170.154 252.987 170.854 253.57 171.454 254.27C172.087 254.97 172.571 255.787 172.904 256.72H173.004V241.92H176.154V277.62ZM155.504 264.72C155.504 266.054 155.654 267.387 155.954 268.72C156.287 270.02 156.787 271.187 157.454 272.22C158.154 273.254 159.037 274.104 160.104 274.77C161.171 275.404 162.454 275.72 163.954 275.72C165.621 275.72 167.021 275.404 168.154 274.77C169.321 274.104 170.254 273.254 170.954 272.22C171.687 271.187 172.204 270.02 172.504 268.72C172.837 267.387 173.004 266.054 173.004 264.72C173.004 263.387 172.837 262.07 172.504 260.77C172.204 259.437 171.687 258.254 170.954 257.22C170.254 256.187 169.321 255.354 168.154 254.72C167.021 254.054 165.621 253.72 163.954 253.72C162.454 253.72 161.171 254.054 160.104 254.72C159.037 255.354 158.154 256.187 157.454 257.22C156.787 258.254 156.287 259.437 155.954 260.77C155.654 262.07 155.504 263.387 155.504 264.72ZM200.715 262.92C200.682 261.72 200.465 260.57 200.065 259.47C199.698 258.37 199.165 257.404 198.465 256.57C197.765 255.704 196.915 255.02 195.915 254.52C194.915 253.987 193.782 253.72 192.515 253.72C191.215 253.72 190.065 253.987 189.065 254.52C188.065 255.02 187.215 255.704 186.515 256.57C185.815 257.404 185.248 258.387 184.815 259.52C184.415 260.62 184.148 261.754 184.015 262.92H200.715ZM184.015 265.57C184.015 266.704 184.165 267.887 184.465 269.12C184.798 270.32 185.315 271.404 186.015 272.37C186.715 273.337 187.598 274.137 188.665 274.77C189.732 275.404 191.015 275.72 192.515 275.72C194.815 275.72 196.615 275.12 197.915 273.92C199.215 272.72 200.115 271.12 200.615 269.12H203.765C203.098 272.054 201.865 274.32 200.065 275.92C198.298 277.52 195.782 278.32 192.515 278.32C190.482 278.32 188.715 277.97 187.215 277.27C185.748 276.537 184.548 275.554 183.615 274.32C182.682 273.054 181.982 271.604 181.515 269.97C181.082 268.304 180.865 266.554 180.865 264.72C180.865 263.02 181.082 261.354 181.515 259.72C181.982 258.087 182.682 256.637 183.615 255.37C184.548 254.07 185.748 253.037 187.215 252.27C188.715 251.47 190.482 251.07 192.515 251.07C194.582 251.07 196.348 251.487 197.815 252.32C199.282 253.154 200.465 254.254 201.365 255.62C202.298 256.954 202.965 258.504 203.365 260.27C203.765 262.004 203.932 263.77 203.865 265.57H184.015ZM208.093 251.82H210.993V257.87H211.093C211.893 255.77 213.126 254.154 214.793 253.02C216.493 251.887 218.509 251.37 220.843 251.47V254.62C219.409 254.554 218.109 254.754 216.943 255.22C215.776 255.654 214.759 256.287 213.893 257.12C213.059 257.954 212.409 258.954 211.943 260.12C211.476 261.254 211.243 262.504 211.243 263.87V277.62H208.093V251.82ZM221.264 251.82H224.614L231.214 273.92H231.314L237.614 251.82H241.164L247.464 273.92H247.564L254.164 251.82H257.514L249.214 277.62H245.764L239.414 255.92H239.314L233.014 277.62H229.564L221.264 251.82ZM260.925 251.82H263.825V257.87H263.925C264.725 255.77 265.958 254.154 267.625 253.02C269.325 251.887 271.341 251.37 273.675 251.47V254.62C272.241 254.554 270.941 254.754 269.775 255.22C268.608 255.654 267.591 256.287 266.725 257.12C265.891 257.954 265.241 258.954 264.775 260.12C264.308 261.254 264.075 262.504 264.075 263.87V277.62H260.925V251.82ZM276.746 241.92H279.896V246.97H276.746V241.92ZM276.746 251.82H279.896V277.62H276.746V251.82ZM290.925 251.82H296.175V254.47H290.925V271.87C290.925 272.904 291.058 273.72 291.325 274.32C291.625 274.887 292.341 275.204 293.475 275.27C294.375 275.27 295.275 275.22 296.175 275.12V277.77C295.708 277.77 295.241 277.787 294.775 277.82C294.308 277.854 293.841 277.87 293.375 277.87C291.275 277.87 289.808 277.47 288.975 276.67C288.141 275.837 287.741 274.32 287.775 272.12V254.47H283.275V251.82H287.775V244.07H290.925V251.82ZM319.27 262.92C319.236 261.72 319.02 260.57 318.62 259.47C318.253 258.37 317.72 257.404 317.02 256.57C316.32 255.704 315.47 255.02 314.47 254.52C313.47 253.987 312.336 253.72 311.07 253.72C309.77 253.72 308.62 253.987 307.62 254.52C306.62 255.02 305.77 255.704 305.07 256.57C304.37 257.404 303.803 258.387 303.37 259.52C302.97 260.62 302.703 261.754 302.57 262.92H319.27ZM302.57 265.57C302.57 266.704 302.72 267.887 303.02 269.12C303.353 270.32 303.87 271.404 304.57 272.37C305.27 273.337 306.153 274.137 307.22 274.77C308.286 275.404 309.57 275.72 311.07 275.72C313.37 275.72 315.17 275.12 316.47 273.92C317.77 272.72 318.67 271.12 319.17 269.12H322.32C321.653 272.054 320.42 274.32 318.62 275.92C316.853 277.52 314.336 278.32 311.07 278.32C309.036 278.32 307.27 277.97 305.77 277.27C304.303 276.537 303.103 275.554 302.17 274.32C301.236 273.054 300.536 271.604 300.07 269.97C299.636 268.304 299.42 266.554 299.42 264.72C299.42 263.02 299.636 261.354 300.07 259.72C300.536 258.087 301.236 256.637 302.17 255.37C303.103 254.07 304.303 253.037 305.77 252.27C307.27 251.47 309.036 251.07 311.07 251.07C313.136 251.07 314.903 251.487 316.37 252.32C317.836 253.154 319.02 254.254 319.92 255.62C320.853 256.954 321.52 258.504 321.92 260.27C322.32 262.004 322.486 263.77 322.42 265.57H302.57ZM326.647 251.82H329.547V257.87H329.647C330.447 255.77 331.681 254.154 333.347 253.02C335.047 251.887 337.064 251.37 339.397 251.47V254.62C337.964 254.554 336.664 254.754 335.497 255.22C334.331 255.654 333.314 256.287 332.447 257.12C331.614 257.954 330.964 258.954 330.497 260.12C330.031 261.254 329.797 262.504 329.797 263.87V277.62H326.647V251.82ZM357.869 259.37C357.836 258.404 357.636 257.57 357.269 256.87C356.902 256.137 356.402 255.537 355.769 255.07C355.169 254.604 354.469 254.27 353.669 254.07C352.869 253.837 352.019 253.72 351.119 253.72C350.419 253.72 349.702 253.804 348.969 253.97C348.269 254.104 347.619 254.354 347.019 254.72C346.419 255.054 345.936 255.504 345.569 256.07C345.202 256.637 345.019 257.337 345.019 258.17C345.019 258.87 345.186 259.47 345.519 259.97C345.886 260.437 346.336 260.837 346.869 261.17C347.402 261.504 347.986 261.787 348.619 262.02C349.252 262.22 349.836 262.387 350.369 262.52L354.569 263.47C355.469 263.604 356.352 263.854 357.219 264.22C358.119 264.554 358.902 265.004 359.569 265.57C360.269 266.137 360.836 266.837 361.269 267.67C361.702 268.504 361.919 269.487 361.919 270.62C361.919 272.02 361.602 273.22 360.969 274.22C360.336 275.187 359.519 275.987 358.519 276.62C357.552 277.22 356.452 277.654 355.219 277.92C353.986 278.187 352.769 278.32 351.569 278.32C348.536 278.32 346.069 277.604 344.169 276.17C342.302 274.737 341.236 272.437 340.969 269.27H344.119C344.252 271.404 345.019 273.02 346.419 274.12C347.852 275.187 349.619 275.72 351.719 275.72C352.486 275.72 353.269 275.637 354.069 275.47C354.902 275.304 355.669 275.02 356.369 274.62C357.069 274.22 357.636 273.72 358.069 273.12C358.536 272.487 358.769 271.72 358.769 270.82C358.769 270.054 358.602 269.42 358.269 268.92C357.969 268.387 357.552 267.954 357.019 267.62C356.486 267.254 355.869 266.954 355.169 266.72C354.502 266.487 353.819 266.287 353.119 266.12L349.069 265.22C348.036 264.954 347.086 264.654 346.219 264.32C345.352 263.954 344.586 263.52 343.919 263.02C343.286 262.487 342.786 261.854 342.419 261.12C342.052 260.354 341.869 259.42 341.869 258.32C341.869 257.02 342.152 255.904 342.719 254.97C343.319 254.037 344.086 253.287 345.019 252.72C345.952 252.154 346.986 251.737 348.119 251.47C349.286 251.204 350.436 251.07 351.569 251.07C352.869 251.07 354.069 251.237 355.169 251.57C356.302 251.904 357.286 252.42 358.119 253.12C358.986 253.82 359.669 254.687 360.169 255.72C360.669 256.754 360.952 257.97 361.019 259.37H357.869Z" fill="white"/>
</svg>
